%TF.GenerationSoftware,KiCad,Pcbnew,8.0.7*%
%TF.CreationDate,2024-12-15T20:11:50+01:00*%
%TF.ProjectId,transistor-tester,7472616e-7369-4737-946f-722d74657374,rev?*%
%TF.SameCoordinates,Original*%
%TF.FileFunction,Legend,Bot*%
%TF.FilePolarity,Positive*%
%FSLAX46Y46*%
G04 Gerber Fmt 4.6, Leading zero omitted, Abs format (unit mm)*
G04 Created by KiCad (PCBNEW 8.0.7) date 2024-12-15 20:11:50*
%MOMM*%
%LPD*%
G01*
G04 APERTURE LIST*
G04 Aperture macros list*
%AMRoundRect*
0 Rectangle with rounded corners*
0 $1 Rounding radius*
0 $2 $3 $4 $5 $6 $7 $8 $9 X,Y pos of 4 corners*
0 Add a 4 corners polygon primitive as box body*
4,1,4,$2,$3,$4,$5,$6,$7,$8,$9,$2,$3,0*
0 Add four circle primitives for the rounded corners*
1,1,$1+$1,$2,$3*
1,1,$1+$1,$4,$5*
1,1,$1+$1,$6,$7*
1,1,$1+$1,$8,$9*
0 Add four rect primitives between the rounded corners*
20,1,$1+$1,$2,$3,$4,$5,0*
20,1,$1+$1,$4,$5,$6,$7,0*
20,1,$1+$1,$6,$7,$8,$9,0*
20,1,$1+$1,$8,$9,$2,$3,0*%
G04 Aperture macros list end*
%ADD10C,0.100000*%
%ADD11C,0.120000*%
%ADD12C,0.150000*%
%ADD13R,2.000000X2.000000*%
%ADD14C,2.000000*%
%ADD15R,2.500000X3.000000*%
%ADD16C,4.000000*%
%ADD17R,1.500000X1.500000*%
%ADD18C,1.500000*%
%ADD19R,1.440000X2.000000*%
%ADD20O,1.440000X2.000000*%
%ADD21RoundRect,0.250000X-0.250000X-0.475000X0.250000X-0.475000X0.250000X0.475000X-0.250000X0.475000X0*%
%ADD22RoundRect,0.250000X0.450000X-0.262500X0.450000X0.262500X-0.450000X0.262500X-0.450000X-0.262500X0*%
%ADD23RoundRect,0.250000X-0.700000X0.275000X-0.700000X-0.275000X0.700000X-0.275000X0.700000X0.275000X0*%
%ADD24RoundRect,0.250000X0.325000X0.650000X-0.325000X0.650000X-0.325000X-0.650000X0.325000X-0.650000X0*%
%ADD25RoundRect,0.250000X0.475000X-0.250000X0.475000X0.250000X-0.475000X0.250000X-0.475000X-0.250000X0*%
%ADD26RoundRect,0.250000X0.250000X0.475000X-0.250000X0.475000X-0.250000X-0.475000X0.250000X-0.475000X0*%
%ADD27RoundRect,0.250000X-0.450000X-0.425000X0.450000X-0.425000X0.450000X0.425000X-0.450000X0.425000X0*%
%ADD28RoundRect,0.250000X-0.262500X-0.450000X0.262500X-0.450000X0.262500X0.450000X-0.262500X0.450000X0*%
%ADD29RoundRect,0.250000X0.450000X0.425000X-0.450000X0.425000X-0.450000X-0.425000X0.450000X-0.425000X0*%
%ADD30RoundRect,0.150000X-0.150000X0.587500X-0.150000X-0.587500X0.150000X-0.587500X0.150000X0.587500X0*%
%ADD31RoundRect,0.250000X-0.650000X0.325000X-0.650000X-0.325000X0.650000X-0.325000X0.650000X0.325000X0*%
%ADD32R,1.700000X1.700000*%
%ADD33O,1.700000X1.700000*%
%ADD34RoundRect,0.175000X-0.425000X0.175000X-0.425000X-0.175000X0.425000X-0.175000X0.425000X0.175000X0*%
%ADD35RoundRect,0.190000X0.410000X-0.190000X0.410000X0.190000X-0.410000X0.190000X-0.410000X-0.190000X0*%
%ADD36RoundRect,0.200000X0.400000X-0.200000X0.400000X0.200000X-0.400000X0.200000X-0.400000X-0.200000X0*%
%ADD37RoundRect,0.175000X0.425000X-0.175000X0.425000X0.175000X-0.425000X0.175000X-0.425000X-0.175000X0*%
%ADD38RoundRect,0.190000X-0.410000X0.190000X-0.410000X-0.190000X0.410000X-0.190000X0.410000X0.190000X0*%
%ADD39RoundRect,0.200000X-0.400000X0.200000X-0.400000X-0.200000X0.400000X-0.200000X0.400000X0.200000X0*%
%ADD40O,1.700000X1.100000*%
%ADD41RoundRect,0.250000X-0.325000X-0.650000X0.325000X-0.650000X0.325000X0.650000X-0.325000X0.650000X0*%
%ADD42RoundRect,0.250000X-0.450000X0.262500X-0.450000X-0.262500X0.450000X-0.262500X0.450000X0.262500X0*%
%ADD43RoundRect,0.150000X-0.587500X-0.150000X0.587500X-0.150000X0.587500X0.150000X-0.587500X0.150000X0*%
%ADD44RoundRect,0.150000X-0.512500X-0.150000X0.512500X-0.150000X0.512500X0.150000X-0.512500X0.150000X0*%
%ADD45RoundRect,0.250000X-0.475000X0.250000X-0.475000X-0.250000X0.475000X-0.250000X0.475000X0.250000X0*%
%ADD46RoundRect,0.243750X0.456250X-0.243750X0.456250X0.243750X-0.456250X0.243750X-0.456250X-0.243750X0*%
%ADD47RoundRect,0.250000X-1.000000X-0.650000X1.000000X-0.650000X1.000000X0.650000X-1.000000X0.650000X0*%
%ADD48RoundRect,0.250000X0.262500X0.450000X-0.262500X0.450000X-0.262500X-0.450000X0.262500X-0.450000X0*%
%ADD49RoundRect,0.243750X-0.243750X-0.456250X0.243750X-0.456250X0.243750X0.456250X-0.243750X0.456250X0*%
%ADD50R,1.500000X0.550000*%
%ADD51R,0.550000X1.500000*%
%ADD52RoundRect,0.150000X0.150000X-0.587500X0.150000X0.587500X-0.150000X0.587500X-0.150000X-0.587500X0*%
%ADD53RoundRect,0.250000X0.650000X-0.325000X0.650000X0.325000X-0.650000X0.325000X-0.650000X-0.325000X0*%
%ADD54R,2.000000X4.500000*%
G04 APERTURE END LIST*
D10*
G36*
X128881784Y-77569631D02*
G01*
X128934739Y-77565616D01*
X128986321Y-77551502D01*
X129029441Y-77527225D01*
X129053487Y-77505395D01*
X129082059Y-77464858D01*
X129101280Y-77415510D01*
X129110515Y-77364250D01*
X129112593Y-77321236D01*
X129112593Y-76801976D01*
X129109765Y-76752174D01*
X129099606Y-76701784D01*
X129079346Y-76653415D01*
X129053487Y-76617817D01*
X129011321Y-76583942D01*
X128964440Y-76564182D01*
X128915664Y-76555149D01*
X128881784Y-76553581D01*
X128828844Y-76557672D01*
X128777316Y-76572055D01*
X128734288Y-76596793D01*
X128710325Y-76619038D01*
X128681753Y-76660202D01*
X128662532Y-76710331D01*
X128653297Y-76762416D01*
X128651219Y-76806128D01*
X128651219Y-76892346D01*
X128797520Y-76892346D01*
X128797520Y-76794648D01*
X128803857Y-76746123D01*
X128832021Y-76706126D01*
X128877632Y-76694265D01*
X128926450Y-76707969D01*
X128953910Y-76753745D01*
X128957743Y-76791718D01*
X128957743Y-77332960D01*
X128949920Y-77383578D01*
X128916358Y-77421354D01*
X128877632Y-77428947D01*
X128828814Y-77415827D01*
X128801354Y-77372001D01*
X128797520Y-77335646D01*
X128797520Y-77147579D01*
X128874701Y-77147579D01*
X128874701Y-77006896D01*
X128651219Y-77006896D01*
X128651219Y-77325144D01*
X128654047Y-77374138D01*
X128664206Y-77423719D01*
X128684466Y-77471323D01*
X128710325Y-77506372D01*
X128752362Y-77539731D01*
X128799168Y-77559191D01*
X128847909Y-77568087D01*
X128881784Y-77569631D01*
G37*
G36*
X128554254Y-76569212D02*
G01*
X128360081Y-76569212D01*
X128209628Y-77164188D01*
X128206697Y-77164188D01*
X128206697Y-76569212D01*
X128068944Y-76569212D01*
X128068944Y-77554000D01*
X128227946Y-77554000D01*
X128413570Y-76845207D01*
X128416257Y-76845207D01*
X128416257Y-77554000D01*
X128554254Y-77554000D01*
X128554254Y-76569212D01*
G37*
G36*
X127956348Y-77554000D02*
G01*
X127719921Y-77554000D01*
X127685302Y-77552491D01*
X127635767Y-77543801D01*
X127588652Y-77524792D01*
X127546997Y-77492206D01*
X127521779Y-77457600D01*
X127502021Y-77410092D01*
X127492114Y-77360240D01*
X127489355Y-77310734D01*
X127489355Y-76812478D01*
X127489623Y-76805639D01*
X127643961Y-76805639D01*
X127643961Y-77317572D01*
X127645584Y-77343908D01*
X127664478Y-77390845D01*
X127674200Y-77399601D01*
X127722852Y-77413316D01*
X127801498Y-77413316D01*
X127801498Y-76709896D01*
X127722852Y-76709896D01*
X127709190Y-76710686D01*
X127664478Y-76732367D01*
X127651194Y-76755300D01*
X127643961Y-76805639D01*
X127489623Y-76805639D01*
X127490763Y-76776562D01*
X127498868Y-76724951D01*
X127516600Y-76675500D01*
X127546997Y-76631250D01*
X127570639Y-76610167D01*
X127613701Y-76586721D01*
X127665882Y-76573090D01*
X127719921Y-76569212D01*
X127956348Y-76569212D01*
X127956348Y-77554000D01*
G37*
G36*
X129142147Y-74029212D02*
G01*
X128986076Y-74029212D01*
X128884715Y-74796379D01*
X128881784Y-74796379D01*
X128780667Y-74029212D01*
X128638518Y-74029212D01*
X128787506Y-75014000D01*
X128992914Y-75014000D01*
X129142147Y-74029212D01*
G37*
G36*
X128351777Y-75029631D02*
G01*
X128404045Y-75025662D01*
X128454964Y-75011709D01*
X128497536Y-74987709D01*
X128521281Y-74966128D01*
X128552065Y-74921334D01*
X128570021Y-74872291D01*
X128578230Y-74821756D01*
X128579655Y-74786854D01*
X128579655Y-74256358D01*
X128576007Y-74201739D01*
X128565062Y-74153654D01*
X128544027Y-74107368D01*
X128521281Y-74077084D01*
X128479646Y-74043596D01*
X128433364Y-74024061D01*
X128385217Y-74015131D01*
X128351777Y-74013581D01*
X128299509Y-74017550D01*
X128248590Y-74031503D01*
X128206017Y-74055503D01*
X128182272Y-74077084D01*
X128151489Y-74121878D01*
X128133532Y-74170920D01*
X128125323Y-74221456D01*
X128123898Y-74256358D01*
X128123898Y-74360894D01*
X128270200Y-74360894D01*
X128270200Y-74246344D01*
X128277761Y-74197787D01*
X128313751Y-74160020D01*
X128347625Y-74154265D01*
X128394806Y-74167179D01*
X128421345Y-74210317D01*
X128425050Y-74246100D01*
X128425050Y-74798577D01*
X128415901Y-74850028D01*
X128377793Y-74884623D01*
X128347625Y-74888947D01*
X128300444Y-74876239D01*
X128273905Y-74833790D01*
X128270200Y-74798577D01*
X128270200Y-74647635D01*
X128123898Y-74647635D01*
X128123898Y-74787098D01*
X128127547Y-74841717D01*
X128138492Y-74889802D01*
X128159527Y-74936088D01*
X128182272Y-74966372D01*
X128223908Y-74999731D01*
X128270190Y-75019191D01*
X128318337Y-75028087D01*
X128351777Y-75029631D01*
G37*
G36*
X127813466Y-75029631D02*
G01*
X127865734Y-75025662D01*
X127916653Y-75011709D01*
X127959225Y-74987709D01*
X127982970Y-74966128D01*
X128013753Y-74921334D01*
X128031710Y-74872291D01*
X128039919Y-74821756D01*
X128041344Y-74786854D01*
X128041344Y-74256358D01*
X128037696Y-74201739D01*
X128026751Y-74153654D01*
X128005716Y-74107368D01*
X127982970Y-74077084D01*
X127941334Y-74043596D01*
X127895052Y-74024061D01*
X127846906Y-74015131D01*
X127813466Y-74013581D01*
X127761198Y-74017550D01*
X127710279Y-74031503D01*
X127667706Y-74055503D01*
X127643961Y-74077084D01*
X127613178Y-74121878D01*
X127595221Y-74170920D01*
X127587012Y-74221456D01*
X127585587Y-74256358D01*
X127585587Y-74360894D01*
X127731889Y-74360894D01*
X127731889Y-74246344D01*
X127739450Y-74197787D01*
X127775440Y-74160020D01*
X127809314Y-74154265D01*
X127856494Y-74167179D01*
X127883034Y-74210317D01*
X127886739Y-74246100D01*
X127886739Y-74798577D01*
X127877590Y-74850028D01*
X127839482Y-74884623D01*
X127809314Y-74888947D01*
X127762133Y-74876239D01*
X127735593Y-74833790D01*
X127731889Y-74798577D01*
X127731889Y-74647635D01*
X127585587Y-74647635D01*
X127585587Y-74787098D01*
X127589235Y-74841717D01*
X127600181Y-74889802D01*
X127621216Y-74936088D01*
X127643961Y-74966372D01*
X127685597Y-74999731D01*
X127731879Y-75019191D01*
X127780025Y-75028087D01*
X127813466Y-75029631D01*
G37*
G36*
X181621716Y-62753457D02*
G01*
X180383893Y-62753457D01*
X180383893Y-63316193D01*
X181621716Y-63316193D01*
X181621716Y-62753457D01*
G37*
G36*
X178449490Y-63253667D02*
G01*
X179202734Y-63253667D01*
X179202734Y-62815984D01*
X178449490Y-62815984D01*
X178449490Y-62003143D01*
X178009852Y-62003143D01*
X178009852Y-62815984D01*
X177256607Y-62815984D01*
X177256607Y-63253667D01*
X178009852Y-63253667D01*
X178009852Y-64003981D01*
X178449490Y-64003981D01*
X178449490Y-63253667D01*
G37*
G36*
X114393294Y-118848425D02*
G01*
X114081152Y-118848425D01*
X113878430Y-120382759D01*
X113872568Y-120382759D01*
X113670335Y-118848425D01*
X113386036Y-118848425D01*
X113684013Y-120818000D01*
X114094829Y-120818000D01*
X114393294Y-118848425D01*
G37*
G36*
X112809623Y-119317371D02*
G01*
X113133001Y-119317371D01*
X113133001Y-119098530D01*
X113034069Y-119094821D01*
X112935990Y-119080075D01*
X112920510Y-119076060D01*
X112829248Y-119033304D01*
X112792526Y-119000833D01*
X112737076Y-118916569D01*
X112708018Y-118848425D01*
X112499923Y-118848425D01*
X112499923Y-120818000D01*
X112809623Y-120818000D01*
X112809623Y-119317371D01*
G37*
G36*
X112123301Y-120536632D02*
G01*
X111824836Y-120536632D01*
X111824836Y-120818000D01*
X112123301Y-120818000D01*
X112123301Y-120536632D01*
G37*
G36*
X111164404Y-119317371D02*
G01*
X111487781Y-119317371D01*
X111487781Y-119098530D01*
X111388849Y-119094821D01*
X111290770Y-119080075D01*
X111275290Y-119076060D01*
X111184028Y-119033304D01*
X111147307Y-119000833D01*
X111091856Y-118916569D01*
X111062799Y-118848425D01*
X110854704Y-118848425D01*
X110854704Y-120818000D01*
X111164404Y-120818000D01*
X111164404Y-119317371D01*
G37*
G36*
X128900102Y-80109631D02*
G01*
X128952965Y-80105616D01*
X129004226Y-80091502D01*
X129046792Y-80067225D01*
X129070339Y-80045395D01*
X129098203Y-80004858D01*
X129116948Y-79955510D01*
X129125954Y-79904250D01*
X129127981Y-79861236D01*
X129127981Y-79804816D01*
X128981679Y-79804816D01*
X128981679Y-79872715D01*
X128973856Y-79923463D01*
X128940293Y-79961335D01*
X128901568Y-79968947D01*
X128853299Y-79955895D01*
X128841972Y-79945744D01*
X128823459Y-79899882D01*
X128821456Y-79870029D01*
X128826832Y-79818598D01*
X128844524Y-79769822D01*
X128849544Y-79760852D01*
X128880266Y-79719209D01*
X128914651Y-79682897D01*
X128953591Y-79647035D01*
X128992721Y-79610739D01*
X129030685Y-79571176D01*
X129064783Y-79529112D01*
X129087436Y-79493895D01*
X129107400Y-79449306D01*
X129119970Y-79401331D01*
X129125146Y-79349968D01*
X129125294Y-79339289D01*
X129121600Y-79283983D01*
X129110517Y-79235303D01*
X129089218Y-79188456D01*
X129066187Y-79157817D01*
X129024022Y-79123942D01*
X128977141Y-79104182D01*
X128928365Y-79095149D01*
X128894484Y-79093581D01*
X128842308Y-79097596D01*
X128791711Y-79111710D01*
X128745553Y-79139311D01*
X128726445Y-79157817D01*
X128698936Y-79198354D01*
X128680429Y-79247702D01*
X128671538Y-79298962D01*
X128669537Y-79341976D01*
X128669537Y-79383009D01*
X128815838Y-79383009D01*
X128815838Y-79331962D01*
X128822098Y-79283344D01*
X128835622Y-79257712D01*
X128879466Y-79235089D01*
X128893019Y-79234265D01*
X128940200Y-79247557D01*
X128966739Y-79291956D01*
X128970444Y-79328787D01*
X128964111Y-79377605D01*
X128945113Y-79423312D01*
X128941623Y-79429170D01*
X128910427Y-79470181D01*
X128875842Y-79506226D01*
X128836843Y-79542011D01*
X128797308Y-79578353D01*
X128759195Y-79618085D01*
X128725331Y-79660484D01*
X128703242Y-79696128D01*
X128683922Y-79741666D01*
X128671758Y-79791879D01*
X128666928Y-79841067D01*
X128666606Y-79858305D01*
X128669469Y-79908713D01*
X128679754Y-79959710D01*
X128700266Y-80008652D01*
X128726445Y-80044662D01*
X128764375Y-80076068D01*
X128810844Y-80097196D01*
X128859318Y-80107347D01*
X128900102Y-80109631D01*
G37*
G36*
X128362524Y-80109631D02*
G01*
X128414792Y-80105662D01*
X128465710Y-80091709D01*
X128508283Y-80067709D01*
X128532028Y-80046128D01*
X128562811Y-80001334D01*
X128580768Y-79952291D01*
X128588977Y-79901756D01*
X128590402Y-79866854D01*
X128590402Y-79336358D01*
X128586754Y-79281739D01*
X128575809Y-79233654D01*
X128554773Y-79187368D01*
X128532028Y-79157084D01*
X128490392Y-79123596D01*
X128444110Y-79104061D01*
X128395964Y-79095131D01*
X128362524Y-79093581D01*
X128310256Y-79097550D01*
X128259337Y-79111503D01*
X128216764Y-79135503D01*
X128193019Y-79157084D01*
X128162236Y-79201878D01*
X128144279Y-79250920D01*
X128136070Y-79301456D01*
X128134645Y-79336358D01*
X128134645Y-79440894D01*
X128280946Y-79440894D01*
X128280946Y-79326344D01*
X128288507Y-79277787D01*
X128324498Y-79240020D01*
X128358371Y-79234265D01*
X128405552Y-79247179D01*
X128432092Y-79290317D01*
X128435796Y-79326100D01*
X128435796Y-79878577D01*
X128426648Y-79930028D01*
X128388540Y-79964623D01*
X128358371Y-79968947D01*
X128311191Y-79956239D01*
X128284651Y-79913790D01*
X128280946Y-79878577D01*
X128280946Y-79727635D01*
X128134645Y-79727635D01*
X128134645Y-79867098D01*
X128138293Y-79921717D01*
X128149239Y-79969802D01*
X128170274Y-80016088D01*
X128193019Y-80046372D01*
X128234655Y-80079731D01*
X128280937Y-80099191D01*
X128329083Y-80108087D01*
X128362524Y-80109631D01*
G37*
G36*
X128045252Y-79109212D02*
G01*
X127890402Y-79109212D01*
X127890402Y-79532241D01*
X127693542Y-79109212D01*
X127538692Y-79109212D01*
X127723096Y-79479484D01*
X127536006Y-80094000D01*
X127697695Y-80094000D01*
X127828609Y-79661201D01*
X127890402Y-79784788D01*
X127890402Y-80094000D01*
X128045252Y-80094000D01*
X128045252Y-79109212D01*
G37*
G36*
X112083358Y-75014000D02*
G01*
X111846931Y-75014000D01*
X111812313Y-75012491D01*
X111762777Y-75003801D01*
X111715662Y-74984792D01*
X111674007Y-74952206D01*
X111648789Y-74917600D01*
X111629031Y-74870092D01*
X111619124Y-74820240D01*
X111616366Y-74770734D01*
X111616366Y-74272478D01*
X111616634Y-74265639D01*
X111770972Y-74265639D01*
X111770972Y-74777572D01*
X111772594Y-74803908D01*
X111791488Y-74850845D01*
X111801210Y-74859601D01*
X111849862Y-74873316D01*
X111928508Y-74873316D01*
X111928508Y-74169896D01*
X111849862Y-74169896D01*
X111836201Y-74170686D01*
X111791488Y-74192367D01*
X111778204Y-74215300D01*
X111770972Y-74265639D01*
X111616634Y-74265639D01*
X111617773Y-74236562D01*
X111625879Y-74184951D01*
X111643610Y-74135500D01*
X111674007Y-74091250D01*
X111697649Y-74070167D01*
X111740711Y-74046721D01*
X111792892Y-74033090D01*
X111846931Y-74029212D01*
X112083358Y-74029212D01*
X112083358Y-75014000D01*
G37*
G36*
X111515738Y-74029212D02*
G01*
X111360888Y-74029212D01*
X111360888Y-75014000D01*
X111515738Y-75014000D01*
X111515738Y-74029212D01*
G37*
G36*
X111247071Y-74029212D02*
G01*
X111052898Y-74029212D01*
X110902444Y-74624188D01*
X110899513Y-74624188D01*
X110899513Y-74029212D01*
X110761760Y-74029212D01*
X110761760Y-75014000D01*
X110920762Y-75014000D01*
X111106387Y-74305207D01*
X111109073Y-74305207D01*
X111109073Y-75014000D01*
X111247071Y-75014000D01*
X111247071Y-74029212D01*
G37*
G36*
X111863784Y-72489631D02*
G01*
X111916739Y-72485616D01*
X111968321Y-72471502D01*
X112011441Y-72447225D01*
X112035487Y-72425395D01*
X112064059Y-72384858D01*
X112083280Y-72335510D01*
X112092515Y-72284250D01*
X112094593Y-72241236D01*
X112094593Y-71721976D01*
X112091765Y-71672174D01*
X112081606Y-71621784D01*
X112061346Y-71573415D01*
X112035487Y-71537817D01*
X111993321Y-71503942D01*
X111946440Y-71484182D01*
X111897664Y-71475149D01*
X111863784Y-71473581D01*
X111810844Y-71477672D01*
X111759316Y-71492055D01*
X111716288Y-71516793D01*
X111692325Y-71539038D01*
X111663753Y-71580202D01*
X111644532Y-71630331D01*
X111635297Y-71682416D01*
X111633219Y-71726128D01*
X111633219Y-71812346D01*
X111779520Y-71812346D01*
X111779520Y-71714648D01*
X111785857Y-71666123D01*
X111814021Y-71626126D01*
X111859632Y-71614265D01*
X111908450Y-71627969D01*
X111935910Y-71673745D01*
X111939743Y-71711718D01*
X111939743Y-72252960D01*
X111931920Y-72303578D01*
X111898358Y-72341354D01*
X111859632Y-72348947D01*
X111810814Y-72335827D01*
X111783354Y-72292001D01*
X111779520Y-72255646D01*
X111779520Y-72067579D01*
X111856701Y-72067579D01*
X111856701Y-71926896D01*
X111633219Y-71926896D01*
X111633219Y-72245144D01*
X111636047Y-72294138D01*
X111646206Y-72343719D01*
X111666466Y-72391323D01*
X111692325Y-72426372D01*
X111734362Y-72459731D01*
X111781168Y-72479191D01*
X111829909Y-72488087D01*
X111863784Y-72489631D01*
G37*
G36*
X111536254Y-71489212D02*
G01*
X111342081Y-71489212D01*
X111191628Y-72084188D01*
X111188697Y-72084188D01*
X111188697Y-71489212D01*
X111050944Y-71489212D01*
X111050944Y-72474000D01*
X111209946Y-72474000D01*
X111395570Y-71765207D01*
X111398257Y-71765207D01*
X111398257Y-72474000D01*
X111536254Y-72474000D01*
X111536254Y-71489212D01*
G37*
G36*
X110938348Y-72474000D02*
G01*
X110701921Y-72474000D01*
X110667302Y-72472491D01*
X110617767Y-72463801D01*
X110570652Y-72444792D01*
X110528997Y-72412206D01*
X110503779Y-72377600D01*
X110484021Y-72330092D01*
X110474114Y-72280240D01*
X110471355Y-72230734D01*
X110471355Y-71732478D01*
X110471623Y-71725639D01*
X110625961Y-71725639D01*
X110625961Y-72237572D01*
X110627584Y-72263908D01*
X110646478Y-72310845D01*
X110656200Y-72319601D01*
X110704852Y-72333316D01*
X110783498Y-72333316D01*
X110783498Y-71629896D01*
X110704852Y-71629896D01*
X110691190Y-71630686D01*
X110646478Y-71652367D01*
X110633194Y-71675300D01*
X110625961Y-71725639D01*
X110471623Y-71725639D01*
X110472763Y-71696562D01*
X110480868Y-71644951D01*
X110498600Y-71595500D01*
X110528997Y-71551250D01*
X110552639Y-71530167D01*
X110595701Y-71506721D01*
X110647882Y-71493090D01*
X110701921Y-71489212D01*
X110938348Y-71489212D01*
X110938348Y-72474000D01*
G37*
G36*
X111865249Y-77569631D02*
G01*
X111917517Y-77565662D01*
X111968436Y-77551709D01*
X112011009Y-77527709D01*
X112034754Y-77506128D01*
X112065537Y-77461334D01*
X112083494Y-77412291D01*
X112091703Y-77361756D01*
X112093128Y-77326854D01*
X112093128Y-76796358D01*
X112089480Y-76741739D01*
X112078534Y-76693654D01*
X112057499Y-76647368D01*
X112034754Y-76617084D01*
X111993118Y-76583596D01*
X111946836Y-76564061D01*
X111898690Y-76555131D01*
X111865249Y-76553581D01*
X111812981Y-76557550D01*
X111762062Y-76571503D01*
X111719490Y-76595503D01*
X111695745Y-76617084D01*
X111664962Y-76661878D01*
X111647005Y-76710920D01*
X111638796Y-76761456D01*
X111637371Y-76796358D01*
X111637371Y-76900894D01*
X111783672Y-76900894D01*
X111783672Y-76786344D01*
X111791233Y-76737787D01*
X111827224Y-76700020D01*
X111861097Y-76694265D01*
X111908278Y-76707179D01*
X111934817Y-76750317D01*
X111938522Y-76786100D01*
X111938522Y-77338577D01*
X111929373Y-77390028D01*
X111891266Y-77424623D01*
X111861097Y-77428947D01*
X111813916Y-77416239D01*
X111787377Y-77373790D01*
X111783672Y-77338577D01*
X111783672Y-77187635D01*
X111637371Y-77187635D01*
X111637371Y-77327098D01*
X111641019Y-77381717D01*
X111651964Y-77429802D01*
X111672999Y-77476088D01*
X111695745Y-77506372D01*
X111737381Y-77539731D01*
X111783663Y-77559191D01*
X111831809Y-77568087D01*
X111865249Y-77569631D01*
G37*
G36*
X111547978Y-76569212D02*
G01*
X111393128Y-76569212D01*
X111393128Y-77413316D01*
X111138627Y-77413316D01*
X111138627Y-77554000D01*
X111547978Y-77554000D01*
X111547978Y-76569212D01*
G37*
G36*
X111066331Y-76569212D02*
G01*
X110911481Y-76569212D01*
X110911481Y-76992241D01*
X110714621Y-76569212D01*
X110559771Y-76569212D01*
X110744175Y-76939484D01*
X110557085Y-77554000D01*
X110718773Y-77554000D01*
X110849688Y-77121201D01*
X110911481Y-77244788D01*
X110911481Y-77554000D01*
X111066331Y-77554000D01*
X111066331Y-76569212D01*
G37*
G36*
X116909358Y-77554000D02*
G01*
X116754508Y-77554000D01*
X116754508Y-77131948D01*
X116701019Y-77131948D01*
X116670689Y-77134572D01*
X116625792Y-77158815D01*
X116608215Y-77201671D01*
X116604055Y-77252848D01*
X116604055Y-77433099D01*
X116603887Y-77458363D01*
X116601368Y-77509059D01*
X116589889Y-77554000D01*
X116432352Y-77554000D01*
X116433724Y-77550852D01*
X116446518Y-77502953D01*
X116447935Y-77485045D01*
X116449205Y-77434565D01*
X116449205Y-77261885D01*
X116450655Y-77220593D01*
X116457385Y-77170944D01*
X116472408Y-77122911D01*
X116475438Y-77116545D01*
X116506436Y-77077562D01*
X116552031Y-77054034D01*
X116552031Y-77051348D01*
X116533917Y-77042706D01*
X116494323Y-77009943D01*
X116467399Y-76963045D01*
X116454234Y-76910413D01*
X116450670Y-76856686D01*
X116450670Y-76811257D01*
X116605520Y-76811257D01*
X116605520Y-76887217D01*
X116608262Y-76922028D01*
X116628723Y-76967328D01*
X116649388Y-76981914D01*
X116698332Y-76991264D01*
X116754508Y-76991264D01*
X116754508Y-76709896D01*
X116684166Y-76709896D01*
X116669643Y-76710738D01*
X116624571Y-76733832D01*
X116611548Y-76760433D01*
X116605520Y-76811257D01*
X116450670Y-76811257D01*
X116450670Y-76796114D01*
X116452012Y-76761473D01*
X116459740Y-76712124D01*
X116476645Y-76665548D01*
X116505625Y-76624900D01*
X116537040Y-76600536D01*
X116582090Y-76581448D01*
X116630763Y-76571877D01*
X116680014Y-76569212D01*
X116909358Y-76569212D01*
X116909358Y-77554000D01*
G37*
G36*
X116144390Y-77569631D02*
G01*
X116197253Y-77565616D01*
X116248513Y-77551502D01*
X116291079Y-77527225D01*
X116314627Y-77505395D01*
X116342491Y-77464858D01*
X116361235Y-77415510D01*
X116370242Y-77364250D01*
X116372268Y-77321236D01*
X116372268Y-77264816D01*
X116225967Y-77264816D01*
X116225967Y-77332715D01*
X116218143Y-77383463D01*
X116184581Y-77421335D01*
X116145855Y-77428947D01*
X116097587Y-77415895D01*
X116086260Y-77405744D01*
X116067747Y-77359882D01*
X116065743Y-77330029D01*
X116071120Y-77278598D01*
X116088812Y-77229822D01*
X116093831Y-77220852D01*
X116124553Y-77179209D01*
X116158938Y-77142897D01*
X116197879Y-77107035D01*
X116237008Y-77070739D01*
X116274973Y-77031176D01*
X116309070Y-76989112D01*
X116331724Y-76953895D01*
X116351688Y-76909306D01*
X116364258Y-76861331D01*
X116369434Y-76809968D01*
X116369581Y-76799289D01*
X116365887Y-76743983D01*
X116354805Y-76695303D01*
X116333506Y-76648456D01*
X116310475Y-76617817D01*
X116268309Y-76583942D01*
X116221428Y-76564182D01*
X116172652Y-76555149D01*
X116138772Y-76553581D01*
X116086596Y-76557596D01*
X116035999Y-76571710D01*
X115989841Y-76599311D01*
X115970733Y-76617817D01*
X115943223Y-76658354D01*
X115924717Y-76707702D01*
X115915825Y-76758962D01*
X115913824Y-76801976D01*
X115913824Y-76843009D01*
X116060126Y-76843009D01*
X116060126Y-76791962D01*
X116066385Y-76743344D01*
X116079909Y-76717712D01*
X116123754Y-76695089D01*
X116137307Y-76694265D01*
X116184487Y-76707557D01*
X116211027Y-76751956D01*
X116214732Y-76788787D01*
X116208399Y-76837605D01*
X116189401Y-76883312D01*
X116185911Y-76889170D01*
X116154714Y-76930181D01*
X116120129Y-76966226D01*
X116081131Y-77002011D01*
X116041596Y-77038353D01*
X116003482Y-77078085D01*
X115969619Y-77120484D01*
X115947530Y-77156128D01*
X115928210Y-77201666D01*
X115916045Y-77251879D01*
X115911215Y-77301067D01*
X115910893Y-77318305D01*
X115913757Y-77368713D01*
X115924042Y-77419710D01*
X115944553Y-77468652D01*
X115970733Y-77504662D01*
X116008662Y-77536068D01*
X116055131Y-77557196D01*
X116103606Y-77567347D01*
X116144390Y-77569631D01*
G37*
G36*
X115703775Y-76709896D02*
G01*
X115865709Y-76709896D01*
X115865709Y-76569212D01*
X115387237Y-76569212D01*
X115387237Y-76709896D01*
X115549170Y-76709896D01*
X115549170Y-77554000D01*
X115703775Y-77554000D01*
X115703775Y-76709896D01*
G37*
G36*
X120846358Y-74029212D02*
G01*
X120625563Y-74029212D01*
X120526889Y-74738249D01*
X120524202Y-74738249D01*
X120425772Y-74029212D01*
X120204732Y-74029212D01*
X120204732Y-75014000D01*
X120351034Y-75014000D01*
X120351034Y-74278829D01*
X120353965Y-74278829D01*
X120466561Y-75014000D01*
X120596009Y-75014000D01*
X120708361Y-74278829D01*
X120711292Y-74278829D01*
X120711292Y-75014000D01*
X120846358Y-75014000D01*
X120846358Y-74029212D01*
G37*
G36*
X119910279Y-74015865D02*
G01*
X119958952Y-74026016D01*
X120005717Y-74047144D01*
X120044020Y-74078549D01*
X120070414Y-74114377D01*
X120091093Y-74162675D01*
X120101462Y-74212710D01*
X120104348Y-74261976D01*
X120104348Y-74781236D01*
X120102228Y-74823777D01*
X120092801Y-74874648D01*
X120073183Y-74923887D01*
X120044020Y-74964662D01*
X120019425Y-74986742D01*
X119975481Y-75011295D01*
X119923074Y-75025571D01*
X119869387Y-75029631D01*
X119828503Y-75027347D01*
X119779868Y-75017196D01*
X119733182Y-74996068D01*
X119694997Y-74964662D01*
X119668497Y-74928835D01*
X119647735Y-74880537D01*
X119637324Y-74830502D01*
X119634425Y-74781236D01*
X119634425Y-74261976D01*
X119634939Y-74251718D01*
X119789275Y-74251718D01*
X119789275Y-74791494D01*
X119793109Y-74829467D01*
X119820569Y-74875243D01*
X119869387Y-74888947D01*
X119908113Y-74881238D01*
X119941675Y-74842885D01*
X119949498Y-74791494D01*
X119949498Y-74251718D01*
X119945665Y-74213745D01*
X119918205Y-74167969D01*
X119869387Y-74154265D01*
X119830661Y-74161973D01*
X119797099Y-74200326D01*
X119789275Y-74251718D01*
X119634939Y-74251718D01*
X119636555Y-74219435D01*
X119646019Y-74168563D01*
X119665717Y-74119325D01*
X119694997Y-74078549D01*
X119719509Y-74056470D01*
X119763362Y-74031917D01*
X119815714Y-74017641D01*
X119869387Y-74013581D01*
X119910279Y-74015865D01*
G37*
G36*
X119332053Y-75029631D02*
G01*
X119384916Y-75025616D01*
X119436176Y-75011502D01*
X119478742Y-74987225D01*
X119502290Y-74965395D01*
X119530154Y-74924858D01*
X119548898Y-74875510D01*
X119557905Y-74824250D01*
X119559931Y-74781236D01*
X119559931Y-74724816D01*
X119413630Y-74724816D01*
X119413630Y-74792715D01*
X119405806Y-74843463D01*
X119372244Y-74881335D01*
X119333518Y-74888947D01*
X119285250Y-74875895D01*
X119273923Y-74865744D01*
X119255410Y-74819882D01*
X119253406Y-74790029D01*
X119258783Y-74738598D01*
X119276475Y-74689822D01*
X119281494Y-74680852D01*
X119312216Y-74639209D01*
X119346601Y-74602897D01*
X119385542Y-74567035D01*
X119424671Y-74530739D01*
X119462636Y-74491176D01*
X119496733Y-74449112D01*
X119519387Y-74413895D01*
X119539351Y-74369306D01*
X119551921Y-74321331D01*
X119557097Y-74269968D01*
X119557244Y-74259289D01*
X119553550Y-74203983D01*
X119542468Y-74155303D01*
X119521169Y-74108456D01*
X119498138Y-74077817D01*
X119455972Y-74043942D01*
X119409091Y-74024182D01*
X119360315Y-74015149D01*
X119326435Y-74013581D01*
X119274259Y-74017596D01*
X119223662Y-74031710D01*
X119177504Y-74059311D01*
X119158396Y-74077817D01*
X119130886Y-74118354D01*
X119112380Y-74167702D01*
X119103488Y-74218962D01*
X119101487Y-74261976D01*
X119101487Y-74303009D01*
X119247789Y-74303009D01*
X119247789Y-74251962D01*
X119254048Y-74203344D01*
X119267572Y-74177712D01*
X119311417Y-74155089D01*
X119324969Y-74154265D01*
X119372150Y-74167557D01*
X119398690Y-74211956D01*
X119402394Y-74248787D01*
X119396062Y-74297605D01*
X119377064Y-74343312D01*
X119373574Y-74349170D01*
X119342377Y-74390181D01*
X119307792Y-74426226D01*
X119268794Y-74462011D01*
X119229258Y-74498353D01*
X119191145Y-74538085D01*
X119157282Y-74580484D01*
X119135193Y-74616128D01*
X119115873Y-74661666D01*
X119103708Y-74711879D01*
X119098878Y-74761067D01*
X119098556Y-74778305D01*
X119101420Y-74828713D01*
X119111705Y-74879710D01*
X119132216Y-74928652D01*
X119158396Y-74964662D01*
X119196325Y-74996068D01*
X119242794Y-75017196D01*
X119291269Y-75027347D01*
X119332053Y-75029631D01*
G37*
G36*
X119012583Y-74029212D02*
G01*
X118857733Y-74029212D01*
X118857733Y-75014000D01*
X119012583Y-75014000D01*
X119012583Y-74029212D01*
G37*
G36*
X112083358Y-85174000D02*
G01*
X111928508Y-85174000D01*
X111928508Y-84751948D01*
X111875019Y-84751948D01*
X111844689Y-84754572D01*
X111799792Y-84778815D01*
X111782215Y-84821671D01*
X111778055Y-84872848D01*
X111778055Y-85053099D01*
X111777887Y-85078363D01*
X111775368Y-85129059D01*
X111763889Y-85174000D01*
X111606352Y-85174000D01*
X111607724Y-85170852D01*
X111620518Y-85122953D01*
X111621935Y-85105045D01*
X111623205Y-85054565D01*
X111623205Y-84881885D01*
X111624655Y-84840593D01*
X111631385Y-84790944D01*
X111646408Y-84742911D01*
X111649438Y-84736545D01*
X111680436Y-84697562D01*
X111726031Y-84674034D01*
X111726031Y-84671348D01*
X111707917Y-84662706D01*
X111668323Y-84629943D01*
X111641399Y-84583045D01*
X111628234Y-84530413D01*
X111624670Y-84476686D01*
X111624670Y-84431257D01*
X111779520Y-84431257D01*
X111779520Y-84507217D01*
X111782262Y-84542028D01*
X111802723Y-84587328D01*
X111823388Y-84601914D01*
X111872332Y-84611264D01*
X111928508Y-84611264D01*
X111928508Y-84329896D01*
X111858166Y-84329896D01*
X111843643Y-84330738D01*
X111798571Y-84353832D01*
X111785548Y-84380433D01*
X111779520Y-84431257D01*
X111624670Y-84431257D01*
X111624670Y-84416114D01*
X111626012Y-84381473D01*
X111633740Y-84332124D01*
X111650645Y-84285548D01*
X111679625Y-84244900D01*
X111711040Y-84220536D01*
X111756090Y-84201448D01*
X111804763Y-84191877D01*
X111854014Y-84189212D01*
X112083358Y-84189212D01*
X112083358Y-85174000D01*
G37*
G36*
X111318390Y-85189631D02*
G01*
X111371253Y-85185616D01*
X111422513Y-85171502D01*
X111465079Y-85147225D01*
X111488627Y-85125395D01*
X111516491Y-85084858D01*
X111535235Y-85035510D01*
X111544242Y-84984250D01*
X111546268Y-84941236D01*
X111546268Y-84884816D01*
X111399967Y-84884816D01*
X111399967Y-84952715D01*
X111392143Y-85003463D01*
X111358581Y-85041335D01*
X111319855Y-85048947D01*
X111271587Y-85035895D01*
X111260260Y-85025744D01*
X111241747Y-84979882D01*
X111239743Y-84950029D01*
X111245120Y-84898598D01*
X111262812Y-84849822D01*
X111267831Y-84840852D01*
X111298553Y-84799209D01*
X111332938Y-84762897D01*
X111371879Y-84727035D01*
X111411008Y-84690739D01*
X111448973Y-84651176D01*
X111483070Y-84609112D01*
X111505724Y-84573895D01*
X111525688Y-84529306D01*
X111538258Y-84481331D01*
X111543434Y-84429968D01*
X111543581Y-84419289D01*
X111539887Y-84363983D01*
X111528805Y-84315303D01*
X111507506Y-84268456D01*
X111484475Y-84237817D01*
X111442309Y-84203942D01*
X111395428Y-84184182D01*
X111346652Y-84175149D01*
X111312772Y-84173581D01*
X111260596Y-84177596D01*
X111209999Y-84191710D01*
X111163841Y-84219311D01*
X111144733Y-84237817D01*
X111117223Y-84278354D01*
X111098717Y-84327702D01*
X111089825Y-84378962D01*
X111087824Y-84421976D01*
X111087824Y-84463009D01*
X111234126Y-84463009D01*
X111234126Y-84411962D01*
X111240385Y-84363344D01*
X111253909Y-84337712D01*
X111297754Y-84315089D01*
X111311307Y-84314265D01*
X111358487Y-84327557D01*
X111385027Y-84371956D01*
X111388732Y-84408787D01*
X111382399Y-84457605D01*
X111363401Y-84503312D01*
X111359911Y-84509170D01*
X111328714Y-84550181D01*
X111294129Y-84586226D01*
X111255131Y-84622011D01*
X111215596Y-84658353D01*
X111177482Y-84698085D01*
X111143619Y-84740484D01*
X111121530Y-84776128D01*
X111102210Y-84821666D01*
X111090045Y-84871879D01*
X111085215Y-84921067D01*
X111084893Y-84938305D01*
X111087757Y-84988713D01*
X111098042Y-85039710D01*
X111118553Y-85088652D01*
X111144733Y-85124662D01*
X111182662Y-85156068D01*
X111229131Y-85177196D01*
X111277606Y-85187347D01*
X111318390Y-85189631D01*
G37*
G36*
X110877775Y-84329896D02*
G01*
X111039709Y-84329896D01*
X111039709Y-84189212D01*
X110561237Y-84189212D01*
X110561237Y-84329896D01*
X110723170Y-84329896D01*
X110723170Y-85174000D01*
X110877775Y-85174000D01*
X110877775Y-84329896D01*
G37*
G36*
X120147617Y-118586685D02*
G01*
X120309306Y-118586685D01*
X120309306Y-118477265D01*
X120259839Y-118475410D01*
X120210800Y-118468037D01*
X120203060Y-118466030D01*
X120157429Y-118444652D01*
X120139068Y-118428416D01*
X120111343Y-118386284D01*
X120096814Y-118352212D01*
X119992767Y-118352212D01*
X119992767Y-119337000D01*
X120147617Y-119337000D01*
X120147617Y-118586685D01*
G37*
G36*
X112124147Y-68949212D02*
G01*
X111968076Y-68949212D01*
X111866715Y-69716379D01*
X111863784Y-69716379D01*
X111762667Y-68949212D01*
X111620518Y-68949212D01*
X111769506Y-69934000D01*
X111974914Y-69934000D01*
X112124147Y-68949212D01*
G37*
G36*
X111333777Y-69949631D02*
G01*
X111386045Y-69945662D01*
X111436964Y-69931709D01*
X111479536Y-69907709D01*
X111503281Y-69886128D01*
X111534065Y-69841334D01*
X111552021Y-69792291D01*
X111560230Y-69741756D01*
X111561655Y-69706854D01*
X111561655Y-69176358D01*
X111558007Y-69121739D01*
X111547062Y-69073654D01*
X111526027Y-69027368D01*
X111503281Y-68997084D01*
X111461646Y-68963596D01*
X111415364Y-68944061D01*
X111367217Y-68935131D01*
X111333777Y-68933581D01*
X111281509Y-68937550D01*
X111230590Y-68951503D01*
X111188017Y-68975503D01*
X111164272Y-68997084D01*
X111133489Y-69041878D01*
X111115532Y-69090920D01*
X111107323Y-69141456D01*
X111105898Y-69176358D01*
X111105898Y-69280894D01*
X111252200Y-69280894D01*
X111252200Y-69166344D01*
X111259761Y-69117787D01*
X111295751Y-69080020D01*
X111329625Y-69074265D01*
X111376806Y-69087179D01*
X111403345Y-69130317D01*
X111407050Y-69166100D01*
X111407050Y-69718577D01*
X111397901Y-69770028D01*
X111359793Y-69804623D01*
X111329625Y-69808947D01*
X111282444Y-69796239D01*
X111255905Y-69753790D01*
X111252200Y-69718577D01*
X111252200Y-69567635D01*
X111105898Y-69567635D01*
X111105898Y-69707098D01*
X111109547Y-69761717D01*
X111120492Y-69809802D01*
X111141527Y-69856088D01*
X111164272Y-69886372D01*
X111205908Y-69919731D01*
X111252190Y-69939191D01*
X111300337Y-69948087D01*
X111333777Y-69949631D01*
G37*
G36*
X110795466Y-69949631D02*
G01*
X110847734Y-69945662D01*
X110898653Y-69931709D01*
X110941225Y-69907709D01*
X110964970Y-69886128D01*
X110995753Y-69841334D01*
X111013710Y-69792291D01*
X111021919Y-69741756D01*
X111023344Y-69706854D01*
X111023344Y-69176358D01*
X111019696Y-69121739D01*
X111008751Y-69073654D01*
X110987716Y-69027368D01*
X110964970Y-68997084D01*
X110923334Y-68963596D01*
X110877052Y-68944061D01*
X110828906Y-68935131D01*
X110795466Y-68933581D01*
X110743198Y-68937550D01*
X110692279Y-68951503D01*
X110649706Y-68975503D01*
X110625961Y-68997084D01*
X110595178Y-69041878D01*
X110577221Y-69090920D01*
X110569012Y-69141456D01*
X110567587Y-69176358D01*
X110567587Y-69280894D01*
X110713889Y-69280894D01*
X110713889Y-69166344D01*
X110721450Y-69117787D01*
X110757440Y-69080020D01*
X110791314Y-69074265D01*
X110838494Y-69087179D01*
X110865034Y-69130317D01*
X110868739Y-69166100D01*
X110868739Y-69718577D01*
X110859590Y-69770028D01*
X110821482Y-69804623D01*
X110791314Y-69808947D01*
X110744133Y-69796239D01*
X110717593Y-69753790D01*
X110713889Y-69718577D01*
X110713889Y-69567635D01*
X110567587Y-69567635D01*
X110567587Y-69707098D01*
X110571235Y-69761717D01*
X110582181Y-69809802D01*
X110603216Y-69856088D01*
X110625961Y-69886372D01*
X110667597Y-69919731D01*
X110713879Y-69939191D01*
X110762025Y-69948087D01*
X110795466Y-69949631D01*
G37*
G36*
X112083358Y-82634000D02*
G01*
X111846931Y-82634000D01*
X111812313Y-82632491D01*
X111762777Y-82623801D01*
X111715662Y-82604792D01*
X111674007Y-82572206D01*
X111648789Y-82537600D01*
X111629031Y-82490092D01*
X111619124Y-82440240D01*
X111616366Y-82390734D01*
X111616366Y-81892478D01*
X111616634Y-81885639D01*
X111770972Y-81885639D01*
X111770972Y-82397572D01*
X111772594Y-82423908D01*
X111791488Y-82470845D01*
X111801210Y-82479601D01*
X111849862Y-82493316D01*
X111928508Y-82493316D01*
X111928508Y-81789896D01*
X111849862Y-81789896D01*
X111836201Y-81790686D01*
X111791488Y-81812367D01*
X111778204Y-81835300D01*
X111770972Y-81885639D01*
X111616634Y-81885639D01*
X111617773Y-81856562D01*
X111625879Y-81804951D01*
X111643610Y-81755500D01*
X111674007Y-81711250D01*
X111697649Y-81690167D01*
X111740711Y-81666721D01*
X111792892Y-81653090D01*
X111846931Y-81649212D01*
X112083358Y-81649212D01*
X112083358Y-82634000D01*
G37*
G36*
X111297629Y-82649631D02*
G01*
X111349897Y-82645662D01*
X111400816Y-82631709D01*
X111443389Y-82607709D01*
X111467133Y-82586128D01*
X111497917Y-82541334D01*
X111515874Y-82492291D01*
X111524082Y-82441756D01*
X111525508Y-82406854D01*
X111525508Y-81876358D01*
X111521859Y-81821739D01*
X111510914Y-81773654D01*
X111489879Y-81727368D01*
X111467133Y-81697084D01*
X111425498Y-81663596D01*
X111379216Y-81644061D01*
X111331069Y-81635131D01*
X111297629Y-81633581D01*
X111245361Y-81637550D01*
X111194442Y-81651503D01*
X111151869Y-81675503D01*
X111128124Y-81697084D01*
X111097341Y-81741878D01*
X111079384Y-81790920D01*
X111071176Y-81841456D01*
X111069750Y-81876358D01*
X111069750Y-81980894D01*
X111216052Y-81980894D01*
X111216052Y-81866344D01*
X111223613Y-81817787D01*
X111259603Y-81780020D01*
X111293477Y-81774265D01*
X111340658Y-81787179D01*
X111367197Y-81830317D01*
X111370902Y-81866100D01*
X111370902Y-82418577D01*
X111361753Y-82470028D01*
X111323645Y-82504623D01*
X111293477Y-82508947D01*
X111246296Y-82496239D01*
X111219757Y-82453790D01*
X111216052Y-82418577D01*
X111216052Y-82267635D01*
X111069750Y-82267635D01*
X111069750Y-82407098D01*
X111073399Y-82461717D01*
X111084344Y-82509802D01*
X111105379Y-82556088D01*
X111128124Y-82586372D01*
X111169760Y-82619731D01*
X111216042Y-82639191D01*
X111264189Y-82648087D01*
X111297629Y-82649631D01*
G37*
G36*
X111865249Y-80109631D02*
G01*
X111917517Y-80105662D01*
X111968436Y-80091709D01*
X112011009Y-80067709D01*
X112034754Y-80046128D01*
X112065537Y-80001334D01*
X112083494Y-79952291D01*
X112091703Y-79901756D01*
X112093128Y-79866854D01*
X112093128Y-79336358D01*
X112089480Y-79281739D01*
X112078534Y-79233654D01*
X112057499Y-79187368D01*
X112034754Y-79157084D01*
X111993118Y-79123596D01*
X111946836Y-79104061D01*
X111898690Y-79095131D01*
X111865249Y-79093581D01*
X111812981Y-79097550D01*
X111762062Y-79111503D01*
X111719490Y-79135503D01*
X111695745Y-79157084D01*
X111664962Y-79201878D01*
X111647005Y-79250920D01*
X111638796Y-79301456D01*
X111637371Y-79336358D01*
X111637371Y-79440894D01*
X111783672Y-79440894D01*
X111783672Y-79326344D01*
X111791233Y-79277787D01*
X111827224Y-79240020D01*
X111861097Y-79234265D01*
X111908278Y-79247179D01*
X111934817Y-79290317D01*
X111938522Y-79326100D01*
X111938522Y-79878577D01*
X111929373Y-79930028D01*
X111891266Y-79964623D01*
X111861097Y-79968947D01*
X111813916Y-79956239D01*
X111787377Y-79913790D01*
X111783672Y-79878577D01*
X111783672Y-79727635D01*
X111637371Y-79727635D01*
X111637371Y-79867098D01*
X111641019Y-79921717D01*
X111651964Y-79969802D01*
X111672999Y-80016088D01*
X111695745Y-80046372D01*
X111737381Y-80079731D01*
X111783663Y-80099191D01*
X111831809Y-80108087D01*
X111865249Y-80109631D01*
G37*
G36*
X111343791Y-80109631D02*
G01*
X111396654Y-80105616D01*
X111447914Y-80091502D01*
X111490481Y-80067225D01*
X111514028Y-80045395D01*
X111541892Y-80004858D01*
X111560637Y-79955510D01*
X111569643Y-79904250D01*
X111571669Y-79861236D01*
X111571669Y-79804816D01*
X111425368Y-79804816D01*
X111425368Y-79872715D01*
X111417545Y-79923463D01*
X111383982Y-79961335D01*
X111345256Y-79968947D01*
X111296988Y-79955895D01*
X111285661Y-79945744D01*
X111267148Y-79899882D01*
X111265145Y-79870029D01*
X111270521Y-79818598D01*
X111288213Y-79769822D01*
X111293233Y-79760852D01*
X111323955Y-79719209D01*
X111358340Y-79682897D01*
X111397280Y-79647035D01*
X111436409Y-79610739D01*
X111474374Y-79571176D01*
X111508472Y-79529112D01*
X111531125Y-79493895D01*
X111551089Y-79449306D01*
X111563659Y-79401331D01*
X111568835Y-79349968D01*
X111568983Y-79339289D01*
X111565289Y-79283983D01*
X111554206Y-79235303D01*
X111532907Y-79188456D01*
X111509876Y-79157817D01*
X111467711Y-79123942D01*
X111420830Y-79104182D01*
X111372054Y-79095149D01*
X111338173Y-79093581D01*
X111285997Y-79097596D01*
X111235400Y-79111710D01*
X111189242Y-79139311D01*
X111170134Y-79157817D01*
X111142625Y-79198354D01*
X111124118Y-79247702D01*
X111115226Y-79298962D01*
X111113226Y-79341976D01*
X111113226Y-79383009D01*
X111259527Y-79383009D01*
X111259527Y-79331962D01*
X111265787Y-79283344D01*
X111279311Y-79257712D01*
X111323155Y-79235089D01*
X111336708Y-79234265D01*
X111383889Y-79247557D01*
X111410428Y-79291956D01*
X111414133Y-79328787D01*
X111407800Y-79377605D01*
X111388802Y-79423312D01*
X111385312Y-79429170D01*
X111354116Y-79470181D01*
X111319530Y-79506226D01*
X111280532Y-79542011D01*
X111240997Y-79578353D01*
X111202883Y-79618085D01*
X111169020Y-79660484D01*
X111146931Y-79696128D01*
X111127611Y-79741666D01*
X111115447Y-79791879D01*
X111110617Y-79841067D01*
X111110295Y-79858305D01*
X111113158Y-79908713D01*
X111123443Y-79959710D01*
X111143954Y-80008652D01*
X111170134Y-80044662D01*
X111208064Y-80076068D01*
X111254532Y-80097196D01*
X111303007Y-80107347D01*
X111343791Y-80109631D01*
G37*
G36*
X125224686Y-119352631D02*
G01*
X125278236Y-119348708D01*
X125330160Y-119334916D01*
X125373273Y-119311193D01*
X125397121Y-119289861D01*
X125427905Y-119245158D01*
X125445861Y-119195829D01*
X125454070Y-119144748D01*
X125455495Y-119109365D01*
X125455495Y-119029742D01*
X125309194Y-119029742D01*
X125309194Y-119115960D01*
X125301370Y-119166578D01*
X125267808Y-119204354D01*
X125229082Y-119211947D01*
X125180585Y-119198346D01*
X125169243Y-119187767D01*
X125151151Y-119139932D01*
X125148726Y-119102282D01*
X125148726Y-119022903D01*
X125153308Y-118971899D01*
X125172662Y-118927893D01*
X125216805Y-118902693D01*
X125250087Y-118899316D01*
X125302111Y-118899316D01*
X125302111Y-118758632D01*
X125245935Y-118758632D01*
X125196991Y-118749092D01*
X125176326Y-118734208D01*
X125155864Y-118687631D01*
X125153123Y-118651898D01*
X125153123Y-118578381D01*
X125159769Y-118528587D01*
X125174128Y-118501933D01*
X125217612Y-118478132D01*
X125230303Y-118477265D01*
X125278694Y-118492784D01*
X125302414Y-118539341D01*
X125305042Y-118571298D01*
X125305042Y-118637732D01*
X125451343Y-118637732D01*
X125451343Y-118584976D01*
X125448550Y-118535174D01*
X125438517Y-118484784D01*
X125418508Y-118436415D01*
X125392969Y-118400817D01*
X125351453Y-118366942D01*
X125305482Y-118347182D01*
X125251358Y-118337584D01*
X125224686Y-118336581D01*
X125172464Y-118340565D01*
X125121706Y-118354572D01*
X125075233Y-118381963D01*
X125055914Y-118400328D01*
X125028050Y-118440550D01*
X125009306Y-118489775D01*
X125000299Y-118541089D01*
X124998273Y-118584243D01*
X124998273Y-118619903D01*
X125001447Y-118672177D01*
X125012152Y-118720514D01*
X125025139Y-118750817D01*
X125056592Y-118790952D01*
X125101031Y-118818852D01*
X125107938Y-118821647D01*
X125107938Y-118824334D01*
X125064484Y-118847186D01*
X125030130Y-118882075D01*
X125020987Y-118897118D01*
X125002621Y-118946259D01*
X124995065Y-118996863D01*
X124994121Y-119025101D01*
X124994121Y-119111563D01*
X124997769Y-119166625D01*
X125008714Y-119214817D01*
X125029749Y-119260822D01*
X125052495Y-119290593D01*
X125094393Y-119323309D01*
X125141360Y-119342392D01*
X125190472Y-119351116D01*
X125224686Y-119352631D01*
G37*
G36*
X122906947Y-119229777D02*
G01*
X122904840Y-119178898D01*
X122897434Y-119126148D01*
X122884696Y-119078151D01*
X122873241Y-119048793D01*
X122850051Y-119005065D01*
X122822333Y-118964055D01*
X122787929Y-118921031D01*
X122752341Y-118881731D01*
X122717264Y-118842945D01*
X122683387Y-118801768D01*
X122653194Y-118759457D01*
X122633395Y-118725415D01*
X122614622Y-118680115D01*
X122603030Y-118629247D01*
X122600422Y-118590105D01*
X122604930Y-118539104D01*
X122620938Y-118501933D01*
X122664242Y-118478445D01*
X122680534Y-118477265D01*
X122729352Y-118490969D01*
X122756812Y-118536745D01*
X122760645Y-118574718D01*
X122760645Y-118680475D01*
X122906947Y-118680475D01*
X122906947Y-118584732D01*
X122904130Y-118534942D01*
X122894013Y-118484593D01*
X122873837Y-118436308D01*
X122848084Y-118400817D01*
X122805919Y-118366942D01*
X122759038Y-118347182D01*
X122710262Y-118338149D01*
X122676382Y-118336581D01*
X122623427Y-118340596D01*
X122571844Y-118354710D01*
X122528724Y-118378987D01*
X122504679Y-118400817D01*
X122476107Y-118441236D01*
X122456886Y-118490504D01*
X122447650Y-118541727D01*
X122445572Y-118584732D01*
X122448972Y-118635099D01*
X122459173Y-118684809D01*
X122476175Y-118733863D01*
X122488559Y-118760831D01*
X122513853Y-118805405D01*
X122542422Y-118847012D01*
X122576999Y-118891050D01*
X122611417Y-118930732D01*
X122636814Y-118958179D01*
X122672120Y-118997231D01*
X122702966Y-119035547D01*
X122729871Y-119077369D01*
X122747823Y-119124630D01*
X122753807Y-119175066D01*
X122753807Y-119196316D01*
X122459738Y-119196316D01*
X122459738Y-119337000D01*
X122906947Y-119337000D01*
X122906947Y-119229777D01*
G37*
G36*
X120846358Y-79109212D02*
G01*
X120625563Y-79109212D01*
X120526889Y-79818249D01*
X120524202Y-79818249D01*
X120425772Y-79109212D01*
X120204732Y-79109212D01*
X120204732Y-80094000D01*
X120351034Y-80094000D01*
X120351034Y-79358829D01*
X120353965Y-79358829D01*
X120466561Y-80094000D01*
X120596009Y-80094000D01*
X120708361Y-79358829D01*
X120711292Y-79358829D01*
X120711292Y-80094000D01*
X120846358Y-80094000D01*
X120846358Y-79109212D01*
G37*
G36*
X120093113Y-79109212D02*
G01*
X119938263Y-79109212D01*
X119938263Y-80094000D01*
X120093113Y-80094000D01*
X120093113Y-79109212D01*
G37*
G36*
X119623190Y-80109631D02*
G01*
X119676053Y-80105616D01*
X119727314Y-80091502D01*
X119769880Y-80067225D01*
X119793427Y-80045395D01*
X119821291Y-80004858D01*
X119840036Y-79955510D01*
X119849042Y-79904250D01*
X119851069Y-79861236D01*
X119851069Y-79804816D01*
X119704767Y-79804816D01*
X119704767Y-79872715D01*
X119696944Y-79923463D01*
X119663381Y-79961335D01*
X119624655Y-79968947D01*
X119576387Y-79955895D01*
X119565060Y-79945744D01*
X119546547Y-79899882D01*
X119544544Y-79870029D01*
X119549920Y-79818598D01*
X119567612Y-79769822D01*
X119572632Y-79760852D01*
X119603354Y-79719209D01*
X119637739Y-79682897D01*
X119676679Y-79647035D01*
X119715809Y-79610739D01*
X119753773Y-79571176D01*
X119787871Y-79529112D01*
X119810524Y-79493895D01*
X119830488Y-79449306D01*
X119843058Y-79401331D01*
X119848234Y-79349968D01*
X119848382Y-79339289D01*
X119844688Y-79283983D01*
X119833605Y-79235303D01*
X119812306Y-79188456D01*
X119789275Y-79157817D01*
X119747110Y-79123942D01*
X119700229Y-79104182D01*
X119651453Y-79095149D01*
X119617572Y-79093581D01*
X119565396Y-79097596D01*
X119514799Y-79111710D01*
X119468641Y-79139311D01*
X119449533Y-79157817D01*
X119422024Y-79198354D01*
X119403517Y-79247702D01*
X119394625Y-79298962D01*
X119392625Y-79341976D01*
X119392625Y-79383009D01*
X119538926Y-79383009D01*
X119538926Y-79331962D01*
X119545186Y-79283344D01*
X119558710Y-79257712D01*
X119602554Y-79235089D01*
X119616107Y-79234265D01*
X119663288Y-79247557D01*
X119689827Y-79291956D01*
X119693532Y-79328787D01*
X119687199Y-79377605D01*
X119668201Y-79423312D01*
X119664711Y-79429170D01*
X119633515Y-79470181D01*
X119598930Y-79506226D01*
X119559931Y-79542011D01*
X119520396Y-79578353D01*
X119482283Y-79618085D01*
X119448419Y-79660484D01*
X119426330Y-79696128D01*
X119407010Y-79741666D01*
X119394846Y-79791879D01*
X119390016Y-79841067D01*
X119389694Y-79858305D01*
X119392557Y-79908713D01*
X119402842Y-79959710D01*
X119423354Y-80008652D01*
X119449533Y-80044662D01*
X119487463Y-80076068D01*
X119533932Y-80097196D01*
X119582406Y-80107347D01*
X119623190Y-80109631D01*
G37*
G36*
X119120886Y-79095865D02*
G01*
X119169559Y-79106016D01*
X119216325Y-79127144D01*
X119254628Y-79158549D01*
X119281021Y-79194377D01*
X119301700Y-79242675D01*
X119312069Y-79292710D01*
X119314956Y-79341976D01*
X119314956Y-79861236D01*
X119312835Y-79903777D01*
X119303408Y-79954648D01*
X119283790Y-80003887D01*
X119254628Y-80044662D01*
X119230032Y-80066742D01*
X119186088Y-80091295D01*
X119133682Y-80105571D01*
X119079994Y-80109631D01*
X119039110Y-80107347D01*
X118990475Y-80097196D01*
X118943789Y-80076068D01*
X118905605Y-80044662D01*
X118879104Y-80008835D01*
X118858342Y-79960537D01*
X118847931Y-79910502D01*
X118845032Y-79861236D01*
X118845032Y-79341976D01*
X118845546Y-79331718D01*
X118999882Y-79331718D01*
X118999882Y-79871494D01*
X119003716Y-79909467D01*
X119031176Y-79955243D01*
X119079994Y-79968947D01*
X119118720Y-79961238D01*
X119152282Y-79922885D01*
X119160106Y-79871494D01*
X119160106Y-79331718D01*
X119156272Y-79293745D01*
X119128812Y-79247969D01*
X119079994Y-79234265D01*
X119041268Y-79241973D01*
X119007706Y-79280326D01*
X118999882Y-79331718D01*
X118845546Y-79331718D01*
X118847162Y-79299435D01*
X118856626Y-79248563D01*
X118876324Y-79199325D01*
X118905605Y-79158549D01*
X118930117Y-79136470D01*
X118973969Y-79111917D01*
X119026322Y-79097641D01*
X119079994Y-79093581D01*
X119120886Y-79095865D01*
G37*
G36*
X112083358Y-87714000D02*
G01*
X111839848Y-87714000D01*
X111805176Y-87712562D01*
X111755331Y-87704285D01*
X111707540Y-87686178D01*
X111664726Y-87655137D01*
X111647487Y-87635360D01*
X111621775Y-87587971D01*
X111608626Y-87536389D01*
X111604886Y-87483434D01*
X111604886Y-87400147D01*
X111605180Y-87393797D01*
X111759736Y-87393797D01*
X111759736Y-87478061D01*
X111761301Y-87505145D01*
X111779520Y-87552066D01*
X111792192Y-87562338D01*
X111839848Y-87573316D01*
X111928508Y-87573316D01*
X111928508Y-87276316D01*
X111859632Y-87276316D01*
X111826437Y-87279347D01*
X111782939Y-87301962D01*
X111764178Y-87343521D01*
X111759736Y-87393797D01*
X111605180Y-87393797D01*
X111606692Y-87361126D01*
X111616168Y-87309906D01*
X111637491Y-87261242D01*
X111675398Y-87220251D01*
X111720413Y-87197182D01*
X111720413Y-87194495D01*
X111717264Y-87193125D01*
X111676205Y-87166285D01*
X111645187Y-87124642D01*
X111634394Y-87098553D01*
X111623433Y-87048541D01*
X111620518Y-86998856D01*
X111620518Y-86973211D01*
X111775124Y-86973211D01*
X111775124Y-87029387D01*
X111777865Y-87064951D01*
X111798327Y-87111208D01*
X111819026Y-87126092D01*
X111868180Y-87135632D01*
X111928508Y-87135632D01*
X111928508Y-86869896D01*
X111854014Y-86869896D01*
X111837209Y-86871065D01*
X111794175Y-86894321D01*
X111780500Y-86923819D01*
X111775124Y-86973211D01*
X111620518Y-86973211D01*
X111620518Y-86959045D01*
X111621860Y-86923964D01*
X111629588Y-86873985D01*
X111646493Y-86826810D01*
X111675473Y-86785632D01*
X111706888Y-86760949D01*
X111751938Y-86741609D01*
X111800611Y-86731912D01*
X111849862Y-86729212D01*
X112083358Y-86729212D01*
X112083358Y-87714000D01*
G37*
G36*
X111517692Y-86729212D02*
G01*
X111362842Y-86729212D01*
X111362842Y-87573316D01*
X111108341Y-87573316D01*
X111108341Y-87714000D01*
X111517692Y-87714000D01*
X111517692Y-86729212D01*
G37*
D11*
%TO.C,C11*%
X162135452Y-84151800D02*
X161612948Y-84151800D01*
X162135452Y-85621800D02*
X161612948Y-85621800D01*
%TO.C,R4*%
X164314200Y-59845836D02*
X164314200Y-60299964D01*
X165784200Y-59845836D02*
X165784200Y-60299964D01*
%TO.C,L1*%
X171302000Y-64614842D02*
X171302000Y-62944358D01*
X173122000Y-64614842D02*
X173122000Y-62944358D01*
%TO.C,C3*%
X172718148Y-70819600D02*
X174140652Y-70819600D01*
X172718148Y-72639600D02*
X174140652Y-72639600D01*
%TO.C,C6*%
X149928252Y-73687000D02*
X149405748Y-73687000D01*
X149928252Y-75157000D02*
X149405748Y-75157000D01*
%TO.C,C5*%
X161469400Y-59799548D02*
X161469400Y-60322052D01*
X162939400Y-59799548D02*
X162939400Y-60322052D01*
%TO.C,C7*%
X147251748Y-90959000D02*
X147774252Y-90959000D01*
X147251748Y-92429000D02*
X147774252Y-92429000D01*
%TO.C,C17*%
X147757000Y-70693000D02*
X147757000Y-72563000D01*
X147757000Y-72563000D02*
X151667000Y-72563000D01*
X151667000Y-70693000D02*
X147757000Y-70693000D01*
%TO.C,R6*%
X119329564Y-76354000D02*
X118875436Y-76354000D01*
X119329564Y-77824000D02*
X118875436Y-77824000D01*
%TO.C,C15*%
X144911000Y-95931000D02*
X148821000Y-95931000D01*
X148821000Y-94061000D02*
X144911000Y-94061000D01*
X148821000Y-95931000D02*
X148821000Y-94061000D01*
%TO.C,Q2*%
X155667900Y-63815200D02*
X155667900Y-64465200D01*
X155667900Y-65115200D02*
X155667900Y-64465200D01*
X158787900Y-63815200D02*
X158787900Y-64465200D01*
X158787900Y-65115200D02*
X158787900Y-64465200D01*
X155717900Y-63302700D02*
X155387900Y-63542700D01*
X155387900Y-63062700D01*
X155717900Y-63302700D01*
G36*
X155717900Y-63302700D02*
G01*
X155387900Y-63542700D01*
X155387900Y-63062700D01*
X155717900Y-63302700D01*
G37*
%TO.C,C12*%
X152965100Y-67613052D02*
X152965100Y-66190548D01*
X154785100Y-67613052D02*
X154785100Y-66190548D01*
%TO.C,J2*%
X176876400Y-64760800D02*
X176876400Y-67420800D01*
X176876400Y-64760800D02*
X179476400Y-64760800D01*
X176876400Y-67420800D02*
X179476400Y-67420800D01*
X179476400Y-64760800D02*
X179476400Y-67420800D01*
X182076400Y-66090800D02*
X182076400Y-67420800D01*
X182076400Y-67420800D02*
X180746400Y-67420800D01*
%TO.C,J1*%
X180926400Y-78540400D02*
X182626400Y-78540400D01*
X180926400Y-87880400D02*
X182626400Y-87880400D01*
%TO.C,C1*%
X172667452Y-77830000D02*
X171244948Y-77830000D01*
X172667452Y-79650000D02*
X171244948Y-79650000D01*
%TO.C,J3*%
X121606000Y-73219000D02*
X121606000Y-78359000D01*
X121606000Y-80959000D02*
X121606000Y-79629000D01*
X122936000Y-80959000D02*
X121606000Y-80959000D01*
X124206000Y-78359000D02*
X121606000Y-78359000D01*
X124206000Y-80959000D02*
X124206000Y-78359000D01*
X126806000Y-73219000D02*
X121606000Y-73219000D01*
X126806000Y-73219000D02*
X126806000Y-80959000D01*
X126806000Y-80959000D02*
X124206000Y-80959000D01*
%TO.C,R9*%
X119407000Y-103835564D02*
X119407000Y-103381436D01*
X120877000Y-103835564D02*
X120877000Y-103381436D01*
%TO.C,U5*%
X149849200Y-63868600D02*
X150499200Y-63868600D01*
X149849200Y-66988600D02*
X150499200Y-66988600D01*
X151149200Y-63868600D02*
X150499200Y-63868600D01*
X151149200Y-66988600D02*
X150499200Y-66988600D01*
X149576700Y-67268600D02*
X149096700Y-67268600D01*
X149336700Y-66938600D01*
X149576700Y-67268600D01*
G36*
X149576700Y-67268600D02*
G01*
X149096700Y-67268600D01*
X149336700Y-66938600D01*
X149576700Y-67268600D01*
G37*
%TO.C,U2*%
X170822300Y-80771600D02*
X171622300Y-80771600D01*
X170822300Y-83891600D02*
X171622300Y-83891600D01*
X172422300Y-80771600D02*
X171622300Y-80771600D01*
X172422300Y-83891600D02*
X171622300Y-83891600D01*
X170562300Y-84171600D02*
X170082300Y-84171600D01*
X170322300Y-83841600D01*
X170562300Y-84171600D01*
G36*
X170562300Y-84171600D02*
G01*
X170082300Y-84171600D01*
X170322300Y-83841600D01*
X170562300Y-84171600D01*
G37*
%TO.C,R10*%
X121947000Y-103859064D02*
X121947000Y-103404936D01*
X123417000Y-103859064D02*
X123417000Y-103404936D01*
%TO.C,C10*%
X134088200Y-92615652D02*
X134088200Y-92093148D01*
X135558200Y-92615652D02*
X135558200Y-92093148D01*
%TO.C,D4*%
X181231900Y-89957400D02*
X181231900Y-92642400D01*
X181231900Y-92642400D02*
X183151900Y-92642400D01*
X183151900Y-92642400D02*
X183151900Y-89957400D01*
%TO.C,D1*%
X174664400Y-73559400D02*
X174664400Y-76859400D01*
X180174400Y-73559400D02*
X174664400Y-73559400D01*
X180174400Y-76859400D02*
X174664400Y-76859400D01*
%TO.C,R22*%
X160663664Y-104956700D02*
X160209536Y-104956700D01*
X160663664Y-106426700D02*
X160209536Y-106426700D01*
%TO.C,R24*%
X164922564Y-114581000D02*
X164468436Y-114581000D01*
X164922564Y-116051000D02*
X164468436Y-116051000D01*
%TO.C,R2*%
X182932400Y-75944464D02*
X182932400Y-75490336D01*
X184402400Y-75944464D02*
X184402400Y-75490336D01*
%TO.C,R5*%
X154609436Y-90705000D02*
X155063564Y-90705000D01*
X154609436Y-92175000D02*
X155063564Y-92175000D01*
%TO.C,U4*%
X153314000Y-94521500D02*
X153314000Y-95171500D01*
X153314000Y-95821500D02*
X153314000Y-95171500D01*
X156434000Y-94521500D02*
X156434000Y-95171500D01*
X156434000Y-95821500D02*
X156434000Y-95171500D01*
X153364000Y-94009000D02*
X153034000Y-94249000D01*
X153034000Y-93769000D01*
X153364000Y-94009000D01*
G36*
X153364000Y-94009000D02*
G01*
X153034000Y-94249000D01*
X153034000Y-93769000D01*
X153364000Y-94009000D01*
G37*
%TO.C,C14*%
X160697852Y-102721500D02*
X160175348Y-102721500D01*
X160697852Y-104191500D02*
X160175348Y-104191500D01*
%TO.C,C4*%
X169425948Y-58320000D02*
X169948452Y-58320000D01*
X169425948Y-59790000D02*
X169948452Y-59790000D01*
%TO.C,R11*%
X124487000Y-103835564D02*
X124487000Y-103381436D01*
X125957000Y-103835564D02*
X125957000Y-103381436D01*
%TO.C,R8*%
X116867000Y-103859064D02*
X116867000Y-103404936D01*
X118337000Y-103859064D02*
X118337000Y-103404936D01*
%TO.C,D3*%
X159628100Y-111663600D02*
X159628100Y-113583600D01*
X159628100Y-113583600D02*
X162313100Y-113583600D01*
X162313100Y-111663600D02*
X159628100Y-111663600D01*
%TO.C,R12*%
X127027000Y-103859064D02*
X127027000Y-103404936D01*
X128497000Y-103859064D02*
X128497000Y-103404936D01*
%TO.C,R21*%
X173890000Y-115773564D02*
X173890000Y-115319436D01*
X175360000Y-115773564D02*
X175360000Y-115319436D01*
D12*
%TO.C,U1*%
X142500600Y-78710400D02*
X142500600Y-78035400D01*
X142500600Y-87770400D02*
X142500600Y-88385400D01*
X143175600Y-78035400D02*
X142500600Y-78035400D01*
X143175600Y-88385400D02*
X142500600Y-88385400D01*
X152175600Y-78035400D02*
X152850600Y-78035400D01*
X152175600Y-88385400D02*
X152850600Y-88385400D01*
X152850600Y-78710400D02*
X152850600Y-78035400D01*
X152850600Y-87710400D02*
X152850600Y-88385400D01*
D11*
X142155600Y-88220400D02*
X141475600Y-88220400D01*
X141815600Y-87750400D01*
X142155600Y-88220400D01*
G36*
X142155600Y-88220400D02*
G01*
X141475600Y-88220400D01*
X141815600Y-87750400D01*
X142155600Y-88220400D01*
G37*
%TO.C,Q3*%
X158841000Y-108417600D02*
X158841000Y-109067600D01*
X158841000Y-109717600D02*
X158841000Y-109067600D01*
X161961000Y-108417600D02*
X161961000Y-109067600D01*
X161961000Y-109717600D02*
X161961000Y-109067600D01*
X158891000Y-107905100D02*
X158561000Y-108145100D01*
X158561000Y-107665100D01*
X158891000Y-107905100D01*
G36*
X158891000Y-107905100D02*
G01*
X158561000Y-108145100D01*
X158561000Y-107665100D01*
X158891000Y-107905100D01*
G37*
%TO.C,C13*%
X146005500Y-66700452D02*
X146005500Y-65277948D01*
X147825500Y-66700452D02*
X147825500Y-65277948D01*
%TO.C,R3*%
X164363764Y-62409400D02*
X163909636Y-62409400D01*
X164363764Y-63879400D02*
X163909636Y-63879400D01*
%TO.C,R15*%
X174423400Y-100816036D02*
X174423400Y-101270164D01*
X175893400Y-100816036D02*
X175893400Y-101270164D01*
%TO.C,D2*%
X161761200Y-64796400D02*
X161761200Y-68096400D01*
X167271200Y-64796400D02*
X161761200Y-64796400D01*
X167271200Y-68096400D02*
X161761200Y-68096400D01*
%TO.C,Q4*%
X163987000Y-118046500D02*
X163987000Y-118696500D01*
X163987000Y-119346500D02*
X163987000Y-118696500D01*
X167107000Y-118046500D02*
X167107000Y-118696500D01*
X167107000Y-119346500D02*
X167107000Y-118696500D01*
X167387000Y-120099000D02*
X167057000Y-119859000D01*
X167387000Y-119619000D01*
X167387000Y-120099000D01*
G36*
X167387000Y-120099000D02*
G01*
X167057000Y-119859000D01*
X167387000Y-119619000D01*
X167387000Y-120099000D01*
G37*
%TO.C,U3*%
X167678200Y-60648400D02*
X168478200Y-60648400D01*
X167678200Y-63768400D02*
X168478200Y-63768400D01*
X169278200Y-60648400D02*
X168478200Y-60648400D01*
X169278200Y-63768400D02*
X168478200Y-63768400D01*
X167418200Y-64048400D02*
X166938200Y-64048400D01*
X167178200Y-63718400D01*
X167418200Y-64048400D01*
G36*
X167418200Y-64048400D02*
G01*
X166938200Y-64048400D01*
X167178200Y-63718400D01*
X167418200Y-64048400D01*
G37*
%TO.C,Q1*%
X176646400Y-70114400D02*
X176646400Y-70764400D01*
X176646400Y-71414400D02*
X176646400Y-70764400D01*
X179766400Y-70114400D02*
X179766400Y-70764400D01*
X179766400Y-71414400D02*
X179766400Y-70764400D01*
X180046400Y-72166900D02*
X179716400Y-71926900D01*
X180046400Y-71686900D01*
X180046400Y-72166900D01*
G36*
X180046400Y-72166900D02*
G01*
X179716400Y-71926900D01*
X180046400Y-71686900D01*
X180046400Y-72166900D01*
G37*
%TO.C,R18*%
X156998936Y-87911000D02*
X157453064Y-87911000D01*
X156998936Y-89381000D02*
X157453064Y-89381000D01*
%TO.C,R19*%
X157438164Y-85660800D02*
X156984036Y-85660800D01*
X157438164Y-87130800D02*
X156984036Y-87130800D01*
%TO.C,R1*%
X173859564Y-84507400D02*
X173405436Y-84507400D01*
X173859564Y-85977400D02*
X173405436Y-85977400D01*
%TO.C,R20*%
X157000836Y-60275800D02*
X157454964Y-60275800D01*
X157000836Y-61745800D02*
X157454964Y-61745800D01*
%TO.C,R14*%
X171375400Y-98834836D02*
X171375400Y-99288964D01*
X172845400Y-98834836D02*
X172845400Y-99288964D01*
%TO.C,R7*%
X162101264Y-86488600D02*
X161647136Y-86488600D01*
X162101264Y-87958600D02*
X161647136Y-87958600D01*
%TO.C,C2*%
X174883400Y-79500148D02*
X174883400Y-80922652D01*
X176703400Y-79500148D02*
X176703400Y-80922652D01*
%TO.C,R17*%
X177825036Y-101220600D02*
X178279164Y-101220600D01*
X177825036Y-102690600D02*
X178279164Y-102690600D01*
%TO.C,R23*%
X157095564Y-80072800D02*
X156641436Y-80072800D01*
X157095564Y-81542800D02*
X156641436Y-81542800D01*
%TO.C,C9*%
X134088200Y-73144748D02*
X134088200Y-73667252D01*
X135558200Y-73144748D02*
X135558200Y-73667252D01*
%TO.C,C8*%
X162120252Y-82069000D02*
X161597748Y-82069000D01*
X162120252Y-83539000D02*
X161597748Y-83539000D01*
%TO.C,R16*%
X170970836Y-101220600D02*
X171424964Y-101220600D01*
X170970836Y-102690600D02*
X171424964Y-102690600D01*
%TO.C,R13*%
X129567000Y-103859064D02*
X129567000Y-103404936D01*
X131037000Y-103859064D02*
X131037000Y-103404936D01*
%TO.C,R25*%
X175185400Y-89279464D02*
X175185400Y-88825336D01*
X176655400Y-89279464D02*
X176655400Y-88825336D01*
%TO.C,Y1*%
X132273200Y-76256400D02*
X132273200Y-88856400D01*
X137373200Y-76256400D02*
X132273200Y-76256400D01*
X137373200Y-88856400D02*
X137373200Y-76256400D01*
%TD*%
%LPC*%
D12*
G36*
X152222441Y-60831000D02*
G01*
X151791597Y-60831000D01*
X151707333Y-60268264D01*
X151179769Y-60268264D01*
X151095505Y-60831000D01*
X150630955Y-60831000D01*
X150791422Y-59846212D01*
X151234723Y-59846212D01*
X151652378Y-59846212D01*
X151450145Y-58406401D01*
X151441353Y-58406401D01*
X151234723Y-59846212D01*
X150791422Y-59846212D01*
X151112357Y-57876638D01*
X151741039Y-57876638D01*
X152222441Y-60831000D01*
G37*
G36*
X150657333Y-57876638D02*
G01*
X150189120Y-57876638D01*
X149885037Y-60178138D01*
X149876244Y-60178138D01*
X149572895Y-57876638D01*
X149146447Y-57876638D01*
X149593411Y-60831000D01*
X150209636Y-60831000D01*
X150657333Y-57876638D01*
G37*
G36*
X148931757Y-60831000D02*
G01*
X148467207Y-60831000D01*
X148467207Y-59564845D01*
X148306740Y-59564845D01*
X148215750Y-59572716D01*
X148081060Y-59645445D01*
X148028329Y-59774013D01*
X148015847Y-59927545D01*
X148015847Y-60468299D01*
X148015343Y-60544090D01*
X148007787Y-60696177D01*
X147973348Y-60831000D01*
X147500739Y-60831000D01*
X147504854Y-60821557D01*
X147543237Y-60677859D01*
X147547487Y-60624135D01*
X147551297Y-60472695D01*
X147551297Y-59954656D01*
X147555647Y-59830779D01*
X147575837Y-59681834D01*
X147620906Y-59537734D01*
X147629996Y-59518637D01*
X147722990Y-59401687D01*
X147859775Y-59331104D01*
X147859775Y-59323044D01*
X147805433Y-59297119D01*
X147686650Y-59198830D01*
X147605879Y-59058135D01*
X147566384Y-58900240D01*
X147555693Y-58739060D01*
X147555693Y-58602772D01*
X148020243Y-58602772D01*
X148020243Y-58830651D01*
X148028468Y-58935084D01*
X148089852Y-59070986D01*
X148151848Y-59114743D01*
X148298680Y-59142793D01*
X148467207Y-59142793D01*
X148467207Y-58298690D01*
X148256182Y-58298690D01*
X148212613Y-58301214D01*
X148077396Y-58370497D01*
X148038327Y-58450299D01*
X148020243Y-58602772D01*
X147555693Y-58602772D01*
X147555693Y-58557343D01*
X147559718Y-58453419D01*
X147582902Y-58305374D01*
X147633617Y-58165645D01*
X147720557Y-58043700D01*
X147814804Y-57970610D01*
X147949954Y-57913346D01*
X148095973Y-57884632D01*
X148243725Y-57876638D01*
X148931757Y-57876638D01*
X148931757Y-60831000D01*
G37*
G36*
X146206007Y-58298690D02*
G01*
X146691806Y-58298690D01*
X146691806Y-57876638D01*
X145256391Y-57876638D01*
X145256391Y-58298690D01*
X145742190Y-58298690D01*
X145742190Y-60831000D01*
X146206007Y-60831000D01*
X146206007Y-58298690D01*
G37*
G36*
X145042434Y-60831000D02*
G01*
X144577884Y-60831000D01*
X144577884Y-59564845D01*
X144417417Y-59564845D01*
X144326427Y-59572716D01*
X144191736Y-59645445D01*
X144139006Y-59774013D01*
X144126524Y-59927545D01*
X144126524Y-60468299D01*
X144126020Y-60544090D01*
X144118464Y-60696177D01*
X144084025Y-60831000D01*
X143611415Y-60831000D01*
X143615531Y-60821557D01*
X143653914Y-60677859D01*
X143658164Y-60624135D01*
X143661974Y-60472695D01*
X143661974Y-59954656D01*
X143666324Y-59830779D01*
X143686514Y-59681834D01*
X143731583Y-59537734D01*
X143740673Y-59518637D01*
X143833667Y-59401687D01*
X143970452Y-59331104D01*
X143970452Y-59323044D01*
X143916110Y-59297119D01*
X143797327Y-59198830D01*
X143716556Y-59058135D01*
X143677060Y-58900240D01*
X143666370Y-58739060D01*
X143666370Y-58602772D01*
X144130920Y-58602772D01*
X144130920Y-58830651D01*
X144139145Y-58935084D01*
X144200529Y-59070986D01*
X144262525Y-59114743D01*
X144409357Y-59142793D01*
X144577884Y-59142793D01*
X144577884Y-58298690D01*
X144366859Y-58298690D01*
X144323290Y-58301214D01*
X144188073Y-58370497D01*
X144149003Y-58450299D01*
X144130920Y-58602772D01*
X143666370Y-58602772D01*
X143666370Y-58557343D01*
X143670395Y-58453419D01*
X143693579Y-58305374D01*
X143744294Y-58165645D01*
X143831234Y-58043700D01*
X143925481Y-57970610D01*
X144060631Y-57913346D01*
X144206650Y-57884632D01*
X144354402Y-57876638D01*
X145042434Y-57876638D01*
X145042434Y-60831000D01*
G37*
G36*
X143473662Y-60831000D02*
G01*
X143042818Y-60831000D01*
X142958554Y-60268264D01*
X142430990Y-60268264D01*
X142346726Y-60831000D01*
X141882176Y-60831000D01*
X142042644Y-59846212D01*
X142485944Y-59846212D01*
X142903600Y-59846212D01*
X142701367Y-58406401D01*
X142692574Y-58406401D01*
X142485944Y-59846212D01*
X142042644Y-59846212D01*
X142363579Y-57876638D01*
X142992260Y-57876638D01*
X143473662Y-60831000D01*
G37*
G36*
X141668952Y-57876638D02*
G01*
X141086433Y-57876638D01*
X140635072Y-59661565D01*
X140626279Y-59661565D01*
X140626279Y-57876638D01*
X140213020Y-57876638D01*
X140213020Y-60831000D01*
X140690027Y-60831000D01*
X141246900Y-58704621D01*
X141254960Y-58704621D01*
X141254960Y-60831000D01*
X141668952Y-60831000D01*
X141668952Y-57876638D01*
G37*
G36*
X139271464Y-60877894D02*
G01*
X139430054Y-60865850D01*
X139583835Y-60823507D01*
X139711534Y-60750677D01*
X139782176Y-60685187D01*
X139865767Y-60563574D01*
X139922001Y-60415531D01*
X139949021Y-60261750D01*
X139955100Y-60132709D01*
X139955100Y-59963449D01*
X139516196Y-59963449D01*
X139516196Y-60167147D01*
X139492725Y-60319389D01*
X139392038Y-60433006D01*
X139275861Y-60455842D01*
X139131055Y-60416687D01*
X139097075Y-60386233D01*
X139041536Y-60248646D01*
X139035526Y-60159087D01*
X139051654Y-60004794D01*
X139104731Y-59858466D01*
X139119789Y-59831558D01*
X139211956Y-59706629D01*
X139315110Y-59597693D01*
X139431932Y-59490106D01*
X139549320Y-59381218D01*
X139663214Y-59262528D01*
X139765506Y-59136336D01*
X139833467Y-59030685D01*
X139893359Y-58896920D01*
X139931069Y-58752993D01*
X139946596Y-58598905D01*
X139947040Y-58566868D01*
X139935957Y-58400951D01*
X139902710Y-58254909D01*
X139838812Y-58114369D01*
X139769720Y-58022451D01*
X139643224Y-57920828D01*
X139502581Y-57861548D01*
X139356253Y-57834448D01*
X139254612Y-57829743D01*
X139098082Y-57841788D01*
X138946292Y-57884131D01*
X138807817Y-57966935D01*
X138750494Y-58022451D01*
X138667966Y-58144064D01*
X138612446Y-58292107D01*
X138585771Y-58445888D01*
X138579769Y-58574928D01*
X138579769Y-58698027D01*
X139018673Y-58698027D01*
X139018673Y-58544886D01*
X139037452Y-58399033D01*
X139078024Y-58322137D01*
X139209557Y-58254268D01*
X139250215Y-58251795D01*
X139391758Y-58291671D01*
X139471375Y-58424870D01*
X139482490Y-58535361D01*
X139463492Y-58681817D01*
X139406498Y-58818936D01*
X139396028Y-58836512D01*
X139302438Y-58959544D01*
X139198683Y-59067678D01*
X139081688Y-59175033D01*
X138963082Y-59284061D01*
X138848742Y-59403256D01*
X138747151Y-59530452D01*
X138680885Y-59637385D01*
X138622925Y-59773999D01*
X138586432Y-59924637D01*
X138571942Y-60072203D01*
X138570976Y-60123916D01*
X138579566Y-60275140D01*
X138610421Y-60428131D01*
X138671955Y-60574957D01*
X138750494Y-60682988D01*
X138864283Y-60777205D01*
X139003689Y-60840588D01*
X139149113Y-60871042D01*
X139271464Y-60877894D01*
G37*
G36*
X138313055Y-57876638D02*
G01*
X137848505Y-57876638D01*
X137848505Y-60831000D01*
X138313055Y-60831000D01*
X138313055Y-57876638D01*
G37*
G36*
X136903286Y-60877894D02*
G01*
X137061876Y-60865850D01*
X137215656Y-60823507D01*
X137343355Y-60750677D01*
X137413997Y-60685187D01*
X137497589Y-60563574D01*
X137553823Y-60415531D01*
X137580842Y-60261750D01*
X137586921Y-60132709D01*
X137586921Y-59963449D01*
X137148017Y-59963449D01*
X137148017Y-60167147D01*
X137124547Y-60319389D01*
X137023860Y-60433006D01*
X136907682Y-60455842D01*
X136762877Y-60416687D01*
X136728896Y-60386233D01*
X136673358Y-60248646D01*
X136667347Y-60159087D01*
X136683476Y-60004794D01*
X136736552Y-59858466D01*
X136751611Y-59831558D01*
X136843777Y-59706629D01*
X136946932Y-59597693D01*
X137063753Y-59490106D01*
X137181141Y-59381218D01*
X137295035Y-59262528D01*
X137397328Y-59136336D01*
X137465288Y-59030685D01*
X137525180Y-58896920D01*
X137562890Y-58752993D01*
X137578418Y-58598905D01*
X137578861Y-58566868D01*
X137567779Y-58400951D01*
X137534531Y-58254909D01*
X137470634Y-58114369D01*
X137401541Y-58022451D01*
X137275045Y-57920828D01*
X137134402Y-57861548D01*
X136988074Y-57834448D01*
X136886433Y-57829743D01*
X136729904Y-57841788D01*
X136578113Y-57884131D01*
X136439639Y-57966935D01*
X136382316Y-58022451D01*
X136299787Y-58144064D01*
X136244268Y-58292107D01*
X136217592Y-58445888D01*
X136211590Y-58574928D01*
X136211590Y-58698027D01*
X136650494Y-58698027D01*
X136650494Y-58544886D01*
X136669273Y-58399033D01*
X136709845Y-58322137D01*
X136841379Y-58254268D01*
X136882036Y-58251795D01*
X137023579Y-58291671D01*
X137103197Y-58424870D01*
X137114311Y-58535361D01*
X137095313Y-58681817D01*
X137038319Y-58818936D01*
X137027849Y-58836512D01*
X136934260Y-58959544D01*
X136830504Y-59067678D01*
X136713509Y-59175033D01*
X136594903Y-59284061D01*
X136480563Y-59403256D01*
X136378973Y-59530452D01*
X136312706Y-59637385D01*
X136254746Y-59773999D01*
X136218253Y-59924637D01*
X136203763Y-60072203D01*
X136202797Y-60123916D01*
X136211387Y-60275140D01*
X136242242Y-60428131D01*
X136303776Y-60574957D01*
X136382316Y-60682988D01*
X136496104Y-60777205D01*
X136635511Y-60840588D01*
X136780934Y-60871042D01*
X136903286Y-60877894D01*
G37*
G36*
X135581443Y-58298690D02*
G01*
X136067242Y-58298690D01*
X136067242Y-57876638D01*
X134631827Y-57876638D01*
X134631827Y-58298690D01*
X135117626Y-58298690D01*
X135117626Y-60831000D01*
X135581443Y-60831000D01*
X135581443Y-58298690D01*
G37*
G36*
X133886954Y-57836596D02*
G01*
X134032973Y-57867050D01*
X134173269Y-57930432D01*
X134288177Y-58024649D01*
X134367358Y-58132131D01*
X134429394Y-58277025D01*
X134460501Y-58427131D01*
X134469161Y-58574928D01*
X134469161Y-60132709D01*
X134462799Y-60260333D01*
X134434520Y-60412946D01*
X134375665Y-60560661D01*
X134288177Y-60682988D01*
X134214392Y-60749226D01*
X134082559Y-60822887D01*
X133925339Y-60865713D01*
X133764277Y-60877894D01*
X133641625Y-60871042D01*
X133495720Y-60840588D01*
X133355663Y-60777205D01*
X133241108Y-60682988D01*
X133161607Y-60575506D01*
X133099320Y-60430613D01*
X133068087Y-60280506D01*
X133059392Y-60132709D01*
X133059392Y-58574928D01*
X133060932Y-58544154D01*
X133523942Y-58544154D01*
X133523942Y-60163484D01*
X133535442Y-60277401D01*
X133617822Y-60414730D01*
X133764277Y-60455842D01*
X133880454Y-60432716D01*
X133981141Y-60317657D01*
X134004612Y-60163484D01*
X134004612Y-58544154D01*
X133993111Y-58430237D01*
X133910731Y-58292908D01*
X133764277Y-58251795D01*
X133648099Y-58274921D01*
X133547412Y-58389980D01*
X133523942Y-58544154D01*
X133060932Y-58544154D01*
X133065780Y-58447305D01*
X133094173Y-58294691D01*
X133153267Y-58146977D01*
X133241108Y-58024649D01*
X133314645Y-57958412D01*
X133446201Y-57884751D01*
X133603259Y-57841925D01*
X133764277Y-57829743D01*
X133886954Y-57836596D01*
G37*
G36*
X132756042Y-60831000D02*
G01*
X132291492Y-60831000D01*
X132291492Y-59564845D01*
X132131025Y-59564845D01*
X132040035Y-59572716D01*
X131905344Y-59645445D01*
X131852614Y-59774013D01*
X131840131Y-59927545D01*
X131840131Y-60468299D01*
X131839628Y-60544090D01*
X131832071Y-60696177D01*
X131797633Y-60831000D01*
X131325023Y-60831000D01*
X131329139Y-60821557D01*
X131367521Y-60677859D01*
X131371772Y-60624135D01*
X131375581Y-60472695D01*
X131375581Y-59954656D01*
X131379932Y-59830779D01*
X131400121Y-59681834D01*
X131445191Y-59537734D01*
X131454281Y-59518637D01*
X131547275Y-59401687D01*
X131684060Y-59331104D01*
X131684060Y-59323044D01*
X131629717Y-59297119D01*
X131510935Y-59198830D01*
X131430163Y-59058135D01*
X131390668Y-58900240D01*
X131379978Y-58739060D01*
X131379978Y-58602772D01*
X131844528Y-58602772D01*
X131844528Y-58830651D01*
X131852753Y-58935084D01*
X131914137Y-59070986D01*
X131976133Y-59114743D01*
X132122965Y-59142793D01*
X132291492Y-59142793D01*
X132291492Y-58298690D01*
X132080466Y-58298690D01*
X132036898Y-58301214D01*
X131901681Y-58370497D01*
X131862611Y-58450299D01*
X131844528Y-58602772D01*
X131379978Y-58602772D01*
X131379978Y-58557343D01*
X131384003Y-58453419D01*
X131407187Y-58305374D01*
X131457902Y-58165645D01*
X131544842Y-58043700D01*
X131639089Y-57970610D01*
X131774239Y-57913346D01*
X131920258Y-57884632D01*
X132068010Y-57876638D01*
X132756042Y-57876638D01*
X132756042Y-60831000D01*
G37*
G36*
X130030292Y-58298690D02*
G01*
X130516091Y-58298690D01*
X130516091Y-57876638D01*
X129080676Y-57876638D01*
X129080676Y-58298690D01*
X129566475Y-58298690D01*
X129566475Y-60831000D01*
X130030292Y-60831000D01*
X130030292Y-58298690D01*
G37*
G36*
X128866719Y-57876638D02*
G01*
X127600564Y-57876638D01*
X127600564Y-58298690D01*
X128402169Y-58298690D01*
X128402169Y-59095898D01*
X127764695Y-59095898D01*
X127764695Y-59517950D01*
X128402169Y-59517950D01*
X128402169Y-60408948D01*
X127600564Y-60408948D01*
X127600564Y-60831000D01*
X128866719Y-60831000D01*
X128866719Y-57876638D01*
G37*
G36*
X126730083Y-60877894D02*
G01*
X126888672Y-60865850D01*
X127042453Y-60823507D01*
X127170152Y-60750677D01*
X127240794Y-60685187D01*
X127324385Y-60563574D01*
X127380620Y-60415531D01*
X127407639Y-60261750D01*
X127413718Y-60132709D01*
X127413718Y-59963449D01*
X126974814Y-59963449D01*
X126974814Y-60167147D01*
X126951344Y-60319389D01*
X126850656Y-60433006D01*
X126734479Y-60455842D01*
X126589673Y-60416687D01*
X126555693Y-60386233D01*
X126500155Y-60248646D01*
X126494144Y-60159087D01*
X126510273Y-60004794D01*
X126563349Y-59858466D01*
X126578408Y-59831558D01*
X126670574Y-59706629D01*
X126773729Y-59597693D01*
X126890550Y-59490106D01*
X127007938Y-59381218D01*
X127121832Y-59262528D01*
X127224125Y-59136336D01*
X127292085Y-59030685D01*
X127351977Y-58896920D01*
X127389687Y-58752993D01*
X127405215Y-58598905D01*
X127405658Y-58566868D01*
X127394576Y-58400951D01*
X127361328Y-58254909D01*
X127297431Y-58114369D01*
X127228338Y-58022451D01*
X127101842Y-57920828D01*
X126961199Y-57861548D01*
X126814871Y-57834448D01*
X126713230Y-57829743D01*
X126556701Y-57841788D01*
X126404910Y-57884131D01*
X126266436Y-57966935D01*
X126209113Y-58022451D01*
X126126584Y-58144064D01*
X126071065Y-58292107D01*
X126044389Y-58445888D01*
X126038387Y-58574928D01*
X126038387Y-58698027D01*
X126477291Y-58698027D01*
X126477291Y-58544886D01*
X126496070Y-58399033D01*
X126536642Y-58322137D01*
X126668176Y-58254268D01*
X126708833Y-58251795D01*
X126850376Y-58291671D01*
X126929994Y-58424870D01*
X126941108Y-58535361D01*
X126922110Y-58681817D01*
X126865116Y-58818936D01*
X126854646Y-58836512D01*
X126761057Y-58959544D01*
X126657301Y-59067678D01*
X126540306Y-59175033D01*
X126421700Y-59284061D01*
X126307360Y-59403256D01*
X126205769Y-59530452D01*
X126139503Y-59637385D01*
X126081543Y-59773999D01*
X126045050Y-59924637D01*
X126030560Y-60072203D01*
X126029594Y-60123916D01*
X126038184Y-60275140D01*
X126069039Y-60428131D01*
X126130573Y-60574957D01*
X126209113Y-60682988D01*
X126322901Y-60777205D01*
X126462307Y-60840588D01*
X126607731Y-60871042D01*
X126730083Y-60877894D01*
G37*
G36*
X125408240Y-58298690D02*
G01*
X125894039Y-58298690D01*
X125894039Y-57876638D01*
X124458624Y-57876638D01*
X124458624Y-58298690D01*
X124944423Y-58298690D01*
X124944423Y-60831000D01*
X125408240Y-60831000D01*
X125408240Y-58298690D01*
G37*
G36*
X124244667Y-57876638D02*
G01*
X122978512Y-57876638D01*
X122978512Y-58298690D01*
X123780117Y-58298690D01*
X123780117Y-59095898D01*
X123142644Y-59095898D01*
X123142644Y-59517950D01*
X123780117Y-59517950D01*
X123780117Y-60408948D01*
X122978512Y-60408948D01*
X122978512Y-60831000D01*
X124244667Y-60831000D01*
X124244667Y-57876638D01*
G37*
G36*
X122720592Y-60831000D02*
G01*
X122256042Y-60831000D01*
X122256042Y-59564845D01*
X122095575Y-59564845D01*
X122004585Y-59572716D01*
X121869894Y-59645445D01*
X121817163Y-59774013D01*
X121804681Y-59927545D01*
X121804681Y-60468299D01*
X121804178Y-60544090D01*
X121796621Y-60696177D01*
X121762183Y-60831000D01*
X121289573Y-60831000D01*
X121293689Y-60821557D01*
X121332071Y-60677859D01*
X121336322Y-60624135D01*
X121340131Y-60472695D01*
X121340131Y-59954656D01*
X121344482Y-59830779D01*
X121364671Y-59681834D01*
X121409741Y-59537734D01*
X121418831Y-59518637D01*
X121511825Y-59401687D01*
X121648610Y-59331104D01*
X121648610Y-59323044D01*
X121594267Y-59297119D01*
X121475485Y-59198830D01*
X121394713Y-59058135D01*
X121355218Y-58900240D01*
X121344528Y-58739060D01*
X121344528Y-58602772D01*
X121809078Y-58602772D01*
X121809078Y-58830651D01*
X121817303Y-58935084D01*
X121878687Y-59070986D01*
X121940683Y-59114743D01*
X122087515Y-59142793D01*
X122256042Y-59142793D01*
X122256042Y-58298690D01*
X122045016Y-58298690D01*
X122001448Y-58301214D01*
X121866230Y-58370497D01*
X121827161Y-58450299D01*
X121809078Y-58602772D01*
X121344528Y-58602772D01*
X121344528Y-58557343D01*
X121348553Y-58453419D01*
X121371737Y-58305374D01*
X121422452Y-58165645D01*
X121509392Y-58043700D01*
X121603639Y-57970610D01*
X121738789Y-57913346D01*
X121884808Y-57884632D01*
X122032560Y-57876638D01*
X122720592Y-57876638D01*
X122720592Y-60831000D01*
G37*
D13*
%TO.C,SW1*%
X177125000Y-105145000D03*
D14*
X172125000Y-105145000D03*
X174625000Y-105145000D03*
D15*
X180225000Y-112645000D03*
X169025000Y-112645000D03*
D14*
X177125000Y-119645000D03*
X172125000Y-119645000D03*
%TD*%
D16*
%TO.C,J7*%
X113792000Y-59236000D03*
X113792000Y-97536000D03*
X179292000Y-59236000D03*
X179292000Y-97536000D03*
D17*
X113772000Y-69486000D03*
D18*
X113772000Y-72026000D03*
X113772000Y-74566000D03*
X113772000Y-77106000D03*
X113772000Y-79646000D03*
X113772000Y-82186000D03*
X113772000Y-84726000D03*
X113772000Y-87266000D03*
%TD*%
D17*
%TO.C,J5*%
X150368000Y-108585000D03*
D18*
X152908000Y-108585000D03*
X155448000Y-108585000D03*
%TD*%
D19*
%TO.C,J4*%
X120142000Y-116205000D03*
D20*
X122682000Y-116205000D03*
X125222000Y-116205000D03*
X127762000Y-116205000D03*
X130302000Y-116205000D03*
X132842000Y-116205000D03*
X135382000Y-116205000D03*
X135382000Y-108585000D03*
X132842000Y-108585000D03*
X130302000Y-108585000D03*
X127762000Y-108585000D03*
X125222000Y-108585000D03*
X122682000Y-108585000D03*
X120142000Y-108585000D03*
%TD*%
D21*
%TO.C,C11*%
X160924200Y-84886800D03*
X162824200Y-84886800D03*
%TD*%
D22*
%TO.C,R4*%
X165049200Y-60985400D03*
X165049200Y-59160400D03*
%TD*%
D23*
%TO.C,L1*%
X172212000Y-62204600D03*
X172212000Y-65354600D03*
%TD*%
D24*
%TO.C,C3*%
X174904400Y-71729600D03*
X171954400Y-71729600D03*
%TD*%
D21*
%TO.C,C6*%
X148717000Y-74422000D03*
X150617000Y-74422000D03*
%TD*%
D25*
%TO.C,C5*%
X162204400Y-61010800D03*
X162204400Y-59110800D03*
%TD*%
D26*
%TO.C,C7*%
X148463000Y-91694000D03*
X146563000Y-91694000D03*
%TD*%
D27*
%TO.C,C17*%
X148717000Y-71628000D03*
X151417000Y-71628000D03*
%TD*%
D28*
%TO.C,R6*%
X118190000Y-77089000D03*
X120015000Y-77089000D03*
%TD*%
D29*
%TO.C,C15*%
X147861000Y-94996000D03*
X145161000Y-94996000D03*
%TD*%
D30*
%TO.C,Q2*%
X156277900Y-63527700D03*
X158177900Y-63527700D03*
X157227900Y-65402700D03*
%TD*%
D31*
%TO.C,C12*%
X153875100Y-65426800D03*
X153875100Y-68376800D03*
%TD*%
D32*
%TO.C,J2*%
X180746400Y-66090800D03*
D33*
X178206400Y-66090800D03*
%TD*%
D34*
%TO.C,J1*%
X179796400Y-82710400D03*
D35*
X179796400Y-84730400D03*
D36*
X179796400Y-85960400D03*
D37*
X179796400Y-83710400D03*
D38*
X179796400Y-81690400D03*
D39*
X179796400Y-80460400D03*
D40*
X183676400Y-78890400D03*
X179876400Y-78890400D03*
X183676400Y-87530400D03*
X179876400Y-87530400D03*
%TD*%
D41*
%TO.C,C1*%
X170481200Y-78740000D03*
X173431200Y-78740000D03*
%TD*%
D32*
%TO.C,J3*%
X122936000Y-79629000D03*
D33*
X125476000Y-79629000D03*
X122936000Y-77089000D03*
X125476000Y-77089000D03*
X122936000Y-74549000D03*
X125476000Y-74549000D03*
%TD*%
D42*
%TO.C,R9*%
X120142000Y-102696000D03*
X120142000Y-104521000D03*
%TD*%
D43*
%TO.C,U5*%
X149561700Y-66378600D03*
X149561700Y-64478600D03*
X151436700Y-65428600D03*
%TD*%
D44*
%TO.C,U2*%
X170484800Y-83281600D03*
X170484800Y-82331600D03*
X170484800Y-81381600D03*
X172759800Y-81381600D03*
X172759800Y-83281600D03*
%TD*%
D42*
%TO.C,R10*%
X122682000Y-102719500D03*
X122682000Y-104544500D03*
%TD*%
D45*
%TO.C,C10*%
X134823200Y-91404400D03*
X134823200Y-93304400D03*
%TD*%
D46*
%TO.C,D4*%
X182191900Y-91894900D03*
X182191900Y-90019900D03*
%TD*%
D47*
%TO.C,D1*%
X176174400Y-75209400D03*
X180174400Y-75209400D03*
%TD*%
D28*
%TO.C,R22*%
X159524100Y-105691700D03*
X161349100Y-105691700D03*
%TD*%
%TO.C,R24*%
X163783000Y-115316000D03*
X165608000Y-115316000D03*
%TD*%
D42*
%TO.C,R2*%
X183667400Y-74804900D03*
X183667400Y-76629900D03*
%TD*%
D48*
%TO.C,R5*%
X155749000Y-91440000D03*
X153924000Y-91440000D03*
%TD*%
D30*
%TO.C,U4*%
X153924000Y-94234000D03*
X155824000Y-94234000D03*
X154874000Y-96109000D03*
%TD*%
D21*
%TO.C,C14*%
X159486600Y-103456500D03*
X161386600Y-103456500D03*
%TD*%
D26*
%TO.C,C4*%
X170637200Y-59055000D03*
X168737200Y-59055000D03*
%TD*%
D42*
%TO.C,R11*%
X125222000Y-102696000D03*
X125222000Y-104521000D03*
%TD*%
%TO.C,R8*%
X117602000Y-102719500D03*
X117602000Y-104544500D03*
%TD*%
D49*
%TO.C,D3*%
X160375600Y-112623600D03*
X162250600Y-112623600D03*
%TD*%
D42*
%TO.C,R12*%
X127762000Y-102719500D03*
X127762000Y-104544500D03*
%TD*%
%TO.C,R21*%
X174625000Y-114634000D03*
X174625000Y-116459000D03*
%TD*%
D50*
%TO.C,U1*%
X141975600Y-87210400D03*
X141975600Y-86410400D03*
X141975600Y-85610400D03*
X141975600Y-84810400D03*
X141975600Y-84010400D03*
X141975600Y-83210400D03*
X141975600Y-82410400D03*
X141975600Y-81610400D03*
X141975600Y-80810400D03*
X141975600Y-80010400D03*
X141975600Y-79210400D03*
D51*
X143675600Y-77510400D03*
X144475600Y-77510400D03*
X145275600Y-77510400D03*
X146075600Y-77510400D03*
X146875600Y-77510400D03*
X147675600Y-77510400D03*
X148475600Y-77510400D03*
X149275600Y-77510400D03*
X150075600Y-77510400D03*
X150875600Y-77510400D03*
X151675600Y-77510400D03*
D50*
X153375600Y-79210400D03*
X153375600Y-80010400D03*
X153375600Y-80810400D03*
X153375600Y-81610400D03*
X153375600Y-82410400D03*
X153375600Y-83210400D03*
X153375600Y-84010400D03*
X153375600Y-84810400D03*
X153375600Y-85610400D03*
X153375600Y-86410400D03*
X153375600Y-87210400D03*
D51*
X151675600Y-88910400D03*
X150875600Y-88910400D03*
X150075600Y-88910400D03*
X149275600Y-88910400D03*
X148475600Y-88910400D03*
X147675600Y-88910400D03*
X146875600Y-88910400D03*
X146075600Y-88910400D03*
X145275600Y-88910400D03*
X144475600Y-88910400D03*
X143675600Y-88910400D03*
%TD*%
D30*
%TO.C,Q3*%
X159451000Y-108130100D03*
X161351000Y-108130100D03*
X160401000Y-110005100D03*
%TD*%
D31*
%TO.C,C13*%
X146915500Y-64514200D03*
X146915500Y-67464200D03*
%TD*%
D28*
%TO.C,R3*%
X163224200Y-63144400D03*
X165049200Y-63144400D03*
%TD*%
D22*
%TO.C,R15*%
X175158400Y-101955600D03*
X175158400Y-100130600D03*
%TD*%
D47*
%TO.C,D2*%
X163271200Y-66446400D03*
X167271200Y-66446400D03*
%TD*%
D52*
%TO.C,Q4*%
X166497000Y-119634000D03*
X164597000Y-119634000D03*
X165547000Y-117759000D03*
%TD*%
D44*
%TO.C,U3*%
X167340700Y-63158400D03*
X167340700Y-62208400D03*
X167340700Y-61258400D03*
X169615700Y-61258400D03*
X169615700Y-62208400D03*
X169615700Y-63158400D03*
%TD*%
D52*
%TO.C,Q1*%
X179156400Y-71701900D03*
X177256400Y-71701900D03*
X178206400Y-69826900D03*
%TD*%
D48*
%TO.C,R18*%
X158138500Y-88646000D03*
X156313500Y-88646000D03*
%TD*%
D28*
%TO.C,R19*%
X156298600Y-86395800D03*
X158123600Y-86395800D03*
%TD*%
%TO.C,R1*%
X172720000Y-85242400D03*
X174545000Y-85242400D03*
%TD*%
D48*
%TO.C,R20*%
X158140400Y-61010800D03*
X156315400Y-61010800D03*
%TD*%
D22*
%TO.C,R14*%
X172110400Y-99974400D03*
X172110400Y-98149400D03*
%TD*%
D28*
%TO.C,R7*%
X160961700Y-87223600D03*
X162786700Y-87223600D03*
%TD*%
D53*
%TO.C,C2*%
X175793400Y-81686400D03*
X175793400Y-78736400D03*
%TD*%
D48*
%TO.C,R17*%
X178964600Y-101955600D03*
X177139600Y-101955600D03*
%TD*%
D28*
%TO.C,R23*%
X155956000Y-80807800D03*
X157781000Y-80807800D03*
%TD*%
D25*
%TO.C,C9*%
X134823200Y-74356000D03*
X134823200Y-72456000D03*
%TD*%
D21*
%TO.C,C8*%
X160909000Y-82804000D03*
X162809000Y-82804000D03*
%TD*%
D48*
%TO.C,R16*%
X172110400Y-101955600D03*
X170285400Y-101955600D03*
%TD*%
D42*
%TO.C,R13*%
X130302000Y-102719500D03*
X130302000Y-104544500D03*
%TD*%
%TO.C,R25*%
X175920400Y-88139900D03*
X175920400Y-89964900D03*
%TD*%
D54*
%TO.C,Y1*%
X134823200Y-78706400D03*
X134823200Y-87206400D03*
%TD*%
%LPD*%
M02*
