%TF.GenerationSoftware,KiCad,Pcbnew,8.0.7*%
%TF.CreationDate,2024-12-15T20:11:50+01:00*%
%TF.ProjectId,transistor-tester,7472616e-7369-4737-946f-722d74657374,rev?*%
%TF.SameCoordinates,Original*%
%TF.FileFunction,Copper,L1,Top*%
%TF.FilePolarity,Positive*%
%FSLAX46Y46*%
G04 Gerber Fmt 4.6, Leading zero omitted, Abs format (unit mm)*
G04 Created by KiCad (PCBNEW 8.0.7) date 2024-12-15 20:11:50*
%MOMM*%
%LPD*%
G01*
G04 APERTURE LIST*
%TA.AperFunction,SMDPad,CuDef*%
%ADD10R,1.500000X1.500000*%
%TD*%
%TA.AperFunction,ComponentPad*%
%ADD11R,2.000000X2.000000*%
%TD*%
%TA.AperFunction,ComponentPad*%
%ADD12C,2.000000*%
%TD*%
%TA.AperFunction,ComponentPad*%
%ADD13R,2.500000X3.000000*%
%TD*%
%TA.AperFunction,SMDPad,CuDef*%
%ADD14R,3.000000X3.000000*%
%TD*%
%TA.AperFunction,ComponentPad*%
%ADD15C,4.000000*%
%TD*%
%TA.AperFunction,ComponentPad*%
%ADD16R,1.500000X1.500000*%
%TD*%
%TA.AperFunction,ComponentPad*%
%ADD17C,1.500000*%
%TD*%
%TA.AperFunction,ComponentPad*%
%ADD18R,1.440000X2.000000*%
%TD*%
%TA.AperFunction,ComponentPad*%
%ADD19O,1.440000X2.000000*%
%TD*%
%TA.AperFunction,ComponentPad*%
%ADD20R,1.700000X1.700000*%
%TD*%
%TA.AperFunction,ComponentPad*%
%ADD21O,1.700000X1.700000*%
%TD*%
%TA.AperFunction,ComponentPad*%
%ADD22O,1.700000X1.100000*%
%TD*%
%TA.AperFunction,ViaPad*%
%ADD23C,0.600000*%
%TD*%
%TA.AperFunction,Conductor*%
%ADD24C,0.600000*%
%TD*%
%TA.AperFunction,Conductor*%
%ADD25C,0.500000*%
%TD*%
%TA.AperFunction,Conductor*%
%ADD26C,0.400000*%
%TD*%
G04 APERTURE END LIST*
D10*
%TO.P,TP2,1,1*%
%TO.N,PA1*%
X154432000Y-119253000D03*
%TD*%
D11*
%TO.P,SW1,A,A*%
%TO.N,Net-(R15-Pad1)*%
X177125000Y-105145000D03*
D12*
%TO.P,SW1,B,B*%
%TO.N,Net-(R14-Pad1)*%
X172125000Y-105145000D03*
%TO.P,SW1,C,C*%
%TO.N,GND*%
X174625000Y-105145000D03*
D13*
%TO.P,SW1,MP*%
%TO.N,N/C*%
X180225000Y-112645000D03*
X169025000Y-112645000D03*
D12*
%TO.P,SW1,S1,S1*%
%TO.N,S1*%
X177125000Y-119645000D03*
%TO.P,SW1,S2,S2*%
%TO.N,Net-(Q4-B)*%
X172125000Y-119645000D03*
%TD*%
D10*
%TO.P,TP1,1,1*%
%TO.N,PA0*%
X151384000Y-119253000D03*
%TD*%
D14*
%TO.P,TP3,1,1*%
%TO.N,PA2*%
X152908000Y-115570000D03*
%TD*%
D15*
%TO.P,J7,*%
%TO.N,*%
X113792000Y-59236000D03*
X113792000Y-97536000D03*
X179292000Y-59236000D03*
X179292000Y-97536000D03*
D16*
%TO.P,J7,1,Pin_1*%
%TO.N,+5V*%
X113772000Y-69486000D03*
D17*
%TO.P,J7,2,Pin_2*%
%TO.N,GND*%
X113772000Y-72026000D03*
%TO.P,J7,3,Pin_3*%
%TO.N,MOSI*%
X113772000Y-74566000D03*
%TO.P,J7,4,Pin_4*%
%TO.N,SCK*%
X113772000Y-77106000D03*
%TO.P,J7,5,Pin_5*%
%TO.N,LCD_CS*%
X113772000Y-79646000D03*
%TO.P,J7,6,Pin_6*%
%TO.N,LCD_DC*%
X113772000Y-82186000D03*
%TO.P,J7,7,Pin_7*%
%TO.N,LCD_RES*%
X113772000Y-84726000D03*
%TO.P,J7,8,Pin_8*%
%TO.N,MISO*%
X113772000Y-87266000D03*
%TD*%
D16*
%TO.P,J5,1,Pin_1*%
%TO.N,PA0*%
X150368000Y-108585000D03*
D17*
%TO.P,J5,2,Pin_2*%
%TO.N,PA1*%
X152908000Y-108585000D03*
%TO.P,J5,3,Pin_3*%
%TO.N,PA2*%
X155448000Y-108585000D03*
%TD*%
D18*
%TO.P,J4,1,Pin_1*%
%TO.N,PA0*%
X120142000Y-116205000D03*
D19*
%TO.P,J4,2,Pin_2*%
%TO.N,PA1*%
X122682000Y-116205000D03*
%TO.P,J4,3,Pin_3*%
%TO.N,PA2*%
X125222000Y-116205000D03*
%TO.P,J4,4,Pin_4*%
X127762000Y-116205000D03*
%TO.P,J4,5,Pin_5*%
X130302000Y-116205000D03*
%TO.P,J4,6,Pin_6*%
X132842000Y-116205000D03*
%TO.P,J4,7,Pin_7*%
X135382000Y-116205000D03*
%TO.P,J4,8,Pin_8*%
X135382000Y-108585000D03*
%TO.P,J4,9,Pin_9*%
X132842000Y-108585000D03*
%TO.P,J4,10,Pin_10*%
X130302000Y-108585000D03*
%TO.P,J4,11,Pin_11*%
X127762000Y-108585000D03*
%TO.P,J4,12,Pin_12*%
X125222000Y-108585000D03*
%TO.P,J4,13,Pin_13*%
%TO.N,PA1*%
X122682000Y-108585000D03*
%TO.P,J4,14,Pin_14*%
%TO.N,PA0*%
X120142000Y-108585000D03*
%TD*%
D20*
%TO.P,J2,1,Pin_1*%
%TO.N,GND*%
X180746400Y-66090800D03*
D21*
%TO.P,J2,2,Pin_2*%
%TO.N,Net-(J2-Pin_2)*%
X178206400Y-66090800D03*
%TD*%
D22*
%TO.P,J1,S1,SHIELD*%
%TO.N,GND*%
X183676400Y-78890400D03*
X179876400Y-78890400D03*
X183676400Y-87530400D03*
X179876400Y-87530400D03*
%TD*%
D20*
%TO.P,J3,1,Pin_1*%
%TO.N,MISO*%
X122936000Y-79629000D03*
D21*
%TO.P,J3,2,Pin_2*%
%TO.N,SCK*%
X125476000Y-79629000D03*
%TO.P,J3,3,Pin_3*%
%TO.N,RESET*%
X122936000Y-77089000D03*
%TO.P,J3,4,Pin_4*%
%TO.N,GND*%
X125476000Y-77089000D03*
%TO.P,J3,5,Pin_5*%
%TO.N,MOSI*%
X122936000Y-74549000D03*
%TO.P,J3,6,Pin_6*%
%TO.N,+5V*%
X125476000Y-74549000D03*
%TD*%
D23*
%TO.N,Net-(J2-Pin_2)*%
X169672000Y-69215000D03*
%TO.N,GND*%
X157099000Y-94234000D03*
X148082000Y-66378600D03*
X159258000Y-86395800D03*
X151003000Y-84074000D03*
X161349100Y-106807000D03*
X150617000Y-73025000D03*
X174371000Y-78736400D03*
X162809000Y-83820000D03*
X134823200Y-70789800D03*
X146812000Y-87021800D03*
X163576000Y-59160400D03*
X144272000Y-82423000D03*
X134823200Y-94742000D03*
X168503200Y-60325000D03*
X174545000Y-83439000D03*
X163449000Y-119634000D03*
X171954400Y-73275400D03*
X146563000Y-93218000D03*
%TO.N,VCC*%
X173609000Y-75311000D03*
X165862000Y-89408000D03*
X158138500Y-90146500D03*
X167005000Y-75311000D03*
%TO.N,Net-(Q3-B)*%
X161925000Y-80899000D03*
X161925000Y-89154000D03*
%TO.N,S1*%
X163931600Y-112623600D03*
X174625000Y-117348000D03*
%TO.N,Net-(D4-K)*%
X171323000Y-91821000D03*
X180594000Y-91821000D03*
%TO.N,MISO*%
X140538600Y-86410400D03*
X122936000Y-83439000D03*
%TO.N,SCK*%
X139966400Y-85610400D03*
%TO.N,RESET*%
X140614600Y-84810400D03*
%TO.N,MOSI*%
X127190500Y-88074500D03*
X127508000Y-72009000D03*
X138938000Y-88011000D03*
%TO.N,PA1*%
X156591000Y-119253000D03*
%TO.N,PA0*%
X148590000Y-119253000D03*
%TO.N,LCD_RES*%
X144145000Y-92964000D03*
%TO.N,LCD_CS*%
X142885400Y-88910400D03*
%TO.N,LCD_DC*%
X144145000Y-90424000D03*
%TO.N,Net-(Q2-B)*%
X156845000Y-57404000D03*
X177038000Y-108331000D03*
%TO.N,BTN*%
X165608000Y-116459000D03*
X158686500Y-115887500D03*
X154813000Y-100457000D03*
X151385200Y-80645000D03*
%TO.N,Net-(U1-PC5)*%
X155321000Y-79375000D03*
X164211000Y-80391000D03*
%TO.N,PD2*%
X140081000Y-79248000D03*
X128778000Y-80010000D03*
%TO.N,PD3*%
X141732000Y-77470000D03*
X129911000Y-77851000D03*
%TO.N,PD4*%
X130511000Y-76073000D03*
X143510000Y-75565000D03*
%TO.N,PD5*%
X143510000Y-73279000D03*
X131111000Y-73406842D03*
%TO.N,PD6*%
X131711000Y-70612000D03*
X144399000Y-70231000D03*
%TO.N,PD7*%
X145542000Y-69215000D03*
X132461000Y-67691000D03*
%TO.N,PC4*%
X167386000Y-80264000D03*
X155067000Y-78232000D03*
%TO.N,PC3*%
X182626000Y-95504000D03*
X151638000Y-76073000D03*
X168529000Y-77724000D03*
X169989500Y-93916500D03*
%TD*%
D24*
%TO.N,Net-(J2-Pin_2)*%
X177165000Y-69215000D02*
X178206400Y-68173600D01*
X178206400Y-68173600D02*
X178206400Y-66090800D01*
X169672000Y-69215000D02*
X177165000Y-69215000D01*
%TO.N,VCC*%
X159305000Y-91313000D02*
X163957000Y-91313000D01*
X158138500Y-90146500D02*
X159305000Y-91313000D01*
X163957000Y-91313000D02*
X165862000Y-89408000D01*
X167005000Y-75311000D02*
X173609000Y-75311000D01*
D25*
%TO.N,Net-(Q3-B)*%
X161925000Y-89154000D02*
X161925000Y-80899000D01*
%TO.N,S1*%
X163931600Y-112623600D02*
X165328600Y-112623600D01*
X166370000Y-113665000D02*
X166370000Y-114427000D01*
X165328600Y-112623600D02*
X166370000Y-113665000D01*
X166370000Y-114427000D02*
X169291000Y-117348000D01*
X169291000Y-117348000D02*
X174625000Y-117348000D01*
%TO.N,Net-(D4-K)*%
X171323000Y-91821000D02*
X180594000Y-91821000D01*
D26*
%TO.N,MISO*%
X123571000Y-84074000D02*
X122936000Y-83439000D01*
X137972400Y-86410400D02*
X135636000Y-84074000D01*
X140538600Y-86410400D02*
X137972400Y-86410400D01*
X135636000Y-84074000D02*
X123571000Y-84074000D01*
%TO.N,SCK*%
X138950400Y-85610400D02*
X136525000Y-83185000D01*
X125476000Y-79629000D02*
X125476000Y-81407000D01*
X117348000Y-79121000D02*
X115333000Y-77106000D01*
X125476000Y-81407000D02*
X127254000Y-83185000D01*
X136525000Y-83185000D02*
X127254000Y-83185000D01*
X115333000Y-77106000D02*
X113772000Y-77106000D01*
X120523000Y-81407000D02*
X118237000Y-79121000D01*
X139966400Y-85610400D02*
X138950400Y-85610400D01*
X125476000Y-81407000D02*
X120523000Y-81407000D01*
X118237000Y-79121000D02*
X117348000Y-79121000D01*
%TO.N,RESET*%
X122936000Y-77089000D02*
X124226000Y-78379000D01*
X139547400Y-84810400D02*
X140614600Y-84810400D01*
X126990000Y-80762000D02*
X128651000Y-82423000D01*
X126990000Y-78867000D02*
X126980000Y-78867000D01*
X124226000Y-78379000D02*
X126492000Y-78379000D01*
X137160000Y-82423000D02*
X139547400Y-84810400D01*
X128651000Y-82423000D02*
X137160000Y-82423000D01*
X126990000Y-78867000D02*
X126990000Y-80762000D01*
X126980000Y-78867000D02*
X126492000Y-78379000D01*
%TO.N,MOSI*%
X123698000Y-72009000D02*
X122936000Y-72771000D01*
X128778000Y-89662000D02*
X127190500Y-88074500D01*
X122936000Y-74549000D02*
X113789000Y-74549000D01*
X127508000Y-72009000D02*
X123698000Y-72009000D01*
X138938000Y-88011000D02*
X137795000Y-88011000D01*
X122936000Y-72771000D02*
X122936000Y-74549000D01*
X136144000Y-89662000D02*
X128778000Y-89662000D01*
X137795000Y-88011000D02*
X136144000Y-89662000D01*
D25*
%TO.N,PA1*%
X152908000Y-108585000D02*
X152908000Y-109855000D01*
X151765000Y-110998000D02*
X123698000Y-110998000D01*
X152908000Y-109855000D02*
X151765000Y-110998000D01*
X154432000Y-119253000D02*
X156591000Y-119253000D01*
X122682000Y-109982000D02*
X122682000Y-108585000D01*
X123698000Y-110998000D02*
X122682000Y-109982000D01*
%TO.N,PA2*%
X135382000Y-108585000D02*
X132842000Y-108585000D01*
X152908000Y-114300000D02*
X155448000Y-111760000D01*
X130302000Y-116205000D02*
X127762000Y-116205000D01*
X132842000Y-116205000D02*
X130302000Y-116205000D01*
X127762000Y-108585000D02*
X125222000Y-108585000D01*
X135382000Y-116205000D02*
X132842000Y-116205000D01*
X152908000Y-115570000D02*
X152908000Y-114300000D01*
X127762000Y-116205000D02*
X125222000Y-116205000D01*
X130302000Y-108585000D02*
X127762000Y-108585000D01*
X143383000Y-116205000D02*
X135382000Y-116205000D01*
X144018000Y-115570000D02*
X143383000Y-116205000D01*
X132842000Y-108585000D02*
X130302000Y-108585000D01*
X155448000Y-111760000D02*
X155448000Y-108585000D01*
X152908000Y-115570000D02*
X144018000Y-115570000D01*
%TO.N,PA0*%
X121031000Y-119253000D02*
X120142000Y-118364000D01*
X148590000Y-119253000D02*
X121031000Y-119253000D01*
X148590000Y-119253000D02*
X151384000Y-119253000D01*
X120142000Y-118364000D02*
X120142000Y-116205000D01*
D26*
%TO.N,LCD_RES*%
X115587000Y-84726000D02*
X113772000Y-84726000D01*
X127254000Y-96393000D02*
X115587000Y-84726000D01*
X140208000Y-96393000D02*
X127254000Y-96393000D01*
X144145000Y-92964000D02*
X140843000Y-96266000D01*
X140335000Y-96266000D02*
X140208000Y-96393000D01*
X140843000Y-96266000D02*
X140335000Y-96266000D01*
%TO.N,LCD_CS*%
X142885400Y-88910400D02*
X140451600Y-88910400D01*
X140451600Y-88910400D02*
X138811000Y-90551000D01*
X119634000Y-83693000D02*
X115587000Y-79646000D01*
X127762000Y-90551000D02*
X120904000Y-83693000D01*
X138811000Y-90551000D02*
X127762000Y-90551000D01*
X120904000Y-83693000D02*
X119634000Y-83693000D01*
X115587000Y-79646000D02*
X113772000Y-79646000D01*
%TO.N,LCD_DC*%
X142367000Y-92202000D02*
X144145000Y-90424000D01*
X127000000Y-92202000D02*
X142367000Y-92202000D01*
X120142000Y-85344000D02*
X127000000Y-92202000D01*
X118491000Y-85344000D02*
X120142000Y-85344000D01*
X115333000Y-82186000D02*
X118491000Y-85344000D01*
X113772000Y-82186000D02*
X115333000Y-82186000D01*
D24*
%TO.N,Net-(Q2-B)*%
X181229000Y-108331000D02*
X177038000Y-108331000D01*
X184785000Y-104775000D02*
X181229000Y-108331000D01*
X182118000Y-92075000D02*
X184785000Y-94742000D01*
X156845000Y-57404000D02*
X158115000Y-56134000D01*
X183642000Y-58166000D02*
X183642000Y-70358000D01*
X182118000Y-71882000D02*
X182118000Y-92075000D01*
X158115000Y-56134000D02*
X181610000Y-56134000D01*
X183642000Y-70358000D02*
X182118000Y-71882000D01*
X181610000Y-56134000D02*
X183642000Y-58166000D01*
X184785000Y-94742000D02*
X184785000Y-104775000D01*
D26*
%TO.N,BTN*%
X154813000Y-100457000D02*
X153162000Y-98806000D01*
X153162000Y-98806000D02*
X153162000Y-88900000D01*
X150622000Y-80645000D02*
X151385200Y-80645000D01*
D25*
X165608000Y-116459000D02*
X159258000Y-116459000D01*
X159258000Y-116459000D02*
X158686500Y-115887500D01*
D26*
X153162000Y-88900000D02*
X149225000Y-84963000D01*
X149225000Y-82042000D02*
X150622000Y-80645000D01*
X149225000Y-84963000D02*
X149225000Y-82042000D01*
%TO.N,Net-(U1-PC5)*%
X163195000Y-79375000D02*
X164211000Y-80391000D01*
X155321000Y-79375000D02*
X163195000Y-79375000D01*
%TO.N,PD2*%
X129540000Y-79248000D02*
X140081000Y-79248000D01*
X128778000Y-80010000D02*
X129540000Y-79248000D01*
%TO.N,PD3*%
X130292000Y-77470000D02*
X129911000Y-77851000D01*
X141732000Y-77470000D02*
X130292000Y-77470000D01*
%TO.N,PD4*%
X143510000Y-75565000D02*
X131019000Y-75565000D01*
X131019000Y-75565000D02*
X130511000Y-76073000D01*
%TO.N,PD5*%
X131238842Y-73279000D02*
X143510000Y-73279000D01*
X131111000Y-73406842D02*
X131238842Y-73279000D01*
%TO.N,PD6*%
X143510000Y-69342000D02*
X133096000Y-69342000D01*
X144399000Y-70231000D02*
X143510000Y-69342000D01*
X131826000Y-70612000D02*
X131711000Y-70612000D01*
X133096000Y-69342000D02*
X131826000Y-70612000D01*
%TO.N,PD7*%
X132461000Y-67691000D02*
X144018000Y-67691000D01*
X144018000Y-67691000D02*
X145542000Y-69215000D01*
%TO.N,PC4*%
X167386000Y-79121000D02*
X167386000Y-80264000D01*
X155067000Y-78232000D02*
X166497000Y-78232000D01*
X166497000Y-78232000D02*
X167386000Y-79121000D01*
%TO.N,PC3*%
X168529000Y-77724000D02*
X168529000Y-77470000D01*
X168529000Y-77470000D02*
X167640000Y-76581000D01*
X181102000Y-93980000D02*
X182626000Y-95504000D01*
X167640000Y-76581000D02*
X159893000Y-76581000D01*
X169989500Y-93916500D02*
X170053000Y-93980000D01*
X170053000Y-93980000D02*
X181102000Y-93980000D01*
X159893000Y-76581000D02*
X159385000Y-76073000D01*
X151638000Y-76073000D02*
X159385000Y-76073000D01*
%TD*%
%TA.AperFunction,Conductor*%
%TO.N,GND*%
G36*
X183773028Y-54856764D02*
G01*
X184010540Y-54872331D01*
X184026596Y-54874446D01*
X184256026Y-54920082D01*
X184271681Y-54924277D01*
X184493190Y-54999469D01*
X184508162Y-55005670D01*
X184659667Y-55080384D01*
X184717960Y-55109131D01*
X184732007Y-55117241D01*
X184926502Y-55247199D01*
X184939366Y-55257070D01*
X185115231Y-55411299D01*
X185126700Y-55422768D01*
X185280929Y-55598633D01*
X185290803Y-55611501D01*
X185420758Y-55805992D01*
X185428868Y-55820039D01*
X185532326Y-56029830D01*
X185538533Y-56044816D01*
X185613720Y-56266312D01*
X185617918Y-56281979D01*
X185663552Y-56511398D01*
X185665669Y-56527479D01*
X185681234Y-56764941D01*
X185681500Y-56773051D01*
X185681500Y-94452459D01*
X185661815Y-94519498D01*
X185609011Y-94565253D01*
X185539853Y-94575197D01*
X185476297Y-94546172D01*
X185442939Y-94499911D01*
X185405776Y-94410192D01*
X185405775Y-94410189D01*
X185329114Y-94295457D01*
X185329112Y-94295454D01*
X182854819Y-91821161D01*
X182821334Y-91759838D01*
X182818500Y-91733480D01*
X182818500Y-88513162D01*
X182838185Y-88446123D01*
X182890989Y-88400368D01*
X182960147Y-88390424D01*
X182989953Y-88398601D01*
X183099294Y-88443891D01*
X183099302Y-88443893D01*
X183282828Y-88480399D01*
X183282831Y-88480400D01*
X183426400Y-88480400D01*
X183426400Y-87830400D01*
X183926400Y-87830400D01*
X183926400Y-88480400D01*
X184069969Y-88480400D01*
X184069971Y-88480399D01*
X184253497Y-88443893D01*
X184253505Y-88443891D01*
X184426391Y-88372280D01*
X184426400Y-88372275D01*
X184581989Y-88268313D01*
X184581993Y-88268310D01*
X184714310Y-88135993D01*
X184714313Y-88135989D01*
X184818275Y-87980400D01*
X184818280Y-87980391D01*
X184889892Y-87807503D01*
X184889893Y-87807500D01*
X184895284Y-87780400D01*
X184143388Y-87780400D01*
X184160605Y-87770460D01*
X184216460Y-87714605D01*
X184255956Y-87646196D01*
X184276400Y-87569896D01*
X184276400Y-87490904D01*
X184255956Y-87414604D01*
X184216460Y-87346195D01*
X184160605Y-87290340D01*
X184143388Y-87280400D01*
X184895284Y-87280400D01*
X184895284Y-87280399D01*
X184889893Y-87253299D01*
X184889892Y-87253296D01*
X184818280Y-87080408D01*
X184818275Y-87080399D01*
X184714313Y-86924810D01*
X184714310Y-86924806D01*
X184581993Y-86792489D01*
X184581989Y-86792486D01*
X184426400Y-86688524D01*
X184426391Y-86688519D01*
X184253505Y-86616908D01*
X184253497Y-86616906D01*
X184069970Y-86580400D01*
X183926400Y-86580400D01*
X183926400Y-87230400D01*
X183426400Y-87230400D01*
X183426400Y-86580400D01*
X183282830Y-86580400D01*
X183099302Y-86616906D01*
X183099290Y-86616909D01*
X182989952Y-86662198D01*
X182920482Y-86669667D01*
X182858003Y-86638391D01*
X182822352Y-86578302D01*
X182818500Y-86547637D01*
X182818500Y-79873162D01*
X182838185Y-79806123D01*
X182890989Y-79760368D01*
X182960147Y-79750424D01*
X182989953Y-79758601D01*
X183099294Y-79803891D01*
X183099302Y-79803893D01*
X183282828Y-79840399D01*
X183282831Y-79840400D01*
X183426400Y-79840400D01*
X183426400Y-79190400D01*
X183926400Y-79190400D01*
X183926400Y-79840400D01*
X184069969Y-79840400D01*
X184069971Y-79840399D01*
X184253497Y-79803893D01*
X184253505Y-79803891D01*
X184426391Y-79732280D01*
X184426400Y-79732275D01*
X184581989Y-79628313D01*
X184581993Y-79628310D01*
X184714310Y-79495993D01*
X184714313Y-79495989D01*
X184818275Y-79340400D01*
X184818280Y-79340391D01*
X184889892Y-79167503D01*
X184889893Y-79167500D01*
X184895284Y-79140400D01*
X184143388Y-79140400D01*
X184160605Y-79130460D01*
X184216460Y-79074605D01*
X184255956Y-79006196D01*
X184276400Y-78929896D01*
X184276400Y-78850904D01*
X184255956Y-78774604D01*
X184216460Y-78706195D01*
X184160605Y-78650340D01*
X184143388Y-78640400D01*
X184895284Y-78640400D01*
X184895284Y-78640399D01*
X184889893Y-78613299D01*
X184889892Y-78613296D01*
X184818280Y-78440408D01*
X184818275Y-78440399D01*
X184714313Y-78284810D01*
X184714310Y-78284806D01*
X184581993Y-78152489D01*
X184581989Y-78152486D01*
X184426400Y-78048524D01*
X184426391Y-78048519D01*
X184253505Y-77976908D01*
X184253497Y-77976906D01*
X184069970Y-77940400D01*
X183926400Y-77940400D01*
X183926400Y-78590400D01*
X183426400Y-78590400D01*
X183426400Y-77940400D01*
X183282830Y-77940400D01*
X183099302Y-77976906D01*
X183099290Y-77976909D01*
X182989952Y-78022198D01*
X182920482Y-78029667D01*
X182858003Y-77998391D01*
X182822352Y-77938302D01*
X182818500Y-77907637D01*
X182818500Y-72223518D01*
X182838185Y-72156479D01*
X182854819Y-72135837D01*
X183464656Y-71526000D01*
X184186113Y-70804543D01*
X184201929Y-70780874D01*
X184201932Y-70780870D01*
X184249962Y-70708987D01*
X184262775Y-70689811D01*
X184295005Y-70612000D01*
X184315580Y-70562329D01*
X184320896Y-70535598D01*
X184326262Y-70508628D01*
X184326262Y-70508625D01*
X184342500Y-70426993D01*
X184342500Y-58097007D01*
X184342500Y-58097004D01*
X184315581Y-57961677D01*
X184315580Y-57961676D01*
X184315580Y-57961672D01*
X184309963Y-57948112D01*
X184262776Y-57834191D01*
X184254785Y-57822232D01*
X184194448Y-57731930D01*
X184186114Y-57719457D01*
X184186112Y-57719454D01*
X182056545Y-55589887D01*
X181941807Y-55513222D01*
X181814332Y-55460421D01*
X181814322Y-55460418D01*
X181678996Y-55433500D01*
X181678994Y-55433500D01*
X181678993Y-55433500D01*
X158046007Y-55433500D01*
X158046003Y-55433500D01*
X157937590Y-55455065D01*
X157937589Y-55455065D01*
X157910681Y-55460418D01*
X157910671Y-55460420D01*
X157783190Y-55513224D01*
X157668454Y-55589887D01*
X156367290Y-56891051D01*
X156361838Y-56896183D01*
X156316820Y-56936067D01*
X156316815Y-56936072D01*
X156311054Y-56944418D01*
X156304386Y-56952452D01*
X156304748Y-56952749D01*
X156300890Y-56957450D01*
X156265982Y-57009692D01*
X156264931Y-57011239D01*
X156220183Y-57076068D01*
X156220181Y-57076071D01*
X156194436Y-57143953D01*
X156193058Y-57147428D01*
X156171419Y-57199673D01*
X156171418Y-57199678D01*
X156171353Y-57200006D01*
X156165680Y-57219781D01*
X156159859Y-57235129D01*
X156153361Y-57288643D01*
X156151883Y-57297882D01*
X156144500Y-57335004D01*
X156144500Y-57354125D01*
X156143596Y-57369071D01*
X156139355Y-57403999D01*
X156143596Y-57438926D01*
X156144500Y-57453873D01*
X156144500Y-57472998D01*
X156151883Y-57510120D01*
X156153361Y-57519358D01*
X156159859Y-57572870D01*
X156159860Y-57572871D01*
X156165678Y-57588212D01*
X156171354Y-57607995D01*
X156171420Y-57608327D01*
X156171420Y-57608329D01*
X156193046Y-57660538D01*
X156194427Y-57664019D01*
X156220182Y-57731930D01*
X156264972Y-57796820D01*
X156266024Y-57798369D01*
X156300885Y-57850542D01*
X156304751Y-57855253D01*
X156304371Y-57855564D01*
X156311061Y-57863591D01*
X156316812Y-57871923D01*
X156316815Y-57871927D01*
X156316816Y-57871928D01*
X156316821Y-57871933D01*
X156361827Y-57911804D01*
X156367283Y-57916940D01*
X156398452Y-57948110D01*
X156398456Y-57948113D01*
X156409160Y-57955266D01*
X156422491Y-57965549D01*
X156444143Y-57984730D01*
X156444151Y-57984736D01*
X156480835Y-58003990D01*
X156492096Y-58010682D01*
X156513180Y-58024769D01*
X156513189Y-58024775D01*
X156513195Y-58024777D01*
X156513196Y-58024778D01*
X156542389Y-58036870D01*
X156552559Y-58041633D01*
X156567093Y-58049261D01*
X156594772Y-58063789D01*
X156594774Y-58063789D01*
X156594775Y-58063790D01*
X156608457Y-58067162D01*
X156616791Y-58069216D01*
X156634571Y-58075052D01*
X156640672Y-58077580D01*
X156690037Y-58087399D01*
X156695463Y-58088607D01*
X156759944Y-58104500D01*
X156930058Y-58104500D01*
X156930058Y-58104499D01*
X156994522Y-58088610D01*
X156999960Y-58087399D01*
X157049328Y-58077580D01*
X157055429Y-58075052D01*
X157073212Y-58069215D01*
X157095217Y-58063792D01*
X157095217Y-58063791D01*
X157095225Y-58063790D01*
X157137449Y-58041628D01*
X157147610Y-58036870D01*
X157176811Y-58024775D01*
X157197913Y-58010674D01*
X157209166Y-58003988D01*
X157245852Y-57984734D01*
X157267510Y-57965545D01*
X157280833Y-57955269D01*
X157291543Y-57948114D01*
X157322738Y-57916917D01*
X157328141Y-57911831D01*
X157373183Y-57871929D01*
X157378943Y-57863582D01*
X157393302Y-57846353D01*
X158368838Y-56870819D01*
X158430161Y-56837334D01*
X158456519Y-56834500D01*
X178194527Y-56834500D01*
X178261566Y-56854185D01*
X178307321Y-56906989D01*
X178317265Y-56976147D01*
X178288240Y-57039703D01*
X178254265Y-57067161D01*
X178114583Y-57143953D01*
X178003205Y-57205184D01*
X178003193Y-57205191D01*
X177758846Y-57382719D01*
X177758836Y-57382727D01*
X177538652Y-57589494D01*
X177346111Y-57822236D01*
X177184268Y-58077261D01*
X177184265Y-58077267D01*
X177055661Y-58350563D01*
X177055659Y-58350568D01*
X176962320Y-58637835D01*
X176905719Y-58934546D01*
X176905718Y-58934553D01*
X176886754Y-59235994D01*
X176886754Y-59236005D01*
X176905718Y-59537446D01*
X176905719Y-59537453D01*
X176962320Y-59834164D01*
X177055659Y-60121431D01*
X177055661Y-60121436D01*
X177184265Y-60394732D01*
X177184268Y-60394738D01*
X177346111Y-60649763D01*
X177538652Y-60882505D01*
X177758836Y-61089272D01*
X177758846Y-61089280D01*
X178003193Y-61266808D01*
X178003198Y-61266810D01*
X178003205Y-61266816D01*
X178267896Y-61412332D01*
X178267901Y-61412334D01*
X178267903Y-61412335D01*
X178267904Y-61412336D01*
X178548734Y-61523524D01*
X178548737Y-61523525D01*
X178646259Y-61548564D01*
X178841302Y-61598642D01*
X178988039Y-61617179D01*
X179140963Y-61636499D01*
X179140969Y-61636499D01*
X179140973Y-61636500D01*
X179140975Y-61636500D01*
X179443025Y-61636500D01*
X179443027Y-61636500D01*
X179443032Y-61636499D01*
X179443036Y-61636499D01*
X179522591Y-61626448D01*
X179742698Y-61598642D01*
X180035262Y-61523525D01*
X180035265Y-61523524D01*
X180316095Y-61412336D01*
X180316096Y-61412335D01*
X180316094Y-61412335D01*
X180316104Y-61412332D01*
X180580795Y-61266816D01*
X180825162Y-61089274D01*
X181045349Y-60882504D01*
X181237885Y-60649768D01*
X181399733Y-60394736D01*
X181528341Y-60121430D01*
X181621681Y-59834160D01*
X181678280Y-59537457D01*
X181697246Y-59236000D01*
X181678280Y-58934543D01*
X181621681Y-58637840D01*
X181528341Y-58350570D01*
X181399733Y-58077264D01*
X181328837Y-57965549D01*
X181237888Y-57822236D01*
X181237885Y-57822232D01*
X181045349Y-57589496D01*
X180825162Y-57382726D01*
X180825159Y-57382724D01*
X180825153Y-57382719D01*
X180580806Y-57205191D01*
X180580799Y-57205186D01*
X180580795Y-57205184D01*
X180329734Y-57067161D01*
X180280471Y-57017616D01*
X180265815Y-56949300D01*
X180290419Y-56883906D01*
X180346472Y-56842195D01*
X180389473Y-56834500D01*
X181268481Y-56834500D01*
X181335520Y-56854185D01*
X181356162Y-56870819D01*
X182905181Y-58419838D01*
X182938666Y-58481161D01*
X182941500Y-58507519D01*
X182941500Y-70016480D01*
X182921815Y-70083519D01*
X182905181Y-70104161D01*
X181573888Y-71435453D01*
X181573887Y-71435454D01*
X181497222Y-71550192D01*
X181444421Y-71677667D01*
X181444418Y-71677679D01*
X181424620Y-71777213D01*
X181424620Y-71777216D01*
X181417500Y-71813006D01*
X181417500Y-91382980D01*
X181397815Y-91450019D01*
X181345011Y-91495774D01*
X181275853Y-91505718D01*
X181212297Y-91476693D01*
X181191451Y-91453421D01*
X181122184Y-91353072D01*
X180994849Y-91240263D01*
X180844226Y-91161210D01*
X180679056Y-91120500D01*
X180508944Y-91120500D01*
X180343776Y-91161209D01*
X180340527Y-91162442D01*
X180296555Y-91170500D01*
X171620445Y-91170500D01*
X171576473Y-91162442D01*
X171573223Y-91161209D01*
X171408056Y-91120500D01*
X171237944Y-91120500D01*
X171072773Y-91161210D01*
X170922150Y-91240263D01*
X170794816Y-91353072D01*
X170698182Y-91493068D01*
X170637860Y-91652125D01*
X170637859Y-91652130D01*
X170617355Y-91821000D01*
X170637859Y-91989869D01*
X170637860Y-91989874D01*
X170698182Y-92148931D01*
X170736900Y-92205023D01*
X170794817Y-92288929D01*
X170900505Y-92382560D01*
X170922150Y-92401736D01*
X171070428Y-92479558D01*
X171072775Y-92480790D01*
X171237944Y-92521500D01*
X171408056Y-92521500D01*
X171573225Y-92480790D01*
X171573230Y-92480787D01*
X171576473Y-92479558D01*
X171620445Y-92471500D01*
X180296555Y-92471500D01*
X180340527Y-92479558D01*
X180343772Y-92480788D01*
X180343775Y-92480790D01*
X180508944Y-92521500D01*
X180679056Y-92521500D01*
X180844225Y-92480790D01*
X180985179Y-92406811D01*
X180994849Y-92401736D01*
X180994850Y-92401734D01*
X180994852Y-92401734D01*
X181122183Y-92288929D01*
X181207327Y-92165577D01*
X181261608Y-92121589D01*
X181331056Y-92113929D01*
X181393621Y-92145032D01*
X181429439Y-92205023D01*
X181430992Y-92211826D01*
X181444418Y-92279323D01*
X181444421Y-92279332D01*
X181497222Y-92406807D01*
X181573887Y-92521545D01*
X181573888Y-92521546D01*
X184048181Y-94995838D01*
X184081666Y-95057161D01*
X184084500Y-95083519D01*
X184084500Y-104433481D01*
X184064815Y-104500520D01*
X184048181Y-104521162D01*
X180975162Y-107594181D01*
X180913839Y-107627666D01*
X180887481Y-107630500D01*
X176952940Y-107630500D01*
X176888486Y-107646386D01*
X176883006Y-107647606D01*
X176833673Y-107657419D01*
X176827566Y-107659949D01*
X176809797Y-107665781D01*
X176787776Y-107671209D01*
X176745561Y-107693365D01*
X176735393Y-107698127D01*
X176706187Y-107710225D01*
X176685091Y-107724320D01*
X176673837Y-107731008D01*
X176637147Y-107750266D01*
X176637144Y-107750268D01*
X176615486Y-107769454D01*
X176602166Y-107779729D01*
X176591464Y-107786880D01*
X176591458Y-107786886D01*
X176560287Y-107818055D01*
X176554838Y-107823183D01*
X176509820Y-107863067D01*
X176504053Y-107871421D01*
X176497391Y-107879447D01*
X176497753Y-107879744D01*
X176493887Y-107884455D01*
X176459023Y-107936631D01*
X176457973Y-107938177D01*
X176413185Y-108003063D01*
X176413181Y-108003071D01*
X176387436Y-108070953D01*
X176386058Y-108074428D01*
X176364419Y-108126673D01*
X176364418Y-108126678D01*
X176364353Y-108127006D01*
X176358680Y-108146781D01*
X176352859Y-108162129D01*
X176346362Y-108215640D01*
X176344884Y-108224881D01*
X176337500Y-108262006D01*
X176337500Y-108281125D01*
X176336596Y-108296071D01*
X176332355Y-108330999D01*
X176336596Y-108365926D01*
X176337500Y-108380873D01*
X176337500Y-108399993D01*
X176344759Y-108436489D01*
X176344882Y-108437105D01*
X176346360Y-108446347D01*
X176352859Y-108499870D01*
X176352860Y-108499872D01*
X176358678Y-108515212D01*
X176364354Y-108534995D01*
X176364420Y-108535327D01*
X176364420Y-108535329D01*
X176386046Y-108587538D01*
X176387427Y-108591019D01*
X176413182Y-108658930D01*
X176413183Y-108658931D01*
X176457983Y-108723836D01*
X176459035Y-108725385D01*
X176493885Y-108777541D01*
X176497751Y-108782252D01*
X176497371Y-108782563D01*
X176504061Y-108790590D01*
X176509817Y-108798929D01*
X176509817Y-108798930D01*
X176554845Y-108838821D01*
X176560299Y-108843955D01*
X176591458Y-108875114D01*
X176602154Y-108882261D01*
X176615485Y-108892543D01*
X176637148Y-108911734D01*
X176637150Y-108911735D01*
X176637151Y-108911736D01*
X176673836Y-108930990D01*
X176685097Y-108937681D01*
X176706189Y-108951775D01*
X176735398Y-108963874D01*
X176745559Y-108968633D01*
X176760093Y-108976261D01*
X176787772Y-108990789D01*
X176787774Y-108990789D01*
X176787775Y-108990790D01*
X176801457Y-108994162D01*
X176809791Y-108996216D01*
X176827571Y-109002052D01*
X176833672Y-109004580D01*
X176883023Y-109014396D01*
X176888473Y-109015609D01*
X176952944Y-109031500D01*
X176952945Y-109031500D01*
X181297996Y-109031500D01*
X181389040Y-109013389D01*
X181433328Y-109004580D01*
X181526418Y-108966021D01*
X181560807Y-108951777D01*
X181560808Y-108951776D01*
X181560811Y-108951775D01*
X181675543Y-108875114D01*
X185329113Y-105221543D01*
X185405774Y-105106812D01*
X185405775Y-105106811D01*
X185442939Y-105017087D01*
X185486780Y-104962685D01*
X185553074Y-104940620D01*
X185620773Y-104957899D01*
X185668384Y-105009036D01*
X185681500Y-105064541D01*
X185681500Y-119883948D01*
X185681234Y-119892058D01*
X185665669Y-120129520D01*
X185663552Y-120145601D01*
X185617918Y-120375020D01*
X185613720Y-120390687D01*
X185538533Y-120612183D01*
X185532326Y-120627169D01*
X185428868Y-120836960D01*
X185420758Y-120851007D01*
X185290803Y-121045498D01*
X185280929Y-121058366D01*
X185126700Y-121234231D01*
X185115231Y-121245700D01*
X184939366Y-121399929D01*
X184926498Y-121409803D01*
X184732007Y-121539758D01*
X184717960Y-121547868D01*
X184508169Y-121651326D01*
X184493183Y-121657533D01*
X184271687Y-121732720D01*
X184256020Y-121736918D01*
X184026601Y-121782552D01*
X184010520Y-121784669D01*
X183773058Y-121800234D01*
X183764948Y-121800500D01*
X111383052Y-121800500D01*
X111374942Y-121800234D01*
X111137479Y-121784669D01*
X111121398Y-121782552D01*
X110891979Y-121736918D01*
X110876312Y-121732720D01*
X110654816Y-121657533D01*
X110639830Y-121651326D01*
X110430039Y-121547868D01*
X110415992Y-121539758D01*
X110221501Y-121409803D01*
X110208633Y-121399929D01*
X110032768Y-121245700D01*
X110021299Y-121234231D01*
X109867070Y-121058366D01*
X109857196Y-121045498D01*
X109781317Y-120931938D01*
X109727241Y-120851007D01*
X109719131Y-120836960D01*
X109641193Y-120678918D01*
X109615670Y-120627162D01*
X109609469Y-120612190D01*
X109534277Y-120390681D01*
X109530081Y-120375020D01*
X109521334Y-120331048D01*
X109484446Y-120145596D01*
X109482331Y-120129540D01*
X109466764Y-119892028D01*
X109466500Y-119883948D01*
X109466500Y-115173475D01*
X119021500Y-115173475D01*
X119021500Y-117236517D01*
X119032292Y-117304657D01*
X119036354Y-117330304D01*
X119093950Y-117443342D01*
X119093952Y-117443344D01*
X119093954Y-117443347D01*
X119183652Y-117533045D01*
X119183654Y-117533046D01*
X119183658Y-117533050D01*
X119296694Y-117590645D01*
X119296698Y-117590647D01*
X119386898Y-117604933D01*
X119450032Y-117634862D01*
X119486964Y-117694173D01*
X119491500Y-117727406D01*
X119491500Y-118428069D01*
X119500136Y-118471481D01*
X119500136Y-118471484D01*
X119516497Y-118553736D01*
X119516499Y-118553744D01*
X119565534Y-118672125D01*
X119636726Y-118778673D01*
X120616328Y-119758275D01*
X120691123Y-119808251D01*
X120691122Y-119808251D01*
X120711862Y-119822108D01*
X120722873Y-119829465D01*
X120841256Y-119878501D01*
X120841260Y-119878501D01*
X120841261Y-119878502D01*
X120966928Y-119903500D01*
X120966931Y-119903500D01*
X148292555Y-119903500D01*
X148336527Y-119911558D01*
X148339772Y-119912788D01*
X148339775Y-119912790D01*
X148504944Y-119953500D01*
X148675056Y-119953500D01*
X148840225Y-119912790D01*
X148840230Y-119912787D01*
X148843473Y-119911558D01*
X148887445Y-119903500D01*
X150109501Y-119903500D01*
X150176540Y-119923185D01*
X150222295Y-119975989D01*
X150233501Y-120027500D01*
X150233501Y-120034518D01*
X150248354Y-120128304D01*
X150305950Y-120241342D01*
X150305952Y-120241344D01*
X150305954Y-120241347D01*
X150395652Y-120331045D01*
X150395654Y-120331046D01*
X150395658Y-120331050D01*
X150508694Y-120388645D01*
X150508698Y-120388647D01*
X150602475Y-120403499D01*
X150602481Y-120403500D01*
X152165518Y-120403499D01*
X152259304Y-120388646D01*
X152372342Y-120331050D01*
X152462050Y-120241342D01*
X152519646Y-120128304D01*
X152519646Y-120128302D01*
X152519647Y-120128301D01*
X152534499Y-120034524D01*
X152534500Y-120034519D01*
X152534499Y-118471482D01*
X152534498Y-118471475D01*
X153281500Y-118471475D01*
X153281500Y-120034517D01*
X153284209Y-120051619D01*
X153296354Y-120128304D01*
X153353950Y-120241342D01*
X153353952Y-120241344D01*
X153353954Y-120241347D01*
X153443652Y-120331045D01*
X153443654Y-120331046D01*
X153443658Y-120331050D01*
X153556694Y-120388645D01*
X153556698Y-120388647D01*
X153650475Y-120403499D01*
X153650481Y-120403500D01*
X155213518Y-120403499D01*
X155307304Y-120388646D01*
X155420342Y-120331050D01*
X155510050Y-120241342D01*
X155567646Y-120128304D01*
X155567646Y-120128302D01*
X155567647Y-120128301D01*
X155582500Y-120034524D01*
X155582500Y-120027500D01*
X155602185Y-119960461D01*
X155654989Y-119914706D01*
X155706500Y-119903500D01*
X156293555Y-119903500D01*
X156337527Y-119911558D01*
X156340772Y-119912788D01*
X156340775Y-119912790D01*
X156505944Y-119953500D01*
X156676056Y-119953500D01*
X156841225Y-119912790D01*
X156920692Y-119871081D01*
X156991849Y-119833736D01*
X156991850Y-119833734D01*
X156991852Y-119833734D01*
X157119183Y-119720929D01*
X157215818Y-119580930D01*
X157276140Y-119421872D01*
X157296645Y-119253000D01*
X157276140Y-119084128D01*
X157215818Y-118925070D01*
X157119183Y-118785071D01*
X156991852Y-118672266D01*
X156991849Y-118672263D01*
X156841226Y-118593210D01*
X156676056Y-118552500D01*
X156505944Y-118552500D01*
X156340776Y-118593209D01*
X156337527Y-118594442D01*
X156293555Y-118602500D01*
X155706499Y-118602500D01*
X155639460Y-118582815D01*
X155593705Y-118530011D01*
X155582499Y-118478500D01*
X155582499Y-118471481D01*
X155580712Y-118460201D01*
X155567646Y-118377696D01*
X155510050Y-118264658D01*
X155510046Y-118264654D01*
X155510045Y-118264652D01*
X155420347Y-118174954D01*
X155420344Y-118174952D01*
X155420342Y-118174950D01*
X155343517Y-118135805D01*
X155307301Y-118117352D01*
X155213524Y-118102500D01*
X153650482Y-118102500D01*
X153569519Y-118115323D01*
X153556696Y-118117354D01*
X153443658Y-118174950D01*
X153443657Y-118174951D01*
X153443652Y-118174954D01*
X153353954Y-118264652D01*
X153353951Y-118264657D01*
X153296352Y-118377698D01*
X153281500Y-118471475D01*
X152534498Y-118471475D01*
X152534031Y-118468530D01*
X152532712Y-118460201D01*
X152519646Y-118377696D01*
X152462050Y-118264658D01*
X152462046Y-118264654D01*
X152462045Y-118264652D01*
X152372347Y-118174954D01*
X152372344Y-118174952D01*
X152372342Y-118174950D01*
X152295517Y-118135805D01*
X152259301Y-118117352D01*
X152165524Y-118102500D01*
X150602482Y-118102500D01*
X150521519Y-118115323D01*
X150508696Y-118117354D01*
X150395658Y-118174950D01*
X150395657Y-118174951D01*
X150395652Y-118174954D01*
X150305954Y-118264652D01*
X150305951Y-118264657D01*
X150248352Y-118377698D01*
X150233500Y-118471475D01*
X150233500Y-118478500D01*
X150213815Y-118545539D01*
X150161011Y-118591294D01*
X150109500Y-118602500D01*
X148887445Y-118602500D01*
X148843473Y-118594442D01*
X148840223Y-118593209D01*
X148675056Y-118552500D01*
X148504944Y-118552500D01*
X148339776Y-118593209D01*
X148336527Y-118594442D01*
X148292555Y-118602500D01*
X121351808Y-118602500D01*
X121284769Y-118582815D01*
X121264127Y-118566181D01*
X120828819Y-118130873D01*
X120795334Y-118069550D01*
X120792500Y-118043192D01*
X120792500Y-117727405D01*
X120812185Y-117660366D01*
X120864989Y-117614611D01*
X120897101Y-117604931D01*
X120987304Y-117590646D01*
X121100342Y-117533050D01*
X121190050Y-117443342D01*
X121247646Y-117330304D01*
X121247646Y-117330302D01*
X121247647Y-117330301D01*
X121262499Y-117236524D01*
X121262500Y-117236519D01*
X121262499Y-115836809D01*
X121561500Y-115836809D01*
X121561500Y-116573190D01*
X121589089Y-116747384D01*
X121643593Y-116915127D01*
X121697064Y-117020068D01*
X121723662Y-117072270D01*
X121827330Y-117214957D01*
X121952043Y-117339670D01*
X122094730Y-117443338D01*
X122148037Y-117470499D01*
X122251872Y-117523406D01*
X122251874Y-117523406D01*
X122251877Y-117523408D01*
X122341788Y-117552622D01*
X122419615Y-117577910D01*
X122593810Y-117605500D01*
X122593815Y-117605500D01*
X122770190Y-117605500D01*
X122944384Y-117577910D01*
X123112123Y-117523408D01*
X123269270Y-117443338D01*
X123411957Y-117339670D01*
X123536670Y-117214957D01*
X123640338Y-117072270D01*
X123720408Y-116915123D01*
X123774910Y-116747384D01*
X123780787Y-116710277D01*
X123802500Y-116573190D01*
X123802500Y-115836809D01*
X124101500Y-115836809D01*
X124101500Y-116573190D01*
X124129089Y-116747384D01*
X124183593Y-116915127D01*
X124237064Y-117020068D01*
X124263662Y-117072270D01*
X124367330Y-117214957D01*
X124492043Y-117339670D01*
X124634730Y-117443338D01*
X124688037Y-117470499D01*
X124791872Y-117523406D01*
X124791874Y-117523406D01*
X124791877Y-117523408D01*
X124881788Y-117552622D01*
X124959615Y-117577910D01*
X125133810Y-117605500D01*
X125133815Y-117605500D01*
X125310190Y-117605500D01*
X125484384Y-117577910D01*
X125652123Y-117523408D01*
X125809270Y-117443338D01*
X125951957Y-117339670D01*
X126076670Y-117214957D01*
X126180338Y-117072270D01*
X126256290Y-116923204D01*
X126304264Y-116872409D01*
X126366775Y-116855500D01*
X126617225Y-116855500D01*
X126684264Y-116875185D01*
X126727709Y-116923204D01*
X126803662Y-117072270D01*
X126907330Y-117214957D01*
X127032043Y-117339670D01*
X127174730Y-117443338D01*
X127228037Y-117470499D01*
X127331872Y-117523406D01*
X127331874Y-117523406D01*
X127331877Y-117523408D01*
X127421788Y-117552622D01*
X127499615Y-117577910D01*
X127673810Y-117605500D01*
X127673815Y-117605500D01*
X127850190Y-117605500D01*
X128024384Y-117577910D01*
X128192123Y-117523408D01*
X128349270Y-117443338D01*
X128491957Y-117339670D01*
X128616670Y-117214957D01*
X128720338Y-117072270D01*
X128796290Y-116923204D01*
X128844264Y-116872409D01*
X128906775Y-116855500D01*
X129157225Y-116855500D01*
X129224264Y-116875185D01*
X129267709Y-116923204D01*
X129343662Y-117072270D01*
X129447330Y-117214957D01*
X129572043Y-117339670D01*
X129714730Y-117443338D01*
X129768037Y-117470499D01*
X129871872Y-117523406D01*
X129871874Y-117523406D01*
X129871877Y-117523408D01*
X129961788Y-117552622D01*
X130039615Y-117577910D01*
X130213810Y-117605500D01*
X130213815Y-117605500D01*
X130390190Y-117605500D01*
X130564384Y-117577910D01*
X130732123Y-117523408D01*
X130889270Y-117443338D01*
X131031957Y-117339670D01*
X131156670Y-117214957D01*
X131260338Y-117072270D01*
X131336290Y-116923204D01*
X131384264Y-116872409D01*
X131446775Y-116855500D01*
X131697225Y-116855500D01*
X131764264Y-116875185D01*
X131807709Y-116923204D01*
X131883662Y-117072270D01*
X131987330Y-117214957D01*
X132112043Y-117339670D01*
X132254730Y-117443338D01*
X132308037Y-117470499D01*
X132411872Y-117523406D01*
X132411874Y-117523406D01*
X132411877Y-117523408D01*
X132501788Y-117552622D01*
X132579615Y-117577910D01*
X132753810Y-117605500D01*
X132753815Y-117605500D01*
X132930190Y-117605500D01*
X133104384Y-117577910D01*
X133272123Y-117523408D01*
X133429270Y-117443338D01*
X133571957Y-117339670D01*
X133696670Y-117214957D01*
X133800338Y-117072270D01*
X133876290Y-116923204D01*
X133924264Y-116872409D01*
X133986775Y-116855500D01*
X134237225Y-116855500D01*
X134304264Y-116875185D01*
X134347709Y-116923204D01*
X134423662Y-117072270D01*
X134527330Y-117214957D01*
X134652043Y-117339670D01*
X134794730Y-117443338D01*
X134848037Y-117470499D01*
X134951872Y-117523406D01*
X134951874Y-117523406D01*
X134951877Y-117523408D01*
X135041788Y-117552622D01*
X135119615Y-117577910D01*
X135293810Y-117605500D01*
X135293815Y-117605500D01*
X135470190Y-117605500D01*
X135644384Y-117577910D01*
X135812123Y-117523408D01*
X135969270Y-117443338D01*
X136111957Y-117339670D01*
X136236670Y-117214957D01*
X136340338Y-117072270D01*
X136416290Y-116923204D01*
X136464264Y-116872409D01*
X136526775Y-116855500D01*
X143447071Y-116855500D01*
X143531615Y-116838682D01*
X143572744Y-116830501D01*
X143691127Y-116781465D01*
X143693836Y-116779654D01*
X143694772Y-116779030D01*
X143742134Y-116747384D01*
X143797669Y-116710277D01*
X144251127Y-116256819D01*
X144312450Y-116223334D01*
X144338808Y-116220500D01*
X150883501Y-116220500D01*
X150950540Y-116240185D01*
X150996295Y-116292989D01*
X151007501Y-116344500D01*
X151007501Y-117101518D01*
X151022354Y-117195304D01*
X151079950Y-117308342D01*
X151079952Y-117308344D01*
X151079954Y-117308347D01*
X151169652Y-117398045D01*
X151169654Y-117398046D01*
X151169658Y-117398050D01*
X151282694Y-117455645D01*
X151282698Y-117455647D01*
X151376475Y-117470499D01*
X151376481Y-117470500D01*
X154439518Y-117470499D01*
X154533304Y-117455646D01*
X154646342Y-117398050D01*
X154736050Y-117308342D01*
X154793646Y-117195304D01*
X154793646Y-117195302D01*
X154793647Y-117195301D01*
X154804282Y-117128147D01*
X154808500Y-117101519D01*
X154808500Y-115887500D01*
X157980855Y-115887500D01*
X158001359Y-116056369D01*
X158001360Y-116056374D01*
X158061682Y-116215431D01*
X158113243Y-116290128D01*
X158158317Y-116355429D01*
X158285648Y-116468234D01*
X158398665Y-116527550D01*
X158428718Y-116549664D01*
X158843325Y-116964272D01*
X158843326Y-116964273D01*
X158843329Y-116964275D01*
X158843331Y-116964277D01*
X158949873Y-117035465D01*
X159068256Y-117084501D01*
X159068260Y-117084501D01*
X159068261Y-117084502D01*
X159193928Y-117109500D01*
X159193931Y-117109500D01*
X165310555Y-117109500D01*
X165354527Y-117117558D01*
X165357772Y-117118788D01*
X165357775Y-117118790D01*
X165522944Y-117159500D01*
X165693056Y-117159500D01*
X165858225Y-117118790D01*
X165937692Y-117077081D01*
X166008849Y-117039736D01*
X166008850Y-117039734D01*
X166008852Y-117039734D01*
X166136183Y-116926929D01*
X166232818Y-116786930D01*
X166293140Y-116627872D01*
X166313645Y-116459000D01*
X166293140Y-116290128D01*
X166232818Y-116131070D01*
X166136183Y-115991071D01*
X166008852Y-115878266D01*
X166008849Y-115878263D01*
X165858226Y-115799210D01*
X165693056Y-115758500D01*
X165522944Y-115758500D01*
X165357776Y-115799209D01*
X165354527Y-115800442D01*
X165310555Y-115808500D01*
X159578808Y-115808500D01*
X159511769Y-115788815D01*
X159491127Y-115772181D01*
X159350180Y-115631234D01*
X159321919Y-115587523D01*
X159311318Y-115559571D01*
X159311317Y-115559568D01*
X159261085Y-115486795D01*
X159214683Y-115419571D01*
X159087352Y-115306766D01*
X159087349Y-115306763D01*
X158936726Y-115227710D01*
X158771556Y-115187000D01*
X158601444Y-115187000D01*
X158436273Y-115227710D01*
X158285650Y-115306763D01*
X158158316Y-115419572D01*
X158061682Y-115559568D01*
X158001360Y-115718625D01*
X158001359Y-115718630D01*
X157980855Y-115887500D01*
X154808500Y-115887500D01*
X154808499Y-114038482D01*
X154793646Y-113944696D01*
X154736050Y-113831658D01*
X154736046Y-113831654D01*
X154736045Y-113831652D01*
X154646347Y-113741954D01*
X154646343Y-113741951D01*
X154646342Y-113741950D01*
X154625939Y-113731554D01*
X154575144Y-113683578D01*
X154558350Y-113615757D01*
X154580889Y-113549622D01*
X154594549Y-113533395D01*
X155504345Y-112623600D01*
X163225955Y-112623600D01*
X163246459Y-112792469D01*
X163246460Y-112792474D01*
X163306782Y-112951531D01*
X163369075Y-113041777D01*
X163403417Y-113091529D01*
X163509105Y-113185160D01*
X163530750Y-113204336D01*
X163679028Y-113282158D01*
X163681375Y-113283390D01*
X163846544Y-113324100D01*
X164016656Y-113324100D01*
X164181825Y-113283390D01*
X164181830Y-113283387D01*
X164185073Y-113282158D01*
X164229045Y-113274100D01*
X165007792Y-113274100D01*
X165074831Y-113293785D01*
X165095473Y-113310419D01*
X165683181Y-113898127D01*
X165716666Y-113959450D01*
X165719500Y-113985808D01*
X165719500Y-114491071D01*
X165727373Y-114530647D01*
X165742785Y-114608127D01*
X165744499Y-114616744D01*
X165793535Y-114735127D01*
X165849813Y-114819354D01*
X165864726Y-114841673D01*
X168876328Y-117853275D01*
X168951123Y-117903251D01*
X168951122Y-117903251D01*
X168974961Y-117919178D01*
X168982873Y-117924465D01*
X169101256Y-117973501D01*
X169101260Y-117973501D01*
X169101261Y-117973502D01*
X169226928Y-117998500D01*
X169226931Y-117998500D01*
X171986690Y-117998500D01*
X172053729Y-118018185D01*
X172099484Y-118070989D01*
X172109428Y-118140147D01*
X172080403Y-118203703D01*
X172021625Y-118241477D01*
X172007101Y-118244808D01*
X171971842Y-118250692D01*
X171780015Y-118282702D01*
X171560504Y-118358061D01*
X171560495Y-118358064D01*
X171356371Y-118468531D01*
X171356365Y-118468535D01*
X171173222Y-118611081D01*
X171173219Y-118611084D01*
X171016016Y-118781852D01*
X170889075Y-118976151D01*
X170795842Y-119188699D01*
X170738866Y-119413691D01*
X170738864Y-119413702D01*
X170719700Y-119644993D01*
X170719700Y-119645006D01*
X170738864Y-119876297D01*
X170738866Y-119876308D01*
X170795842Y-120101300D01*
X170889075Y-120313848D01*
X171016016Y-120508147D01*
X171016019Y-120508151D01*
X171016021Y-120508153D01*
X171173216Y-120678913D01*
X171173219Y-120678915D01*
X171173222Y-120678918D01*
X171356365Y-120821464D01*
X171356371Y-120821468D01*
X171356374Y-120821470D01*
X171560497Y-120931936D01*
X171674487Y-120971068D01*
X171780015Y-121007297D01*
X171780017Y-121007297D01*
X171780019Y-121007298D01*
X172008951Y-121045500D01*
X172008952Y-121045500D01*
X172241048Y-121045500D01*
X172241049Y-121045500D01*
X172469981Y-121007298D01*
X172689503Y-120931936D01*
X172893626Y-120821470D01*
X173076784Y-120678913D01*
X173233979Y-120508153D01*
X173360924Y-120313849D01*
X173454157Y-120101300D01*
X173511134Y-119876305D01*
X173511135Y-119876297D01*
X173530300Y-119645006D01*
X173530300Y-119644993D01*
X175719700Y-119644993D01*
X175719700Y-119645006D01*
X175738864Y-119876297D01*
X175738866Y-119876308D01*
X175795842Y-120101300D01*
X175889075Y-120313848D01*
X176016016Y-120508147D01*
X176016019Y-120508151D01*
X176016021Y-120508153D01*
X176173216Y-120678913D01*
X176173219Y-120678915D01*
X176173222Y-120678918D01*
X176356365Y-120821464D01*
X176356371Y-120821468D01*
X176356374Y-120821470D01*
X176560497Y-120931936D01*
X176674487Y-120971068D01*
X176780015Y-121007297D01*
X176780017Y-121007297D01*
X176780019Y-121007298D01*
X177008951Y-121045500D01*
X177008952Y-121045500D01*
X177241048Y-121045500D01*
X177241049Y-121045500D01*
X177469981Y-121007298D01*
X177689503Y-120931936D01*
X177893626Y-120821470D01*
X178076784Y-120678913D01*
X178233979Y-120508153D01*
X178360924Y-120313849D01*
X178454157Y-120101300D01*
X178511134Y-119876305D01*
X178511135Y-119876297D01*
X178530300Y-119645006D01*
X178530300Y-119644993D01*
X178511135Y-119413702D01*
X178511133Y-119413691D01*
X178454157Y-119188699D01*
X178360924Y-118976151D01*
X178233983Y-118781852D01*
X178233980Y-118781849D01*
X178233979Y-118781847D01*
X178076784Y-118611087D01*
X178076779Y-118611083D01*
X178076777Y-118611081D01*
X177893634Y-118468535D01*
X177893628Y-118468531D01*
X177689504Y-118358064D01*
X177689495Y-118358061D01*
X177469984Y-118282702D01*
X177298282Y-118254050D01*
X177241049Y-118244500D01*
X177008951Y-118244500D01*
X176963164Y-118252140D01*
X176780015Y-118282702D01*
X176560504Y-118358061D01*
X176560495Y-118358064D01*
X176356371Y-118468531D01*
X176356365Y-118468535D01*
X176173222Y-118611081D01*
X176173219Y-118611084D01*
X176016016Y-118781852D01*
X175889075Y-118976151D01*
X175795842Y-119188699D01*
X175738866Y-119413691D01*
X175738864Y-119413702D01*
X175719700Y-119644993D01*
X173530300Y-119644993D01*
X173511135Y-119413702D01*
X173511133Y-119413691D01*
X173454157Y-119188699D01*
X173360924Y-118976151D01*
X173233983Y-118781852D01*
X173233980Y-118781849D01*
X173233979Y-118781847D01*
X173076784Y-118611087D01*
X173076779Y-118611083D01*
X173076777Y-118611081D01*
X172893634Y-118468535D01*
X172893628Y-118468531D01*
X172689504Y-118358064D01*
X172689495Y-118358061D01*
X172469984Y-118282702D01*
X172287596Y-118252267D01*
X172242899Y-118244808D01*
X172180015Y-118214358D01*
X172143576Y-118154744D01*
X172145151Y-118084892D01*
X172184241Y-118026980D01*
X172248435Y-117999395D01*
X172263310Y-117998500D01*
X174327555Y-117998500D01*
X174371527Y-118006558D01*
X174374772Y-118007788D01*
X174374775Y-118007790D01*
X174539944Y-118048500D01*
X174710056Y-118048500D01*
X174875225Y-118007790D01*
X174954692Y-117966081D01*
X175025849Y-117928736D01*
X175025850Y-117928734D01*
X175025852Y-117928734D01*
X175153183Y-117815929D01*
X175249818Y-117675930D01*
X175310140Y-117516872D01*
X175330645Y-117348000D01*
X175310140Y-117179128D01*
X175249818Y-117020070D01*
X175153183Y-116880071D01*
X175048048Y-116786930D01*
X175025849Y-116767263D01*
X174875226Y-116688210D01*
X174710056Y-116647500D01*
X174539944Y-116647500D01*
X174374776Y-116688209D01*
X174371527Y-116689442D01*
X174327555Y-116697500D01*
X169611808Y-116697500D01*
X169544769Y-116677815D01*
X169524127Y-116661181D01*
X167615250Y-114752304D01*
X167581765Y-114690981D01*
X167586749Y-114621289D01*
X167628621Y-114565356D01*
X167694085Y-114540939D01*
X167722328Y-114542149D01*
X167743481Y-114545500D01*
X170306518Y-114545499D01*
X170400304Y-114530646D01*
X170513342Y-114473050D01*
X170603050Y-114383342D01*
X170660646Y-114270304D01*
X170660646Y-114270302D01*
X170660647Y-114270301D01*
X170675499Y-114176524D01*
X170675500Y-114176519D01*
X170675499Y-111113482D01*
X170675498Y-111113475D01*
X178574500Y-111113475D01*
X178574500Y-114176517D01*
X178585292Y-114244657D01*
X178589354Y-114270304D01*
X178646950Y-114383342D01*
X178646952Y-114383344D01*
X178646954Y-114383347D01*
X178736652Y-114473045D01*
X178736654Y-114473046D01*
X178736658Y-114473050D01*
X178849694Y-114530645D01*
X178849698Y-114530647D01*
X178943475Y-114545499D01*
X178943481Y-114545500D01*
X181506518Y-114545499D01*
X181600304Y-114530646D01*
X181713342Y-114473050D01*
X181803050Y-114383342D01*
X181860646Y-114270304D01*
X181860646Y-114270302D01*
X181860647Y-114270301D01*
X181875499Y-114176524D01*
X181875500Y-114176519D01*
X181875499Y-111113482D01*
X181860646Y-111019696D01*
X181803050Y-110906658D01*
X181803046Y-110906654D01*
X181803045Y-110906652D01*
X181713347Y-110816954D01*
X181713344Y-110816952D01*
X181713342Y-110816950D01*
X181636517Y-110777805D01*
X181600301Y-110759352D01*
X181506524Y-110744500D01*
X178943482Y-110744500D01*
X178862519Y-110757323D01*
X178849696Y-110759354D01*
X178736658Y-110816950D01*
X178736657Y-110816951D01*
X178736652Y-110816954D01*
X178646954Y-110906652D01*
X178646951Y-110906657D01*
X178589352Y-111019698D01*
X178574500Y-111113475D01*
X170675498Y-111113475D01*
X170660646Y-111019696D01*
X170603050Y-110906658D01*
X170603046Y-110906654D01*
X170603045Y-110906652D01*
X170513347Y-110816954D01*
X170513344Y-110816952D01*
X170513342Y-110816950D01*
X170436517Y-110777805D01*
X170400301Y-110759352D01*
X170306524Y-110744500D01*
X167743482Y-110744500D01*
X167662519Y-110757323D01*
X167649696Y-110759354D01*
X167536658Y-110816950D01*
X167536657Y-110816951D01*
X167536652Y-110816954D01*
X167446954Y-110906652D01*
X167446951Y-110906657D01*
X167389352Y-111019698D01*
X167374500Y-111113475D01*
X167374500Y-114176519D01*
X167377851Y-114197674D01*
X167368894Y-114266967D01*
X167323897Y-114320418D01*
X167257145Y-114341056D01*
X167189832Y-114322330D01*
X167167696Y-114304750D01*
X167056819Y-114193873D01*
X167023334Y-114132550D01*
X167020500Y-114106192D01*
X167020500Y-113600928D01*
X166995502Y-113475261D01*
X166995501Y-113475260D01*
X166995501Y-113475256D01*
X166946465Y-113356873D01*
X166924567Y-113324100D01*
X166924567Y-113324099D01*
X166875275Y-113250328D01*
X165743273Y-112118326D01*
X165668144Y-112068127D01*
X165636727Y-112047135D01*
X165518344Y-111998099D01*
X165518338Y-111998097D01*
X165392671Y-111973100D01*
X165392669Y-111973100D01*
X164229045Y-111973100D01*
X164185073Y-111965042D01*
X164181823Y-111963809D01*
X164016656Y-111923100D01*
X163846544Y-111923100D01*
X163681373Y-111963810D01*
X163530750Y-112042863D01*
X163403416Y-112155672D01*
X163306782Y-112295668D01*
X163246460Y-112454725D01*
X163246459Y-112454730D01*
X163225955Y-112623600D01*
X155504345Y-112623600D01*
X155953276Y-112174670D01*
X156024465Y-112068127D01*
X156073501Y-111949744D01*
X156078801Y-111923100D01*
X156098500Y-111824069D01*
X156098500Y-109603384D01*
X156118185Y-109536345D01*
X156140910Y-109511841D01*
X156140065Y-109510914D01*
X156144300Y-109507053D01*
X156144302Y-109507052D01*
X156301872Y-109363407D01*
X156430366Y-109193255D01*
X156510910Y-109031500D01*
X156525403Y-109002394D01*
X156525403Y-109002393D01*
X156525405Y-109002389D01*
X156583756Y-108797310D01*
X156603429Y-108585000D01*
X156583756Y-108372690D01*
X156525405Y-108167611D01*
X156525403Y-108167606D01*
X156525403Y-108167605D01*
X156430367Y-107976746D01*
X156301872Y-107806593D01*
X156298452Y-107803475D01*
X156144302Y-107662948D01*
X155963019Y-107550702D01*
X155963017Y-107550701D01*
X155850081Y-107506950D01*
X155764198Y-107473679D01*
X155554610Y-107434500D01*
X155341390Y-107434500D01*
X155131802Y-107473679D01*
X155131799Y-107473679D01*
X155131799Y-107473680D01*
X154932982Y-107550701D01*
X154932980Y-107550702D01*
X154751699Y-107662947D01*
X154594127Y-107806593D01*
X154465632Y-107976746D01*
X154370596Y-108167605D01*
X154370596Y-108167607D01*
X154312244Y-108372689D01*
X154301471Y-108488951D01*
X154275685Y-108553888D01*
X154231130Y-108585804D01*
X154267503Y-108606668D01*
X154299693Y-108668681D01*
X154301470Y-108681047D01*
X154312244Y-108797310D01*
X154369477Y-108998461D01*
X154370596Y-109002392D01*
X154370596Y-109002394D01*
X154465632Y-109193253D01*
X154542562Y-109295123D01*
X154594128Y-109363407D01*
X154751698Y-109507052D01*
X154751699Y-109507053D01*
X154755935Y-109510914D01*
X154754331Y-109512673D01*
X154789845Y-109560492D01*
X154797500Y-109603384D01*
X154797500Y-111439191D01*
X154777815Y-111506230D01*
X154761181Y-111526872D01*
X152654871Y-113633181D01*
X152593548Y-113666666D01*
X152567190Y-113669500D01*
X151376482Y-113669500D01*
X151295519Y-113682323D01*
X151282696Y-113684354D01*
X151169658Y-113741950D01*
X151169657Y-113741951D01*
X151169652Y-113741954D01*
X151079954Y-113831652D01*
X151079951Y-113831657D01*
X151022352Y-113944698D01*
X151007500Y-114038475D01*
X151007500Y-114795500D01*
X150987815Y-114862539D01*
X150935011Y-114908294D01*
X150883500Y-114919500D01*
X143953929Y-114919500D01*
X143828261Y-114944497D01*
X143828254Y-114944499D01*
X143813769Y-114950498D01*
X143813770Y-114950499D01*
X143709878Y-114993532D01*
X143709863Y-114993540D01*
X143603332Y-115064721D01*
X143603325Y-115064727D01*
X143149873Y-115518181D01*
X143088550Y-115551666D01*
X143062192Y-115554500D01*
X136526775Y-115554500D01*
X136459736Y-115534815D01*
X136416290Y-115486795D01*
X136340337Y-115337729D01*
X136317839Y-115306763D01*
X136236670Y-115195043D01*
X136111957Y-115070330D01*
X135969270Y-114966662D01*
X135969250Y-114966652D01*
X135812127Y-114886593D01*
X135644384Y-114832089D01*
X135470190Y-114804500D01*
X135470185Y-114804500D01*
X135293815Y-114804500D01*
X135293810Y-114804500D01*
X135119615Y-114832089D01*
X134951872Y-114886593D01*
X134794729Y-114966662D01*
X134652040Y-115070332D01*
X134527332Y-115195040D01*
X134423662Y-115337729D01*
X134347710Y-115486795D01*
X134299736Y-115537591D01*
X134237225Y-115554500D01*
X133986775Y-115554500D01*
X133919736Y-115534815D01*
X133876290Y-115486795D01*
X133800337Y-115337729D01*
X133777839Y-115306763D01*
X133696670Y-115195043D01*
X133571957Y-115070330D01*
X133429270Y-114966662D01*
X133429250Y-114966652D01*
X133272127Y-114886593D01*
X133104384Y-114832089D01*
X132930190Y-114804500D01*
X132930185Y-114804500D01*
X132753815Y-114804500D01*
X132753810Y-114804500D01*
X132579615Y-114832089D01*
X132411872Y-114886593D01*
X132254729Y-114966662D01*
X132112040Y-115070332D01*
X131987332Y-115195040D01*
X131883662Y-115337729D01*
X131807710Y-115486795D01*
X131759736Y-115537591D01*
X131697225Y-115554500D01*
X131446775Y-115554500D01*
X131379736Y-115534815D01*
X131336290Y-115486795D01*
X131260337Y-115337729D01*
X131237839Y-115306763D01*
X131156670Y-115195043D01*
X131031957Y-115070330D01*
X130889270Y-114966662D01*
X130889250Y-114966652D01*
X130732127Y-114886593D01*
X130564384Y-114832089D01*
X130390190Y-114804500D01*
X130390185Y-114804500D01*
X130213815Y-114804500D01*
X130213810Y-114804500D01*
X130039615Y-114832089D01*
X129871872Y-114886593D01*
X129714729Y-114966662D01*
X129572040Y-115070332D01*
X129447332Y-115195040D01*
X129343662Y-115337729D01*
X129267710Y-115486795D01*
X129219736Y-115537591D01*
X129157225Y-115554500D01*
X128906775Y-115554500D01*
X128839736Y-115534815D01*
X128796290Y-115486795D01*
X128720337Y-115337729D01*
X128697839Y-115306763D01*
X128616670Y-115195043D01*
X128491957Y-115070330D01*
X128349270Y-114966662D01*
X128349250Y-114966652D01*
X128192127Y-114886593D01*
X128024384Y-114832089D01*
X127850190Y-114804500D01*
X127850185Y-114804500D01*
X127673815Y-114804500D01*
X127673810Y-114804500D01*
X127499615Y-114832089D01*
X127331872Y-114886593D01*
X127174729Y-114966662D01*
X127032040Y-115070332D01*
X126907332Y-115195040D01*
X126803662Y-115337729D01*
X126727710Y-115486795D01*
X126679736Y-115537591D01*
X126617225Y-115554500D01*
X126366775Y-115554500D01*
X126299736Y-115534815D01*
X126256290Y-115486795D01*
X126180337Y-115337729D01*
X126157839Y-115306763D01*
X126076670Y-115195043D01*
X125951957Y-115070330D01*
X125809270Y-114966662D01*
X125809250Y-114966652D01*
X125652127Y-114886593D01*
X125484384Y-114832089D01*
X125310190Y-114804500D01*
X125310185Y-114804500D01*
X125133815Y-114804500D01*
X125133810Y-114804500D01*
X124959615Y-114832089D01*
X124791872Y-114886593D01*
X124634729Y-114966662D01*
X124492040Y-115070332D01*
X124367332Y-115195040D01*
X124263662Y-115337729D01*
X124183593Y-115494872D01*
X124129089Y-115662615D01*
X124101500Y-115836809D01*
X123802500Y-115836809D01*
X123774910Y-115662615D01*
X123738860Y-115551666D01*
X123720408Y-115494877D01*
X123720406Y-115494874D01*
X123720406Y-115494872D01*
X123640337Y-115337729D01*
X123617839Y-115306763D01*
X123536670Y-115195043D01*
X123411957Y-115070330D01*
X123269270Y-114966662D01*
X123269250Y-114966652D01*
X123112127Y-114886593D01*
X122944384Y-114832089D01*
X122770190Y-114804500D01*
X122770185Y-114804500D01*
X122593815Y-114804500D01*
X122593810Y-114804500D01*
X122419615Y-114832089D01*
X122251872Y-114886593D01*
X122094729Y-114966662D01*
X121952040Y-115070332D01*
X121827332Y-115195040D01*
X121723662Y-115337729D01*
X121643593Y-115494872D01*
X121589089Y-115662615D01*
X121561500Y-115836809D01*
X121262499Y-115836809D01*
X121262499Y-115173482D01*
X121247646Y-115079696D01*
X121190050Y-114966658D01*
X121190046Y-114966654D01*
X121190045Y-114966652D01*
X121100347Y-114876954D01*
X121100344Y-114876952D01*
X121100342Y-114876950D01*
X121012298Y-114832089D01*
X120987301Y-114819352D01*
X120893524Y-114804500D01*
X119390482Y-114804500D01*
X119309519Y-114817323D01*
X119296696Y-114819354D01*
X119183658Y-114876950D01*
X119183657Y-114876951D01*
X119183652Y-114876954D01*
X119093954Y-114966652D01*
X119093951Y-114966657D01*
X119036352Y-115079698D01*
X119021500Y-115173475D01*
X109466500Y-115173475D01*
X109466500Y-108216809D01*
X119021500Y-108216809D01*
X119021500Y-108953190D01*
X119049089Y-109127384D01*
X119103593Y-109295127D01*
X119139972Y-109366524D01*
X119183662Y-109452270D01*
X119287330Y-109594957D01*
X119412043Y-109719670D01*
X119554730Y-109823338D01*
X119588568Y-109840579D01*
X119711872Y-109903406D01*
X119711874Y-109903406D01*
X119711877Y-109903408D01*
X119801788Y-109932622D01*
X119879615Y-109957910D01*
X120053810Y-109985500D01*
X120053815Y-109985500D01*
X120230190Y-109985500D01*
X120404384Y-109957910D01*
X120572123Y-109903408D01*
X120729270Y-109823338D01*
X120871957Y-109719670D01*
X120996670Y-109594957D01*
X121100338Y-109452270D01*
X121180408Y-109295123D01*
X121234910Y-109127384D01*
X121262500Y-108953190D01*
X121262500Y-108216809D01*
X121561500Y-108216809D01*
X121561500Y-108953190D01*
X121589089Y-109127384D01*
X121643593Y-109295127D01*
X121679972Y-109366524D01*
X121723662Y-109452270D01*
X121827330Y-109594957D01*
X121952043Y-109719670D01*
X121980384Y-109740261D01*
X122023050Y-109795589D01*
X122031500Y-109840579D01*
X122031500Y-110046069D01*
X122054785Y-110163127D01*
X122056499Y-110171744D01*
X122105535Y-110290127D01*
X122143870Y-110347500D01*
X122176726Y-110396673D01*
X123283326Y-111503273D01*
X123283329Y-111503275D01*
X123283331Y-111503277D01*
X123383575Y-111570257D01*
X123389873Y-111574465D01*
X123508256Y-111623501D01*
X123508260Y-111623501D01*
X123508261Y-111623502D01*
X123633928Y-111648500D01*
X123633931Y-111648500D01*
X151829071Y-111648500D01*
X151913615Y-111631682D01*
X151954744Y-111623501D01*
X152073127Y-111574465D01*
X152079425Y-111570257D01*
X152179669Y-111503277D01*
X153413277Y-110269669D01*
X153484465Y-110163127D01*
X153533501Y-110044744D01*
X153558500Y-109919069D01*
X153558500Y-109603384D01*
X153578185Y-109536345D01*
X153600910Y-109511841D01*
X153600065Y-109510914D01*
X153604300Y-109507053D01*
X153604302Y-109507052D01*
X153761872Y-109363407D01*
X153890366Y-109193255D01*
X153970910Y-109031500D01*
X153985403Y-109002394D01*
X153985403Y-109002393D01*
X153985405Y-109002389D01*
X154043756Y-108797310D01*
X154054529Y-108681047D01*
X154080315Y-108616111D01*
X154124869Y-108584194D01*
X154088497Y-108563331D01*
X154056307Y-108501318D01*
X154054529Y-108488951D01*
X154053849Y-108481613D01*
X154043756Y-108372690D01*
X153985405Y-108167611D01*
X153985403Y-108167606D01*
X153985403Y-108167605D01*
X153890367Y-107976746D01*
X153761872Y-107806593D01*
X153758452Y-107803475D01*
X153604302Y-107662948D01*
X153423019Y-107550702D01*
X153423017Y-107550701D01*
X153310081Y-107506950D01*
X153224198Y-107473679D01*
X153014610Y-107434500D01*
X152801390Y-107434500D01*
X152591802Y-107473679D01*
X152591799Y-107473679D01*
X152591799Y-107473680D01*
X152392982Y-107550701D01*
X152392980Y-107550702D01*
X152211699Y-107662947D01*
X152054127Y-107806593D01*
X151925632Y-107976746D01*
X151830596Y-108167605D01*
X151830596Y-108167607D01*
X151772244Y-108372689D01*
X151765970Y-108440395D01*
X151740184Y-108505332D01*
X151683383Y-108546019D01*
X151613602Y-108549539D01*
X151552996Y-108514773D01*
X151520806Y-108452761D01*
X151518499Y-108428953D01*
X151518499Y-107803482D01*
X151518498Y-107803475D01*
X151503646Y-107709696D01*
X151446050Y-107596658D01*
X151446046Y-107596654D01*
X151446045Y-107596652D01*
X151356347Y-107506954D01*
X151356344Y-107506952D01*
X151356342Y-107506950D01*
X151279517Y-107467805D01*
X151243301Y-107449352D01*
X151149524Y-107434500D01*
X149586482Y-107434500D01*
X149505519Y-107447323D01*
X149492696Y-107449354D01*
X149379658Y-107506950D01*
X149379657Y-107506951D01*
X149379652Y-107506954D01*
X149289954Y-107596652D01*
X149289951Y-107596657D01*
X149232352Y-107709698D01*
X149217500Y-107803475D01*
X149217500Y-109366517D01*
X149228292Y-109434657D01*
X149232354Y-109460304D01*
X149289950Y-109573342D01*
X149289952Y-109573344D01*
X149289954Y-109573347D01*
X149379652Y-109663045D01*
X149379654Y-109663046D01*
X149379658Y-109663050D01*
X149490775Y-109719667D01*
X149492698Y-109720647D01*
X149586475Y-109735499D01*
X149586481Y-109735500D01*
X151149518Y-109735499D01*
X151243304Y-109720646D01*
X151356342Y-109663050D01*
X151446050Y-109573342D01*
X151503646Y-109460304D01*
X151503646Y-109460302D01*
X151503647Y-109460301D01*
X151518499Y-109366524D01*
X151518500Y-109366519D01*
X151518499Y-108741046D01*
X151538183Y-108674010D01*
X151590987Y-108628255D01*
X151660146Y-108618311D01*
X151723702Y-108647336D01*
X151761476Y-108706114D01*
X151765970Y-108729607D01*
X151771621Y-108790590D01*
X151772244Y-108797310D01*
X151829477Y-108998461D01*
X151830596Y-109002392D01*
X151830596Y-109002394D01*
X151925632Y-109193253D01*
X152002562Y-109295123D01*
X152054128Y-109363407D01*
X152057541Y-109366518D01*
X152180752Y-109478841D01*
X152217033Y-109538553D01*
X152215272Y-109608400D01*
X152184894Y-109658159D01*
X151531873Y-110311181D01*
X151470550Y-110344666D01*
X151444192Y-110347500D01*
X124018808Y-110347500D01*
X123951769Y-110327815D01*
X123931127Y-110311181D01*
X123463467Y-109843521D01*
X123429982Y-109782198D01*
X123434966Y-109712506D01*
X123463463Y-109668163D01*
X123536670Y-109594957D01*
X123640338Y-109452270D01*
X123720408Y-109295123D01*
X123774910Y-109127384D01*
X123802500Y-108953190D01*
X123802500Y-108216809D01*
X124101500Y-108216809D01*
X124101500Y-108953190D01*
X124129089Y-109127384D01*
X124183593Y-109295127D01*
X124219972Y-109366524D01*
X124263662Y-109452270D01*
X124367330Y-109594957D01*
X124492043Y-109719670D01*
X124634730Y-109823338D01*
X124668568Y-109840579D01*
X124791872Y-109903406D01*
X124791874Y-109903406D01*
X124791877Y-109903408D01*
X124881788Y-109932622D01*
X124959615Y-109957910D01*
X125133810Y-109985500D01*
X125133815Y-109985500D01*
X125310190Y-109985500D01*
X125484384Y-109957910D01*
X125652123Y-109903408D01*
X125809270Y-109823338D01*
X125951957Y-109719670D01*
X126076670Y-109594957D01*
X126180338Y-109452270D01*
X126256290Y-109303204D01*
X126304264Y-109252409D01*
X126366775Y-109235500D01*
X126617225Y-109235500D01*
X126684264Y-109255185D01*
X126727709Y-109303204D01*
X126803662Y-109452270D01*
X126907330Y-109594957D01*
X127032043Y-109719670D01*
X127174730Y-109823338D01*
X127208568Y-109840579D01*
X127331872Y-109903406D01*
X127331874Y-109903406D01*
X127331877Y-109903408D01*
X127421788Y-109932622D01*
X127499615Y-109957910D01*
X127673810Y-109985500D01*
X127673815Y-109985500D01*
X127850190Y-109985500D01*
X128024384Y-109957910D01*
X128192123Y-109903408D01*
X128349270Y-109823338D01*
X128491957Y-109719670D01*
X128616670Y-109594957D01*
X128720338Y-109452270D01*
X128796290Y-109303204D01*
X128844264Y-109252409D01*
X128906775Y-109235500D01*
X129157225Y-109235500D01*
X129224264Y-109255185D01*
X129267709Y-109303204D01*
X129343662Y-109452270D01*
X129447330Y-109594957D01*
X129572043Y-109719670D01*
X129714730Y-109823338D01*
X129748568Y-109840579D01*
X129871872Y-109903406D01*
X129871874Y-109903406D01*
X129871877Y-109903408D01*
X129961788Y-109932622D01*
X130039615Y-109957910D01*
X130213810Y-109985500D01*
X130213815Y-109985500D01*
X130390190Y-109985500D01*
X130564384Y-109957910D01*
X130732123Y-109903408D01*
X130889270Y-109823338D01*
X131031957Y-109719670D01*
X131156670Y-109594957D01*
X131260338Y-109452270D01*
X131336290Y-109303204D01*
X131384264Y-109252409D01*
X131446775Y-109235500D01*
X131697225Y-109235500D01*
X131764264Y-109255185D01*
X131807709Y-109303204D01*
X131883662Y-109452270D01*
X131987330Y-109594957D01*
X132112043Y-109719670D01*
X132254730Y-109823338D01*
X132288568Y-109840579D01*
X132411872Y-109903406D01*
X132411874Y-109903406D01*
X132411877Y-109903408D01*
X132501788Y-109932622D01*
X132579615Y-109957910D01*
X132753810Y-109985500D01*
X132753815Y-109985500D01*
X132930190Y-109985500D01*
X133104384Y-109957910D01*
X133272123Y-109903408D01*
X133429270Y-109823338D01*
X133571957Y-109719670D01*
X133696670Y-109594957D01*
X133800338Y-109452270D01*
X133876290Y-109303204D01*
X133924264Y-109252409D01*
X133986775Y-109235500D01*
X134237225Y-109235500D01*
X134304264Y-109255185D01*
X134347709Y-109303204D01*
X134423662Y-109452270D01*
X134527330Y-109594957D01*
X134652043Y-109719670D01*
X134794730Y-109823338D01*
X134828568Y-109840579D01*
X134951872Y-109903406D01*
X134951874Y-109903406D01*
X134951877Y-109903408D01*
X135041788Y-109932622D01*
X135119615Y-109957910D01*
X135293810Y-109985500D01*
X135293815Y-109985500D01*
X135470190Y-109985500D01*
X135644384Y-109957910D01*
X135812123Y-109903408D01*
X135969270Y-109823338D01*
X136111957Y-109719670D01*
X136236670Y-109594957D01*
X136340338Y-109452270D01*
X136420408Y-109295123D01*
X136474910Y-109127384D01*
X136502500Y-108953190D01*
X136502500Y-108216809D01*
X136474910Y-108042615D01*
X136449622Y-107964788D01*
X136420408Y-107874877D01*
X136420406Y-107874874D01*
X136420406Y-107874872D01*
X136375575Y-107786886D01*
X136340338Y-107717730D01*
X136236670Y-107575043D01*
X136111957Y-107450330D01*
X135969270Y-107346662D01*
X135812127Y-107266593D01*
X135644384Y-107212089D01*
X135470190Y-107184500D01*
X135470185Y-107184500D01*
X135293815Y-107184500D01*
X135293810Y-107184500D01*
X135119615Y-107212089D01*
X134951872Y-107266593D01*
X134794729Y-107346662D01*
X134652040Y-107450332D01*
X134527332Y-107575040D01*
X134423662Y-107717729D01*
X134347710Y-107866795D01*
X134299736Y-107917591D01*
X134237225Y-107934500D01*
X133986775Y-107934500D01*
X133919736Y-107914815D01*
X133876290Y-107866795D01*
X133874393Y-107863071D01*
X133800338Y-107717730D01*
X133696670Y-107575043D01*
X133571957Y-107450330D01*
X133429270Y-107346662D01*
X133272127Y-107266593D01*
X133104384Y-107212089D01*
X132930190Y-107184500D01*
X132930185Y-107184500D01*
X132753815Y-107184500D01*
X132753810Y-107184500D01*
X132579615Y-107212089D01*
X132411872Y-107266593D01*
X132254729Y-107346662D01*
X132112040Y-107450332D01*
X131987332Y-107575040D01*
X131883662Y-107717729D01*
X131807710Y-107866795D01*
X131759736Y-107917591D01*
X131697225Y-107934500D01*
X131446775Y-107934500D01*
X131379736Y-107914815D01*
X131336290Y-107866795D01*
X131334393Y-107863071D01*
X131260338Y-107717730D01*
X131156670Y-107575043D01*
X131031957Y-107450330D01*
X130889270Y-107346662D01*
X130732127Y-107266593D01*
X130564384Y-107212089D01*
X130390190Y-107184500D01*
X130390185Y-107184500D01*
X130213815Y-107184500D01*
X130213810Y-107184500D01*
X130039615Y-107212089D01*
X129871872Y-107266593D01*
X129714729Y-107346662D01*
X129572040Y-107450332D01*
X129447332Y-107575040D01*
X129343662Y-107717729D01*
X129267710Y-107866795D01*
X129219736Y-107917591D01*
X129157225Y-107934500D01*
X128906775Y-107934500D01*
X128839736Y-107914815D01*
X128796290Y-107866795D01*
X128794393Y-107863071D01*
X128720338Y-107717730D01*
X128616670Y-107575043D01*
X128491957Y-107450330D01*
X128349270Y-107346662D01*
X128192127Y-107266593D01*
X128024384Y-107212089D01*
X127850190Y-107184500D01*
X127850185Y-107184500D01*
X127673815Y-107184500D01*
X127673810Y-107184500D01*
X127499615Y-107212089D01*
X127331872Y-107266593D01*
X127174729Y-107346662D01*
X127032040Y-107450332D01*
X126907332Y-107575040D01*
X126803662Y-107717729D01*
X126727710Y-107866795D01*
X126679736Y-107917591D01*
X126617225Y-107934500D01*
X126366775Y-107934500D01*
X126299736Y-107914815D01*
X126256290Y-107866795D01*
X126254393Y-107863071D01*
X126180338Y-107717730D01*
X126076670Y-107575043D01*
X125951957Y-107450330D01*
X125809270Y-107346662D01*
X125652127Y-107266593D01*
X125484384Y-107212089D01*
X125310190Y-107184500D01*
X125310185Y-107184500D01*
X125133815Y-107184500D01*
X125133810Y-107184500D01*
X124959615Y-107212089D01*
X124791872Y-107266593D01*
X124634729Y-107346662D01*
X124492040Y-107450332D01*
X124367332Y-107575040D01*
X124263662Y-107717729D01*
X124183593Y-107874872D01*
X124129089Y-108042615D01*
X124101500Y-108216809D01*
X123802500Y-108216809D01*
X123774910Y-108042615D01*
X123749622Y-107964788D01*
X123720408Y-107874877D01*
X123720406Y-107874874D01*
X123720406Y-107874872D01*
X123675575Y-107786886D01*
X123640338Y-107717730D01*
X123536670Y-107575043D01*
X123411957Y-107450330D01*
X123269270Y-107346662D01*
X123112127Y-107266593D01*
X122944384Y-107212089D01*
X122770190Y-107184500D01*
X122770185Y-107184500D01*
X122593815Y-107184500D01*
X122593810Y-107184500D01*
X122419615Y-107212089D01*
X122251872Y-107266593D01*
X122094729Y-107346662D01*
X121952040Y-107450332D01*
X121827332Y-107575040D01*
X121723662Y-107717729D01*
X121643593Y-107874872D01*
X121589089Y-108042615D01*
X121561500Y-108216809D01*
X121262500Y-108216809D01*
X121234910Y-108042615D01*
X121209622Y-107964788D01*
X121180408Y-107874877D01*
X121180406Y-107874874D01*
X121180406Y-107874872D01*
X121135575Y-107786886D01*
X121100338Y-107717730D01*
X120996670Y-107575043D01*
X120871957Y-107450330D01*
X120729270Y-107346662D01*
X120572127Y-107266593D01*
X120404384Y-107212089D01*
X120230190Y-107184500D01*
X120230185Y-107184500D01*
X120053815Y-107184500D01*
X120053810Y-107184500D01*
X119879615Y-107212089D01*
X119711872Y-107266593D01*
X119554729Y-107346662D01*
X119412040Y-107450332D01*
X119287332Y-107575040D01*
X119183662Y-107717729D01*
X119103593Y-107874872D01*
X119049089Y-108042615D01*
X119021500Y-108216809D01*
X109466500Y-108216809D01*
X109466500Y-105144993D01*
X170719700Y-105144993D01*
X170719700Y-105145006D01*
X170738864Y-105376297D01*
X170738866Y-105376308D01*
X170795842Y-105601300D01*
X170889075Y-105813848D01*
X171016016Y-106008147D01*
X171016019Y-106008151D01*
X171016021Y-106008153D01*
X171173216Y-106178913D01*
X171173219Y-106178915D01*
X171173222Y-106178918D01*
X171356365Y-106321464D01*
X171356371Y-106321468D01*
X171356374Y-106321470D01*
X171470713Y-106383347D01*
X171559652Y-106431479D01*
X171560497Y-106431936D01*
X171674487Y-106471068D01*
X171780015Y-106507297D01*
X171780017Y-106507297D01*
X171780019Y-106507298D01*
X172008951Y-106545500D01*
X172008952Y-106545500D01*
X172241048Y-106545500D01*
X172241049Y-106545500D01*
X172469981Y-106507298D01*
X172689503Y-106431936D01*
X172893626Y-106321470D01*
X172894170Y-106321047D01*
X172959368Y-106270301D01*
X173076784Y-106178913D01*
X173233979Y-106008153D01*
X173271489Y-105950738D01*
X173324635Y-105905382D01*
X173393866Y-105895958D01*
X173457202Y-105925459D01*
X173471914Y-105942437D01*
X173473811Y-105942634D01*
X174142037Y-105274408D01*
X174159075Y-105337993D01*
X174224901Y-105452007D01*
X174317993Y-105545099D01*
X174432007Y-105610925D01*
X174495590Y-105627962D01*
X173826201Y-106297351D01*
X173856649Y-106321050D01*
X174060697Y-106431476D01*
X174060706Y-106431479D01*
X174280139Y-106506811D01*
X174508993Y-106545000D01*
X174741007Y-106545000D01*
X174969860Y-106506811D01*
X175189293Y-106431479D01*
X175189301Y-106431476D01*
X175393355Y-106321047D01*
X175423797Y-106297351D01*
X175423798Y-106297350D01*
X174754410Y-105627962D01*
X174817993Y-105610925D01*
X174932007Y-105545099D01*
X175025099Y-105452007D01*
X175090925Y-105337993D01*
X175107962Y-105274409D01*
X175688181Y-105854628D01*
X175721666Y-105915951D01*
X175724500Y-105942308D01*
X175724500Y-106176517D01*
X175735292Y-106244657D01*
X175739354Y-106270304D01*
X175796950Y-106383342D01*
X175796952Y-106383344D01*
X175796954Y-106383347D01*
X175886652Y-106473045D01*
X175886654Y-106473046D01*
X175886658Y-106473050D01*
X175999694Y-106530645D01*
X175999698Y-106530647D01*
X176093475Y-106545499D01*
X176093481Y-106545500D01*
X178156518Y-106545499D01*
X178250304Y-106530646D01*
X178363342Y-106473050D01*
X178453050Y-106383342D01*
X178510646Y-106270304D01*
X178510646Y-106270302D01*
X178510647Y-106270301D01*
X178525120Y-106178918D01*
X178525500Y-106176519D01*
X178525499Y-104113482D01*
X178510646Y-104019696D01*
X178453050Y-103906658D01*
X178453046Y-103906654D01*
X178453045Y-103906652D01*
X178363347Y-103816954D01*
X178363344Y-103816952D01*
X178363342Y-103816950D01*
X178286517Y-103777805D01*
X178250301Y-103759352D01*
X178156524Y-103744500D01*
X176093482Y-103744500D01*
X176012519Y-103757323D01*
X175999696Y-103759354D01*
X175886658Y-103816950D01*
X175886657Y-103816951D01*
X175886652Y-103816954D01*
X175796954Y-103906652D01*
X175796951Y-103906657D01*
X175739352Y-104019698D01*
X175724500Y-104113475D01*
X175724500Y-104347691D01*
X175704815Y-104414730D01*
X175688181Y-104435372D01*
X175107962Y-105015590D01*
X175090925Y-104952007D01*
X175025099Y-104837993D01*
X174932007Y-104744901D01*
X174817993Y-104679075D01*
X174754409Y-104662037D01*
X175423797Y-103992647D01*
X175423797Y-103992645D01*
X175393360Y-103968955D01*
X175393354Y-103968951D01*
X175189302Y-103858523D01*
X175189293Y-103858520D01*
X174969860Y-103783188D01*
X174741007Y-103745000D01*
X174508993Y-103745000D01*
X174280139Y-103783188D01*
X174060706Y-103858520D01*
X174060697Y-103858523D01*
X173856650Y-103968949D01*
X173826200Y-103992647D01*
X174495591Y-104662037D01*
X174432007Y-104679075D01*
X174317993Y-104744901D01*
X174224901Y-104837993D01*
X174159075Y-104952007D01*
X174142037Y-105015590D01*
X173473811Y-104347364D01*
X173469030Y-104347860D01*
X173425960Y-104384617D01*
X173356729Y-104394041D01*
X173293393Y-104364539D01*
X173271489Y-104339260D01*
X173233983Y-104281852D01*
X173233980Y-104281849D01*
X173233979Y-104281847D01*
X173076784Y-104111087D01*
X173076779Y-104111083D01*
X173076777Y-104111081D01*
X172893634Y-103968535D01*
X172893628Y-103968531D01*
X172689504Y-103858064D01*
X172689495Y-103858061D01*
X172469984Y-103782702D01*
X172298282Y-103754050D01*
X172241049Y-103744500D01*
X172008951Y-103744500D01*
X171963164Y-103752140D01*
X171780015Y-103782702D01*
X171560504Y-103858061D01*
X171560495Y-103858064D01*
X171356371Y-103968531D01*
X171356365Y-103968535D01*
X171173222Y-104111081D01*
X171173219Y-104111084D01*
X171016016Y-104281852D01*
X170889075Y-104476151D01*
X170795842Y-104688699D01*
X170738866Y-104913691D01*
X170738864Y-104913702D01*
X170719700Y-105144993D01*
X109466500Y-105144993D01*
X109466500Y-97535994D01*
X111386754Y-97535994D01*
X111386754Y-97536005D01*
X111405718Y-97837446D01*
X111405719Y-97837453D01*
X111462320Y-98134164D01*
X111555659Y-98421431D01*
X111555661Y-98421436D01*
X111684265Y-98694732D01*
X111684268Y-98694738D01*
X111846111Y-98949763D01*
X112038652Y-99182505D01*
X112258836Y-99389272D01*
X112258846Y-99389280D01*
X112503193Y-99566808D01*
X112503198Y-99566810D01*
X112503205Y-99566816D01*
X112767896Y-99712332D01*
X112767901Y-99712334D01*
X112767903Y-99712335D01*
X112767904Y-99712336D01*
X113048734Y-99823524D01*
X113048737Y-99823525D01*
X113146259Y-99848564D01*
X113341302Y-99898642D01*
X113488039Y-99917179D01*
X113640963Y-99936499D01*
X113640969Y-99936499D01*
X113640973Y-99936500D01*
X113640975Y-99936500D01*
X113943025Y-99936500D01*
X113943027Y-99936500D01*
X113943032Y-99936499D01*
X113943036Y-99936499D01*
X114022591Y-99926448D01*
X114242698Y-99898642D01*
X114535262Y-99823525D01*
X114535265Y-99823524D01*
X114816095Y-99712336D01*
X114816096Y-99712335D01*
X114816094Y-99712335D01*
X114816104Y-99712332D01*
X115080795Y-99566816D01*
X115325162Y-99389274D01*
X115545349Y-99182504D01*
X115737885Y-98949768D01*
X115899733Y-98694736D01*
X116028341Y-98421430D01*
X116121681Y-98134160D01*
X116178280Y-97837457D01*
X116197246Y-97536000D01*
X116178280Y-97234543D01*
X116121681Y-96937840D01*
X116028341Y-96650570D01*
X116020879Y-96634713D01*
X115899734Y-96377267D01*
X115899733Y-96377264D01*
X115790094Y-96204500D01*
X115737888Y-96122236D01*
X115737885Y-96122232D01*
X115545349Y-95889496D01*
X115325162Y-95682726D01*
X115325159Y-95682724D01*
X115325153Y-95682719D01*
X115080806Y-95505191D01*
X115080799Y-95505186D01*
X115080795Y-95505184D01*
X114816104Y-95359668D01*
X114816101Y-95359666D01*
X114816096Y-95359664D01*
X114816095Y-95359663D01*
X114535265Y-95248475D01*
X114535262Y-95248474D01*
X114242695Y-95173357D01*
X113943036Y-95135500D01*
X113943027Y-95135500D01*
X113640973Y-95135500D01*
X113640963Y-95135500D01*
X113341304Y-95173357D01*
X113048737Y-95248474D01*
X113048734Y-95248475D01*
X112767904Y-95359663D01*
X112767903Y-95359664D01*
X112503205Y-95505184D01*
X112503193Y-95505191D01*
X112258846Y-95682719D01*
X112258836Y-95682727D01*
X112038652Y-95889494D01*
X111846111Y-96122236D01*
X111684268Y-96377261D01*
X111684265Y-96377267D01*
X111555661Y-96650563D01*
X111555659Y-96650568D01*
X111462320Y-96937835D01*
X111405719Y-97234546D01*
X111405718Y-97234553D01*
X111386754Y-97535994D01*
X109466500Y-97535994D01*
X109466500Y-74566000D01*
X112616571Y-74566000D01*
X112636244Y-74778310D01*
X112692340Y-74975465D01*
X112694596Y-74983392D01*
X112694596Y-74983394D01*
X112789632Y-75174253D01*
X112892899Y-75310999D01*
X112918128Y-75344407D01*
X113075698Y-75488052D01*
X113256981Y-75600298D01*
X113455802Y-75677321D01*
X113652613Y-75714111D01*
X113714893Y-75745779D01*
X113750166Y-75806092D01*
X113747232Y-75875900D01*
X113707023Y-75933040D01*
X113652613Y-75957888D01*
X113455802Y-75994679D01*
X113455799Y-75994679D01*
X113455799Y-75994680D01*
X113256982Y-76071701D01*
X113256980Y-76071702D01*
X113075699Y-76183947D01*
X112918127Y-76327593D01*
X112789632Y-76497746D01*
X112694596Y-76688605D01*
X112694596Y-76688607D01*
X112636244Y-76893689D01*
X112618147Y-77088997D01*
X112616571Y-77106000D01*
X112636244Y-77318310D01*
X112694504Y-77523070D01*
X112694595Y-77523388D01*
X112694596Y-77523394D01*
X112789632Y-77714253D01*
X112902178Y-77863286D01*
X112918128Y-77884407D01*
X113075698Y-78028052D01*
X113256981Y-78140298D01*
X113455802Y-78217321D01*
X113652613Y-78254111D01*
X113714893Y-78285779D01*
X113750166Y-78346092D01*
X113747232Y-78415900D01*
X113707023Y-78473040D01*
X113652613Y-78497888D01*
X113455802Y-78534679D01*
X113455799Y-78534679D01*
X113455799Y-78534680D01*
X113256982Y-78611701D01*
X113256980Y-78611702D01*
X113075699Y-78723947D01*
X112918127Y-78867593D01*
X112789632Y-79037746D01*
X112694596Y-79228605D01*
X112694596Y-79228607D01*
X112636244Y-79433689D01*
X112620693Y-79601520D01*
X112616571Y-79646000D01*
X112636244Y-79858310D01*
X112692340Y-80055465D01*
X112694596Y-80063392D01*
X112694596Y-80063394D01*
X112789632Y-80254253D01*
X112870141Y-80360863D01*
X112918128Y-80424407D01*
X113075698Y-80568052D01*
X113256981Y-80680298D01*
X113455802Y-80757321D01*
X113652613Y-80794111D01*
X113714893Y-80825779D01*
X113750166Y-80886092D01*
X113747232Y-80955900D01*
X113707023Y-81013040D01*
X113652613Y-81037888D01*
X113455802Y-81074679D01*
X113455799Y-81074679D01*
X113455799Y-81074680D01*
X113256982Y-81151701D01*
X113256980Y-81151702D01*
X113075699Y-81263947D01*
X112918127Y-81407593D01*
X112789632Y-81577746D01*
X112694596Y-81768605D01*
X112694596Y-81768607D01*
X112636244Y-81973689D01*
X112616571Y-82185999D01*
X112616571Y-82186000D01*
X112636244Y-82398310D01*
X112694596Y-82603392D01*
X112694596Y-82603394D01*
X112789632Y-82794253D01*
X112820987Y-82835773D01*
X112918128Y-82964407D01*
X113075698Y-83108052D01*
X113256981Y-83220298D01*
X113455802Y-83297321D01*
X113652613Y-83334111D01*
X113714893Y-83365779D01*
X113750166Y-83426092D01*
X113747232Y-83495900D01*
X113707023Y-83553040D01*
X113652613Y-83577888D01*
X113455802Y-83614679D01*
X113455799Y-83614679D01*
X113455799Y-83614680D01*
X113256982Y-83691701D01*
X113256980Y-83691702D01*
X113075699Y-83803947D01*
X112918127Y-83947593D01*
X112789632Y-84117746D01*
X112694596Y-84308605D01*
X112694596Y-84308607D01*
X112636244Y-84513689D01*
X112616571Y-84725999D01*
X112616571Y-84726000D01*
X112636244Y-84938310D01*
X112694596Y-85143392D01*
X112694596Y-85143394D01*
X112789632Y-85334253D01*
X112877483Y-85450585D01*
X112918128Y-85504407D01*
X113075698Y-85648052D01*
X113256981Y-85760298D01*
X113455802Y-85837321D01*
X113652613Y-85874111D01*
X113714893Y-85905779D01*
X113750166Y-85966092D01*
X113747232Y-86035900D01*
X113707023Y-86093040D01*
X113652613Y-86117888D01*
X113455802Y-86154679D01*
X113455799Y-86154679D01*
X113455799Y-86154680D01*
X113256982Y-86231701D01*
X113256980Y-86231702D01*
X113075699Y-86343947D01*
X112918127Y-86487593D01*
X112789632Y-86657746D01*
X112694596Y-86848605D01*
X112694596Y-86848607D01*
X112644378Y-87025104D01*
X112636244Y-87053690D01*
X112616571Y-87266000D01*
X112636244Y-87478310D01*
X112684012Y-87646196D01*
X112694596Y-87683392D01*
X112694596Y-87683394D01*
X112789632Y-87874253D01*
X112892900Y-88011000D01*
X112918128Y-88044407D01*
X113075698Y-88188052D01*
X113256981Y-88300298D01*
X113455802Y-88377321D01*
X113665390Y-88416500D01*
X113665392Y-88416500D01*
X113878608Y-88416500D01*
X113878610Y-88416500D01*
X114088198Y-88377321D01*
X114287019Y-88300298D01*
X114468302Y-88188052D01*
X114625872Y-88044407D01*
X114754366Y-87874255D01*
X114801100Y-87780400D01*
X114849403Y-87683394D01*
X114849403Y-87683393D01*
X114849405Y-87683389D01*
X114907756Y-87478310D01*
X114927429Y-87266000D01*
X114907756Y-87053690D01*
X114849405Y-86848611D01*
X114849403Y-86848606D01*
X114849403Y-86848605D01*
X114754367Y-86657746D01*
X114625872Y-86487593D01*
X114468302Y-86343948D01*
X114287019Y-86231702D01*
X114287017Y-86231701D01*
X114187608Y-86193190D01*
X114088198Y-86154679D01*
X113891385Y-86117888D01*
X113829106Y-86086221D01*
X113793833Y-86025908D01*
X113796767Y-85956100D01*
X113836976Y-85898960D01*
X113891384Y-85874111D01*
X114088198Y-85837321D01*
X114287019Y-85760298D01*
X114468302Y-85648052D01*
X114625872Y-85504407D01*
X114723013Y-85375773D01*
X114779122Y-85334137D01*
X114821967Y-85326500D01*
X115286903Y-85326500D01*
X115353942Y-85346185D01*
X115374583Y-85362818D01*
X126885284Y-96873520D01*
X126885286Y-96873521D01*
X126885290Y-96873524D01*
X127022209Y-96952573D01*
X127022216Y-96952577D01*
X127174943Y-96993501D01*
X127174945Y-96993501D01*
X127340654Y-96993501D01*
X127340670Y-96993500D01*
X140121331Y-96993500D01*
X140121347Y-96993501D01*
X140128943Y-96993501D01*
X140287054Y-96993501D01*
X140287057Y-96993501D01*
X140439785Y-96952577D01*
X140489904Y-96923639D01*
X140560102Y-96883111D01*
X140622099Y-96866500D01*
X140756331Y-96866500D01*
X140756347Y-96866501D01*
X140763943Y-96866501D01*
X140922054Y-96866501D01*
X140922057Y-96866501D01*
X141074785Y-96825577D01*
X141124904Y-96796639D01*
X141211716Y-96746520D01*
X141323520Y-96634716D01*
X141323520Y-96634714D01*
X141333728Y-96624507D01*
X141333730Y-96624504D01*
X144290122Y-93668111D01*
X144348124Y-93635398D01*
X144395225Y-93623790D01*
X144545852Y-93544734D01*
X144673183Y-93431929D01*
X144769818Y-93291930D01*
X144830140Y-93132872D01*
X144850645Y-92964000D01*
X144830140Y-92795128D01*
X144769818Y-92636070D01*
X144673183Y-92496071D01*
X144572424Y-92406807D01*
X144545849Y-92383263D01*
X144395226Y-92304210D01*
X144230056Y-92263500D01*
X144059944Y-92263500D01*
X143894773Y-92304210D01*
X143744150Y-92383263D01*
X143616816Y-92496072D01*
X143520182Y-92636068D01*
X143520182Y-92636069D01*
X143466380Y-92777934D01*
X143438119Y-92821644D01*
X140630584Y-95629181D01*
X140569261Y-95662666D01*
X140542903Y-95665500D01*
X140414057Y-95665500D01*
X140255943Y-95665500D01*
X140103215Y-95706423D01*
X140103214Y-95706423D01*
X140103212Y-95706424D01*
X140103209Y-95706425D01*
X140058053Y-95732497D01*
X140058052Y-95732498D01*
X140017032Y-95756181D01*
X139982898Y-95775888D01*
X139920899Y-95792500D01*
X127554098Y-95792500D01*
X127487059Y-95772815D01*
X127466417Y-95756181D01*
X116074590Y-84364355D01*
X116074588Y-84364352D01*
X115955717Y-84245481D01*
X115955716Y-84245480D01*
X115868904Y-84195360D01*
X115868904Y-84195359D01*
X115868900Y-84195358D01*
X115818785Y-84166423D01*
X115666057Y-84125499D01*
X115507943Y-84125499D01*
X115500347Y-84125499D01*
X115500331Y-84125500D01*
X114821967Y-84125500D01*
X114754928Y-84105815D01*
X114723013Y-84076227D01*
X114625872Y-83947593D01*
X114581264Y-83906927D01*
X114468302Y-83803948D01*
X114287019Y-83691702D01*
X114287017Y-83691701D01*
X114187608Y-83653190D01*
X114088198Y-83614679D01*
X113891385Y-83577888D01*
X113829106Y-83546221D01*
X113793833Y-83485908D01*
X113796767Y-83416100D01*
X113836976Y-83358960D01*
X113891384Y-83334111D01*
X114088198Y-83297321D01*
X114287019Y-83220298D01*
X114468302Y-83108052D01*
X114625872Y-82964407D01*
X114723013Y-82835773D01*
X114779122Y-82794137D01*
X114821967Y-82786500D01*
X115032903Y-82786500D01*
X115099942Y-82806185D01*
X115120584Y-82822819D01*
X118006139Y-85708374D01*
X118006149Y-85708385D01*
X118010479Y-85712715D01*
X118010480Y-85712716D01*
X118122284Y-85824520D01*
X118122286Y-85824521D01*
X118122290Y-85824524D01*
X118251219Y-85898960D01*
X118259216Y-85903577D01*
X118371019Y-85933534D01*
X118411942Y-85944500D01*
X118411943Y-85944500D01*
X119841903Y-85944500D01*
X119908942Y-85964185D01*
X119929583Y-85980818D01*
X126631284Y-92682520D01*
X126631286Y-92682521D01*
X126631290Y-92682524D01*
X126768209Y-92761573D01*
X126768212Y-92761575D01*
X126768216Y-92761577D01*
X126920943Y-92802501D01*
X126920945Y-92802501D01*
X127086654Y-92802501D01*
X127086670Y-92802500D01*
X142280331Y-92802500D01*
X142280347Y-92802501D01*
X142287943Y-92802501D01*
X142446054Y-92802501D01*
X142446057Y-92802501D01*
X142598785Y-92761577D01*
X142598787Y-92761575D01*
X142598789Y-92761575D01*
X142598790Y-92761574D01*
X142649640Y-92732216D01*
X142649641Y-92732215D01*
X142735716Y-92682520D01*
X142847520Y-92570716D01*
X142847520Y-92570714D01*
X142857724Y-92560511D01*
X142857727Y-92560506D01*
X144290123Y-91128111D01*
X144348125Y-91095398D01*
X144395225Y-91083790D01*
X144545852Y-91004734D01*
X144673183Y-90891929D01*
X144769818Y-90751930D01*
X144830140Y-90592872D01*
X144850645Y-90424000D01*
X144830140Y-90255128D01*
X144823618Y-90237932D01*
X144788943Y-90146499D01*
X144769818Y-90096070D01*
X144673183Y-89956071D01*
X144545852Y-89843266D01*
X144545849Y-89843263D01*
X144395226Y-89764210D01*
X144230056Y-89723500D01*
X144059944Y-89723500D01*
X143894773Y-89764210D01*
X143744150Y-89843263D01*
X143616816Y-89956072D01*
X143520182Y-90096068D01*
X143520182Y-90096069D01*
X143466381Y-90237932D01*
X143438120Y-90281642D01*
X142154584Y-91565181D01*
X142093261Y-91598666D01*
X142066903Y-91601500D01*
X127300098Y-91601500D01*
X127233059Y-91581815D01*
X127212417Y-91565181D01*
X120629590Y-84982355D01*
X120629588Y-84982352D01*
X120510717Y-84863481D01*
X120510716Y-84863480D01*
X120418778Y-84810400D01*
X120418776Y-84810398D01*
X120373788Y-84784424D01*
X120373787Y-84784423D01*
X120312693Y-84768053D01*
X120221057Y-84743499D01*
X120062943Y-84743499D01*
X120055347Y-84743499D01*
X120055331Y-84743500D01*
X118791097Y-84743500D01*
X118724058Y-84723815D01*
X118703416Y-84707181D01*
X115820590Y-81824355D01*
X115820588Y-81824352D01*
X115701717Y-81705481D01*
X115701709Y-81705475D01*
X115586197Y-81638785D01*
X115586197Y-81638784D01*
X115586192Y-81638783D01*
X115578722Y-81634469D01*
X115564786Y-81626423D01*
X115526603Y-81616192D01*
X115412057Y-81585499D01*
X115253943Y-81585499D01*
X115246347Y-81585499D01*
X115246331Y-81585500D01*
X114821967Y-81585500D01*
X114754928Y-81565815D01*
X114723013Y-81536227D01*
X114625872Y-81407593D01*
X114468302Y-81263948D01*
X114287019Y-81151702D01*
X114287017Y-81151701D01*
X114131618Y-81091500D01*
X114088198Y-81074679D01*
X113891385Y-81037888D01*
X113829106Y-81006221D01*
X113793833Y-80945908D01*
X113796767Y-80876100D01*
X113836976Y-80818960D01*
X113891384Y-80794111D01*
X114088198Y-80757321D01*
X114287019Y-80680298D01*
X114468302Y-80568052D01*
X114625872Y-80424407D01*
X114723013Y-80295773D01*
X114779122Y-80254137D01*
X114821967Y-80246500D01*
X115286903Y-80246500D01*
X115353942Y-80266185D01*
X115374584Y-80282819D01*
X119149139Y-84057374D01*
X119149149Y-84057385D01*
X119153479Y-84061715D01*
X119153480Y-84061716D01*
X119265284Y-84173520D01*
X119328297Y-84209900D01*
X119362527Y-84229663D01*
X119402212Y-84252576D01*
X119402214Y-84252576D01*
X119402215Y-84252577D01*
X119554942Y-84293500D01*
X119554943Y-84293500D01*
X120603903Y-84293500D01*
X120670942Y-84313185D01*
X120691583Y-84329818D01*
X127393284Y-91031520D01*
X127393286Y-91031521D01*
X127393290Y-91031524D01*
X127530209Y-91110573D01*
X127530216Y-91110577D01*
X127682943Y-91151501D01*
X127682945Y-91151501D01*
X127848654Y-91151501D01*
X127848670Y-91151500D01*
X138724331Y-91151500D01*
X138724347Y-91151501D01*
X138731943Y-91151501D01*
X138890054Y-91151501D01*
X138890057Y-91151501D01*
X139042785Y-91110577D01*
X139092904Y-91081639D01*
X139179716Y-91031520D01*
X139291520Y-90919716D01*
X139291520Y-90919714D01*
X139301728Y-90909507D01*
X139301729Y-90909504D01*
X140664017Y-89547219D01*
X140725340Y-89513734D01*
X140751698Y-89510900D01*
X142491646Y-89510900D01*
X142549271Y-89525103D01*
X142635175Y-89570190D01*
X142800344Y-89610900D01*
X142970456Y-89610900D01*
X143135625Y-89570190D01*
X143233717Y-89518707D01*
X143286249Y-89491136D01*
X143286250Y-89491134D01*
X143286252Y-89491134D01*
X143413583Y-89378329D01*
X143510218Y-89238330D01*
X143570540Y-89079272D01*
X143591045Y-88910400D01*
X143570540Y-88741528D01*
X143568803Y-88736949D01*
X143510217Y-88582468D01*
X143462378Y-88513162D01*
X143413583Y-88442471D01*
X143310137Y-88350826D01*
X143286249Y-88329663D01*
X143135626Y-88250610D01*
X142970456Y-88209900D01*
X142800344Y-88209900D01*
X142635175Y-88250609D01*
X142577571Y-88280843D01*
X142549271Y-88295696D01*
X142491646Y-88309900D01*
X140538270Y-88309900D01*
X140538254Y-88309899D01*
X140530658Y-88309899D01*
X140372543Y-88309899D01*
X140298784Y-88329663D01*
X140219814Y-88350823D01*
X140219809Y-88350826D01*
X140082890Y-88429875D01*
X140082882Y-88429881D01*
X138598584Y-89914181D01*
X138537261Y-89947666D01*
X138510903Y-89950500D01*
X137004097Y-89950500D01*
X136937058Y-89930815D01*
X136891303Y-89878011D01*
X136881359Y-89808853D01*
X136910384Y-89745297D01*
X136916416Y-89738819D01*
X137416107Y-89239129D01*
X138007417Y-88647819D01*
X138068740Y-88614334D01*
X138095098Y-88611500D01*
X138544246Y-88611500D01*
X138601871Y-88625703D01*
X138687775Y-88670790D01*
X138852944Y-88711500D01*
X139023056Y-88711500D01*
X139188225Y-88670790D01*
X139295792Y-88614334D01*
X139338849Y-88591736D01*
X139338850Y-88591734D01*
X139338852Y-88591734D01*
X139466183Y-88478929D01*
X139562818Y-88338930D01*
X139623140Y-88179872D01*
X139643645Y-88011000D01*
X139623140Y-87842128D01*
X139610007Y-87807500D01*
X139586899Y-87746568D01*
X139562818Y-87683070D01*
X139466183Y-87543071D01*
X139362737Y-87451426D01*
X139338849Y-87430263D01*
X139188226Y-87351210D01*
X139023056Y-87310500D01*
X138852944Y-87310500D01*
X138687775Y-87351209D01*
X138630171Y-87381443D01*
X138601871Y-87396296D01*
X138544246Y-87410500D01*
X137881670Y-87410500D01*
X137881654Y-87410499D01*
X137874058Y-87410499D01*
X137715943Y-87410499D01*
X137642184Y-87430263D01*
X137563214Y-87451423D01*
X137563209Y-87451426D01*
X137426290Y-87530475D01*
X137426282Y-87530481D01*
X135931584Y-89025181D01*
X135870261Y-89058666D01*
X135843903Y-89061500D01*
X129078097Y-89061500D01*
X129011058Y-89041815D01*
X128990416Y-89025181D01*
X127897380Y-87932145D01*
X127869119Y-87888434D01*
X127863741Y-87874253D01*
X127815318Y-87746570D01*
X127718683Y-87606571D01*
X127591352Y-87493766D01*
X127591349Y-87493763D01*
X127440726Y-87414710D01*
X127275556Y-87374000D01*
X127105444Y-87374000D01*
X126940273Y-87414710D01*
X126789650Y-87493763D01*
X126662316Y-87606572D01*
X126565682Y-87746568D01*
X126505360Y-87905625D01*
X126505359Y-87905630D01*
X126484855Y-88074500D01*
X126489929Y-88116289D01*
X126478468Y-88185212D01*
X126431565Y-88236998D01*
X126364109Y-88255205D01*
X126297518Y-88234052D01*
X126279152Y-88218916D01*
X121391590Y-83331355D01*
X121391588Y-83331352D01*
X121272717Y-83212481D01*
X121272709Y-83212475D01*
X121184200Y-83161375D01*
X121184199Y-83161375D01*
X121135785Y-83133423D01*
X120983057Y-83092499D01*
X120824943Y-83092499D01*
X120817347Y-83092499D01*
X120817331Y-83092500D01*
X119934097Y-83092500D01*
X119867058Y-83072815D01*
X119846416Y-83056181D01*
X116074590Y-79284355D01*
X116074588Y-79284352D01*
X115955717Y-79165481D01*
X115955709Y-79165475D01*
X115849734Y-79104291D01*
X115849731Y-79104290D01*
X115818787Y-79086424D01*
X115818786Y-79086423D01*
X115818785Y-79086423D01*
X115666057Y-79045499D01*
X115507943Y-79045499D01*
X115500347Y-79045499D01*
X115500331Y-79045500D01*
X114821967Y-79045500D01*
X114754928Y-79025815D01*
X114723013Y-78996227D01*
X114625872Y-78867593D01*
X114600387Y-78844360D01*
X114468302Y-78723948D01*
X114287019Y-78611702D01*
X114287017Y-78611701D01*
X114121293Y-78547500D01*
X114088198Y-78534679D01*
X113891385Y-78497888D01*
X113829106Y-78466221D01*
X113793833Y-78405908D01*
X113796767Y-78336100D01*
X113836976Y-78278960D01*
X113891384Y-78254111D01*
X114088198Y-78217321D01*
X114287019Y-78140298D01*
X114468302Y-78028052D01*
X114625872Y-77884407D01*
X114716746Y-77764072D01*
X114723013Y-77755773D01*
X114779122Y-77714137D01*
X114821967Y-77706500D01*
X115032903Y-77706500D01*
X115099942Y-77726185D01*
X115120584Y-77742819D01*
X116863139Y-79485374D01*
X116863149Y-79485385D01*
X116867479Y-79489715D01*
X116867480Y-79489716D01*
X116979284Y-79601520D01*
X116979286Y-79601521D01*
X116979290Y-79601524D01*
X117056326Y-79646000D01*
X117116216Y-79680577D01*
X117199639Y-79702930D01*
X117268942Y-79721500D01*
X117268943Y-79721500D01*
X117936903Y-79721500D01*
X118003942Y-79741185D01*
X118024584Y-79757819D01*
X120038139Y-81771374D01*
X120038149Y-81771385D01*
X120042479Y-81775715D01*
X120042480Y-81775716D01*
X120154284Y-81887520D01*
X120241095Y-81937639D01*
X120241097Y-81937641D01*
X120284921Y-81962943D01*
X120291215Y-81966577D01*
X120443942Y-82007500D01*
X120443943Y-82007500D01*
X125175903Y-82007500D01*
X125242942Y-82027185D01*
X125263584Y-82043819D01*
X126481583Y-83261819D01*
X126515068Y-83323142D01*
X126510084Y-83392834D01*
X126468212Y-83448767D01*
X126402748Y-83473184D01*
X126393902Y-83473500D01*
X123871098Y-83473500D01*
X123804059Y-83453815D01*
X123783417Y-83437181D01*
X123642880Y-83296644D01*
X123614619Y-83252934D01*
X123599277Y-83212481D01*
X123560818Y-83111070D01*
X123547999Y-83092499D01*
X123522931Y-83056181D01*
X123464183Y-82971071D01*
X123336852Y-82858266D01*
X123336849Y-82858263D01*
X123186226Y-82779210D01*
X123021056Y-82738500D01*
X122850944Y-82738500D01*
X122685773Y-82779210D01*
X122535150Y-82858263D01*
X122407816Y-82971072D01*
X122311182Y-83111068D01*
X122250860Y-83270125D01*
X122250859Y-83270130D01*
X122230355Y-83439000D01*
X122250859Y-83607869D01*
X122250860Y-83607874D01*
X122311182Y-83766931D01*
X122373475Y-83857177D01*
X122407817Y-83906929D01*
X122535148Y-84019734D01*
X122685775Y-84098790D01*
X122732871Y-84110397D01*
X122790877Y-84143112D01*
X123202284Y-84554520D01*
X123202286Y-84554521D01*
X123202290Y-84554524D01*
X123339209Y-84633573D01*
X123339216Y-84633577D01*
X123491943Y-84674501D01*
X123491945Y-84674501D01*
X123657654Y-84674501D01*
X123657670Y-84674500D01*
X135335903Y-84674500D01*
X135402942Y-84694185D01*
X135423583Y-84710818D01*
X137603684Y-86890920D01*
X137603686Y-86890921D01*
X137603690Y-86890924D01*
X137740609Y-86969973D01*
X137740616Y-86969977D01*
X137893343Y-87010901D01*
X137893345Y-87010901D01*
X138059054Y-87010901D01*
X138059070Y-87010900D01*
X140144846Y-87010900D01*
X140202471Y-87025103D01*
X140288375Y-87070190D01*
X140453544Y-87110900D01*
X140623656Y-87110900D01*
X140788825Y-87070190D01*
X140901790Y-87010901D01*
X140939449Y-86991136D01*
X140939450Y-86991134D01*
X140939452Y-86991134D01*
X141066783Y-86878329D01*
X141163418Y-86738330D01*
X141223740Y-86579272D01*
X141244245Y-86410400D01*
X141223740Y-86241528D01*
X141163418Y-86082470D01*
X141066783Y-85942471D01*
X140948093Y-85837321D01*
X140939449Y-85829663D01*
X140788826Y-85750610D01*
X140765570Y-85744878D01*
X140705189Y-85709721D01*
X140673401Y-85647502D01*
X140672427Y-85617901D01*
X140672045Y-85617901D01*
X140672045Y-85614853D01*
X140672298Y-85613990D01*
X140672151Y-85609515D01*
X140672951Y-85602935D01*
X140675455Y-85603239D01*
X140691730Y-85547814D01*
X140744534Y-85502059D01*
X140766366Y-85494457D01*
X140864825Y-85470190D01*
X140915640Y-85443520D01*
X141015449Y-85391136D01*
X141015450Y-85391134D01*
X141015452Y-85391134D01*
X141142783Y-85278329D01*
X141239418Y-85138330D01*
X141275930Y-85042054D01*
X148624498Y-85042054D01*
X148665423Y-85194786D01*
X148678697Y-85217775D01*
X148678698Y-85217780D01*
X148678700Y-85217780D01*
X148741469Y-85326500D01*
X148744479Y-85331714D01*
X148744481Y-85331717D01*
X148863349Y-85450585D01*
X148863355Y-85450590D01*
X152525181Y-89112416D01*
X152558666Y-89173739D01*
X152561500Y-89200097D01*
X152561500Y-98719330D01*
X152561499Y-98719348D01*
X152561499Y-98885054D01*
X152561498Y-98885054D01*
X152602423Y-99037785D01*
X152631358Y-99087900D01*
X152631359Y-99087904D01*
X152631360Y-99087904D01*
X152681479Y-99174714D01*
X152681481Y-99174717D01*
X152800349Y-99293585D01*
X152800355Y-99293590D01*
X154106119Y-100599355D01*
X154134380Y-100643065D01*
X154188182Y-100784930D01*
X154188182Y-100784931D01*
X154250475Y-100875177D01*
X154284817Y-100924929D01*
X154390505Y-101018560D01*
X154412150Y-101037736D01*
X154562773Y-101116789D01*
X154562775Y-101116790D01*
X154727944Y-101157500D01*
X154898056Y-101157500D01*
X155063225Y-101116790D01*
X155142692Y-101075081D01*
X155213849Y-101037736D01*
X155213850Y-101037734D01*
X155213852Y-101037734D01*
X155341183Y-100924929D01*
X155437818Y-100784930D01*
X155498140Y-100625872D01*
X155518645Y-100457000D01*
X155498140Y-100288128D01*
X155437818Y-100129070D01*
X155341183Y-99989071D01*
X155213852Y-99876266D01*
X155213849Y-99876263D01*
X155063227Y-99797210D01*
X155016126Y-99785601D01*
X154958121Y-99752885D01*
X153798819Y-98593583D01*
X153765334Y-98532260D01*
X153762500Y-98505902D01*
X153762500Y-97535994D01*
X176886754Y-97535994D01*
X176886754Y-97536005D01*
X176905718Y-97837446D01*
X176905719Y-97837453D01*
X176962320Y-98134164D01*
X177055659Y-98421431D01*
X177055661Y-98421436D01*
X177184265Y-98694732D01*
X177184268Y-98694738D01*
X177346111Y-98949763D01*
X177538652Y-99182505D01*
X177758836Y-99389272D01*
X177758846Y-99389280D01*
X178003193Y-99566808D01*
X178003198Y-99566810D01*
X178003205Y-99566816D01*
X178267896Y-99712332D01*
X178267901Y-99712334D01*
X178267903Y-99712335D01*
X178267904Y-99712336D01*
X178548734Y-99823524D01*
X178548737Y-99823525D01*
X178646259Y-99848564D01*
X178841302Y-99898642D01*
X178988039Y-99917179D01*
X179140963Y-99936499D01*
X179140969Y-99936499D01*
X179140973Y-99936500D01*
X179140975Y-99936500D01*
X179443025Y-99936500D01*
X179443027Y-99936500D01*
X179443032Y-99936499D01*
X179443036Y-99936499D01*
X179522591Y-99926448D01*
X179742698Y-99898642D01*
X180035262Y-99823525D01*
X180035265Y-99823524D01*
X180316095Y-99712336D01*
X180316096Y-99712335D01*
X180316094Y-99712335D01*
X180316104Y-99712332D01*
X180580795Y-99566816D01*
X180825162Y-99389274D01*
X181045349Y-99182504D01*
X181237885Y-98949768D01*
X181399733Y-98694736D01*
X181528341Y-98421430D01*
X181621681Y-98134160D01*
X181678280Y-97837457D01*
X181697246Y-97536000D01*
X181678280Y-97234543D01*
X181621681Y-96937840D01*
X181528341Y-96650570D01*
X181520879Y-96634713D01*
X181399734Y-96377267D01*
X181399733Y-96377264D01*
X181290094Y-96204500D01*
X181237888Y-96122236D01*
X181237885Y-96122232D01*
X181045349Y-95889496D01*
X180825162Y-95682726D01*
X180825159Y-95682724D01*
X180825153Y-95682719D01*
X180580806Y-95505191D01*
X180580799Y-95505186D01*
X180580795Y-95505184D01*
X180316104Y-95359668D01*
X180316101Y-95359666D01*
X180316096Y-95359664D01*
X180316095Y-95359663D01*
X180035265Y-95248475D01*
X180035262Y-95248474D01*
X179742695Y-95173357D01*
X179443036Y-95135500D01*
X179443027Y-95135500D01*
X179140973Y-95135500D01*
X179140963Y-95135500D01*
X178841304Y-95173357D01*
X178548737Y-95248474D01*
X178548734Y-95248475D01*
X178267904Y-95359663D01*
X178267903Y-95359664D01*
X178003205Y-95505184D01*
X178003193Y-95505191D01*
X177758846Y-95682719D01*
X177758836Y-95682727D01*
X177538652Y-95889494D01*
X177346111Y-96122236D01*
X177184268Y-96377261D01*
X177184265Y-96377267D01*
X177055661Y-96650563D01*
X177055659Y-96650568D01*
X176962320Y-96937835D01*
X176905719Y-97234546D01*
X176905718Y-97234553D01*
X176886754Y-97535994D01*
X153762500Y-97535994D01*
X153762500Y-93916500D01*
X169283855Y-93916500D01*
X169304359Y-94085369D01*
X169304360Y-94085374D01*
X169364682Y-94244431D01*
X169426975Y-94334677D01*
X169461317Y-94384429D01*
X169567005Y-94478060D01*
X169588650Y-94497236D01*
X169718246Y-94565253D01*
X169739275Y-94576290D01*
X169904444Y-94617000D01*
X170074556Y-94617000D01*
X170208026Y-94584103D01*
X170237701Y-94580500D01*
X180801903Y-94580500D01*
X180868942Y-94600185D01*
X180889584Y-94616819D01*
X181919119Y-95646354D01*
X181947380Y-95690064D01*
X182001182Y-95831931D01*
X182040916Y-95889494D01*
X182097817Y-95971929D01*
X182203505Y-96065560D01*
X182225150Y-96084736D01*
X182375773Y-96163789D01*
X182375775Y-96163790D01*
X182540944Y-96204500D01*
X182711056Y-96204500D01*
X182876225Y-96163790D01*
X182955692Y-96122081D01*
X183026849Y-96084736D01*
X183026850Y-96084734D01*
X183026852Y-96084734D01*
X183154183Y-95971929D01*
X183250818Y-95831930D01*
X183311140Y-95672872D01*
X183331645Y-95504000D01*
X183311140Y-95335128D01*
X183250818Y-95176070D01*
X183248945Y-95173357D01*
X183168740Y-95057161D01*
X183154183Y-95036071D01*
X183026852Y-94923266D01*
X183026849Y-94923263D01*
X182876226Y-94844210D01*
X182829126Y-94832601D01*
X182771120Y-94799885D01*
X181589590Y-93618355D01*
X181589588Y-93618352D01*
X181470717Y-93499481D01*
X181470716Y-93499480D01*
X181376112Y-93444861D01*
X181376111Y-93444860D01*
X181333783Y-93420422D01*
X181277881Y-93405443D01*
X181181057Y-93379499D01*
X181022943Y-93379499D01*
X181015347Y-93379499D01*
X181015331Y-93379500D01*
X170486745Y-93379500D01*
X170419706Y-93359815D01*
X170404519Y-93348317D01*
X170390349Y-93335763D01*
X170239726Y-93256710D01*
X170074556Y-93216000D01*
X169904444Y-93216000D01*
X169739273Y-93256710D01*
X169588650Y-93335763D01*
X169461316Y-93448572D01*
X169364682Y-93588568D01*
X169304360Y-93747625D01*
X169304359Y-93747630D01*
X169283855Y-93916500D01*
X153762500Y-93916500D01*
X153762500Y-90146499D01*
X157432855Y-90146499D01*
X157437096Y-90181426D01*
X157438000Y-90196373D01*
X157438000Y-90215498D01*
X157445383Y-90252620D01*
X157446861Y-90261858D01*
X157453359Y-90315370D01*
X157453360Y-90315371D01*
X157459178Y-90330712D01*
X157464854Y-90350495D01*
X157464920Y-90350827D01*
X157464920Y-90350829D01*
X157486546Y-90403038D01*
X157487927Y-90406519D01*
X157513682Y-90474430D01*
X157513683Y-90474431D01*
X157558472Y-90539320D01*
X157559524Y-90540869D01*
X157594385Y-90593042D01*
X157598251Y-90597753D01*
X157597871Y-90598064D01*
X157604561Y-90606091D01*
X157610312Y-90614423D01*
X157610321Y-90614433D01*
X157655328Y-90654305D01*
X157660783Y-90659440D01*
X158858453Y-91857111D01*
X158858454Y-91857112D01*
X158973192Y-91933777D01*
X159100667Y-91986578D01*
X159100672Y-91986580D01*
X159100676Y-91986580D01*
X159100677Y-91986581D01*
X159236004Y-92013500D01*
X159236007Y-92013500D01*
X164025996Y-92013500D01*
X164144793Y-91989869D01*
X164161328Y-91986580D01*
X164225069Y-91960177D01*
X164288807Y-91933777D01*
X164288808Y-91933776D01*
X164288811Y-91933775D01*
X164403543Y-91857114D01*
X166339731Y-89920924D01*
X166345151Y-89915822D01*
X166390183Y-89875929D01*
X166395932Y-89867598D01*
X166402639Y-89859586D01*
X166402242Y-89859261D01*
X166406105Y-89854551D01*
X166406114Y-89854543D01*
X166441081Y-89802208D01*
X166441929Y-89800960D01*
X166486818Y-89735930D01*
X166512587Y-89667978D01*
X166513926Y-89664601D01*
X166535580Y-89612328D01*
X166535646Y-89611996D01*
X166541321Y-89592211D01*
X166547140Y-89576872D01*
X166553637Y-89523358D01*
X166555116Y-89514110D01*
X166555212Y-89513632D01*
X166562500Y-89476994D01*
X166562500Y-89457873D01*
X166563404Y-89442926D01*
X166567645Y-89408000D01*
X166563404Y-89373071D01*
X166562500Y-89358125D01*
X166562500Y-89339007D01*
X166562500Y-89339006D01*
X166555111Y-89301864D01*
X166553637Y-89292641D01*
X166547140Y-89239129D01*
X166546837Y-89238331D01*
X166541321Y-89223784D01*
X166535647Y-89204008D01*
X166535581Y-89203677D01*
X166535580Y-89203671D01*
X166513942Y-89151435D01*
X166512572Y-89147981D01*
X166486818Y-89080070D01*
X166460412Y-89041815D01*
X166442015Y-89015162D01*
X166440963Y-89013612D01*
X166406115Y-88961458D01*
X166402245Y-88956742D01*
X166402624Y-88956430D01*
X166395936Y-88948405D01*
X166390185Y-88940073D01*
X166390183Y-88940071D01*
X166345152Y-88900177D01*
X166339715Y-88895058D01*
X166308549Y-88863891D01*
X166308545Y-88863888D01*
X166308544Y-88863887D01*
X166308543Y-88863886D01*
X166297835Y-88856731D01*
X166284505Y-88846448D01*
X166262856Y-88827269D01*
X166262851Y-88827265D01*
X166226165Y-88808010D01*
X166214906Y-88801319D01*
X166193817Y-88787228D01*
X166193804Y-88787221D01*
X166164606Y-88775127D01*
X166154438Y-88770365D01*
X166112225Y-88748210D01*
X166090208Y-88742783D01*
X166072432Y-88736948D01*
X166066329Y-88734420D01*
X166066326Y-88734419D01*
X166016998Y-88724607D01*
X166011516Y-88723387D01*
X165947057Y-88707500D01*
X165947056Y-88707500D01*
X165776944Y-88707500D01*
X165776941Y-88707500D01*
X165712501Y-88723382D01*
X165707023Y-88724602D01*
X165657671Y-88734420D01*
X165651565Y-88736949D01*
X165633797Y-88742781D01*
X165611775Y-88748209D01*
X165569561Y-88770365D01*
X165559393Y-88775127D01*
X165530192Y-88787223D01*
X165530186Y-88787226D01*
X165509090Y-88801321D01*
X165497834Y-88808010D01*
X165461149Y-88827264D01*
X165439493Y-88846450D01*
X165426165Y-88856730D01*
X165415462Y-88863882D01*
X165415456Y-88863887D01*
X165384279Y-88895062D01*
X165378830Y-88900190D01*
X165333820Y-88940067D01*
X165333818Y-88940069D01*
X165328056Y-88948416D01*
X165313693Y-88965648D01*
X163703162Y-90576181D01*
X163641839Y-90609666D01*
X163615481Y-90612500D01*
X159646519Y-90612500D01*
X159579480Y-90592815D01*
X159558838Y-90576181D01*
X158686807Y-89704150D01*
X158672440Y-89686912D01*
X158666683Y-89678571D01*
X158621652Y-89638677D01*
X158616215Y-89633558D01*
X158585049Y-89602391D01*
X158585045Y-89602388D01*
X158585044Y-89602387D01*
X158585043Y-89602386D01*
X158574335Y-89595231D01*
X158561005Y-89584948D01*
X158539356Y-89565769D01*
X158539347Y-89565763D01*
X158502663Y-89546508D01*
X158491408Y-89539820D01*
X158470309Y-89525723D01*
X158470306Y-89525722D01*
X158441117Y-89513632D01*
X158430945Y-89508868D01*
X158388726Y-89486710D01*
X158373657Y-89482996D01*
X158366704Y-89481282D01*
X158348931Y-89475448D01*
X158342828Y-89472920D01*
X158342826Y-89472919D01*
X158342825Y-89472919D01*
X158342824Y-89472918D01*
X158293486Y-89463104D01*
X158288006Y-89461884D01*
X158223558Y-89446000D01*
X158223556Y-89446000D01*
X158053444Y-89446000D01*
X158053441Y-89446000D01*
X157989001Y-89461882D01*
X157983523Y-89463102D01*
X157934171Y-89472920D01*
X157928065Y-89475449D01*
X157910297Y-89481281D01*
X157888275Y-89486709D01*
X157846061Y-89508865D01*
X157835893Y-89513627D01*
X157806692Y-89525723D01*
X157806686Y-89525726D01*
X157785590Y-89539821D01*
X157774334Y-89546510D01*
X157737649Y-89565764D01*
X157715993Y-89584950D01*
X157702665Y-89595230D01*
X157691962Y-89602382D01*
X157691956Y-89602387D01*
X157660779Y-89633562D01*
X157655330Y-89638690D01*
X157610320Y-89678567D01*
X157610315Y-89678572D01*
X157604554Y-89686918D01*
X157597886Y-89694952D01*
X157598248Y-89695249D01*
X157594390Y-89699950D01*
X157559482Y-89752192D01*
X157558431Y-89753739D01*
X157513683Y-89818568D01*
X157513681Y-89818571D01*
X157487936Y-89886453D01*
X157486558Y-89889928D01*
X157464919Y-89942173D01*
X157464918Y-89942178D01*
X157464853Y-89942506D01*
X157459180Y-89962281D01*
X157453359Y-89977629D01*
X157446861Y-90031143D01*
X157445383Y-90040382D01*
X157438000Y-90077504D01*
X157438000Y-90096625D01*
X157437096Y-90111571D01*
X157432855Y-90146499D01*
X153762500Y-90146499D01*
X153762500Y-88989060D01*
X153762501Y-88989047D01*
X153762501Y-88820945D01*
X153762501Y-88820943D01*
X153721577Y-88668215D01*
X153642520Y-88531284D01*
X149861819Y-84750583D01*
X149828334Y-84689260D01*
X149825500Y-84662902D01*
X149825500Y-82342097D01*
X149845185Y-82275058D01*
X149861819Y-82254416D01*
X150834416Y-81281819D01*
X150895739Y-81248334D01*
X150922097Y-81245500D01*
X150991446Y-81245500D01*
X151049071Y-81259703D01*
X151134975Y-81304790D01*
X151300144Y-81345500D01*
X151470256Y-81345500D01*
X151635425Y-81304790D01*
X151742992Y-81248334D01*
X151786049Y-81225736D01*
X151786050Y-81225734D01*
X151786052Y-81225734D01*
X151913383Y-81112929D01*
X152010018Y-80972930D01*
X152070340Y-80813872D01*
X152090845Y-80645000D01*
X152070340Y-80476128D01*
X152010018Y-80317070D01*
X151913383Y-80177071D01*
X151809937Y-80085426D01*
X151786049Y-80064263D01*
X151635426Y-79985210D01*
X151470256Y-79944500D01*
X151300144Y-79944500D01*
X151134975Y-79985209D01*
X151077371Y-80015443D01*
X151049071Y-80030296D01*
X150991446Y-80044500D01*
X150542940Y-80044500D01*
X150502019Y-80055464D01*
X150502019Y-80055465D01*
X150473645Y-80063068D01*
X150390214Y-80085423D01*
X150390209Y-80085426D01*
X150253290Y-80164475D01*
X150253282Y-80164481D01*
X148744481Y-81673282D01*
X148744477Y-81673287D01*
X148694731Y-81759452D01*
X148694730Y-81759451D01*
X148665424Y-81810211D01*
X148665423Y-81810215D01*
X148624499Y-81962943D01*
X148624499Y-81962945D01*
X148624499Y-82131046D01*
X148624500Y-82131059D01*
X148624500Y-84876330D01*
X148624499Y-84876348D01*
X148624499Y-85042054D01*
X148624498Y-85042054D01*
X141275930Y-85042054D01*
X141299740Y-84979272D01*
X141320245Y-84810400D01*
X141299740Y-84641528D01*
X141239418Y-84482470D01*
X141142783Y-84342471D01*
X141033304Y-84245481D01*
X141015449Y-84229663D01*
X140864826Y-84150610D01*
X140699656Y-84109900D01*
X140529544Y-84109900D01*
X140364375Y-84150609D01*
X140320724Y-84173520D01*
X140278471Y-84195696D01*
X140220846Y-84209900D01*
X139847497Y-84209900D01*
X139780458Y-84190215D01*
X139759816Y-84173581D01*
X137647590Y-82061355D01*
X137647588Y-82061352D01*
X137528717Y-81942481D01*
X137528716Y-81942480D01*
X137433520Y-81887519D01*
X137391785Y-81863423D01*
X137239057Y-81822499D01*
X137080943Y-81822499D01*
X137073347Y-81822499D01*
X137073331Y-81822500D01*
X128951098Y-81822500D01*
X128884059Y-81802815D01*
X128863417Y-81786181D01*
X127626819Y-80549583D01*
X127593334Y-80488260D01*
X127590500Y-80461902D01*
X127590500Y-80010000D01*
X128072355Y-80010000D01*
X128092859Y-80178869D01*
X128092860Y-80178874D01*
X128153182Y-80337931D01*
X128189814Y-80391000D01*
X128249817Y-80477929D01*
X128342312Y-80559872D01*
X128377150Y-80590736D01*
X128518368Y-80664853D01*
X128527775Y-80669790D01*
X128692944Y-80710500D01*
X128863056Y-80710500D01*
X129028225Y-80669790D01*
X129153003Y-80604301D01*
X129178849Y-80590736D01*
X129178850Y-80590734D01*
X129178852Y-80590734D01*
X129306183Y-80477929D01*
X129402818Y-80337930D01*
X129456620Y-80196062D01*
X129484876Y-80152358D01*
X129752418Y-79884816D01*
X129813740Y-79851334D01*
X129840098Y-79848500D01*
X139687246Y-79848500D01*
X139744871Y-79862703D01*
X139830775Y-79907790D01*
X139995944Y-79948500D01*
X140166056Y-79948500D01*
X140331225Y-79907790D01*
X140417128Y-79862704D01*
X140481849Y-79828736D01*
X140481850Y-79828734D01*
X140481852Y-79828734D01*
X140609183Y-79715929D01*
X140705818Y-79575930D01*
X140766140Y-79416872D01*
X140786645Y-79248000D01*
X140766140Y-79079128D01*
X140705818Y-78920070D01*
X140701052Y-78913166D01*
X140637832Y-78821576D01*
X140609183Y-78780071D01*
X140505737Y-78688426D01*
X140481849Y-78667263D01*
X140331226Y-78588210D01*
X140166056Y-78547500D01*
X139995944Y-78547500D01*
X139830775Y-78588209D01*
X139773171Y-78618443D01*
X139744871Y-78633296D01*
X139687246Y-78647500D01*
X130395264Y-78647500D01*
X130328225Y-78627815D01*
X130282470Y-78575011D01*
X130272526Y-78505853D01*
X130301551Y-78442297D01*
X130313037Y-78430685D01*
X130408522Y-78346092D01*
X130439183Y-78318929D01*
X130499186Y-78232000D01*
X154361355Y-78232000D01*
X154381859Y-78400869D01*
X154381860Y-78400874D01*
X154442182Y-78559931D01*
X154497726Y-78640399D01*
X154538817Y-78699929D01*
X154666148Y-78812734D01*
X154682997Y-78821577D01*
X154733208Y-78870161D01*
X154749183Y-78938180D01*
X154727421Y-79001812D01*
X154696182Y-79047069D01*
X154635860Y-79206125D01*
X154635859Y-79206130D01*
X154615355Y-79375000D01*
X154635859Y-79543869D01*
X154635860Y-79543874D01*
X154657723Y-79601521D01*
X154696182Y-79702930D01*
X154792817Y-79842929D01*
X154883279Y-79923071D01*
X154920150Y-79955736D01*
X155062212Y-80030296D01*
X155070775Y-80034790D01*
X155235944Y-80075500D01*
X155406056Y-80075500D01*
X155571225Y-80034790D01*
X155657128Y-79989703D01*
X155714754Y-79975500D01*
X161723457Y-79975500D01*
X161790496Y-79995185D01*
X161836251Y-80047989D01*
X161846195Y-80117147D01*
X161817170Y-80180703D01*
X161758392Y-80218477D01*
X161753132Y-80219897D01*
X161674773Y-80239210D01*
X161524150Y-80318263D01*
X161396816Y-80431072D01*
X161300182Y-80571068D01*
X161239860Y-80730125D01*
X161239859Y-80730130D01*
X161219355Y-80899000D01*
X161239859Y-81067870D01*
X161239860Y-81067875D01*
X161266442Y-81137963D01*
X161274500Y-81181934D01*
X161274500Y-88871065D01*
X161266442Y-88915035D01*
X161239861Y-88985122D01*
X161239859Y-88985130D01*
X161219355Y-89154000D01*
X161239859Y-89322869D01*
X161239860Y-89322874D01*
X161300182Y-89481931D01*
X161345248Y-89547219D01*
X161396817Y-89621929D01*
X161480632Y-89696182D01*
X161524150Y-89734736D01*
X161650057Y-89800817D01*
X161674775Y-89813790D01*
X161839944Y-89854500D01*
X162010056Y-89854500D01*
X162175225Y-89813790D01*
X162269691Y-89764210D01*
X162325849Y-89734736D01*
X162325850Y-89734734D01*
X162325852Y-89734734D01*
X162453183Y-89621929D01*
X162549818Y-89481930D01*
X162610140Y-89322872D01*
X162630645Y-89154000D01*
X162610140Y-88985128D01*
X162602752Y-88965648D01*
X162583558Y-88915035D01*
X162575500Y-88871065D01*
X162575500Y-87280399D01*
X178657515Y-87280399D01*
X178657516Y-87280400D01*
X179409412Y-87280400D01*
X179392195Y-87290340D01*
X179336340Y-87346195D01*
X179296844Y-87414604D01*
X179276400Y-87490904D01*
X179276400Y-87569896D01*
X179296844Y-87646196D01*
X179336340Y-87714605D01*
X179392195Y-87770460D01*
X179409412Y-87780400D01*
X178657516Y-87780400D01*
X178662906Y-87807500D01*
X178662907Y-87807503D01*
X178734519Y-87980391D01*
X178734524Y-87980400D01*
X178838486Y-88135989D01*
X178838489Y-88135993D01*
X178970806Y-88268310D01*
X178970810Y-88268313D01*
X179126399Y-88372275D01*
X179126408Y-88372280D01*
X179299294Y-88443891D01*
X179299302Y-88443893D01*
X179482828Y-88480399D01*
X179482831Y-88480400D01*
X179626400Y-88480400D01*
X179626400Y-87830400D01*
X180126400Y-87830400D01*
X180126400Y-88480400D01*
X180269969Y-88480400D01*
X180269971Y-88480399D01*
X180453497Y-88443893D01*
X180453505Y-88443891D01*
X180626391Y-88372280D01*
X180626400Y-88372275D01*
X180781989Y-88268313D01*
X180781993Y-88268310D01*
X180914310Y-88135993D01*
X180914313Y-88135989D01*
X181018275Y-87980400D01*
X181018280Y-87980391D01*
X181089892Y-87807503D01*
X181089893Y-87807500D01*
X181095284Y-87780400D01*
X180343388Y-87780400D01*
X180360605Y-87770460D01*
X180416460Y-87714605D01*
X180455956Y-87646196D01*
X180476400Y-87569896D01*
X180476400Y-87490904D01*
X180455956Y-87414604D01*
X180416460Y-87346195D01*
X180360605Y-87290340D01*
X180343388Y-87280400D01*
X181095284Y-87280400D01*
X181095284Y-87280399D01*
X181089893Y-87253299D01*
X181089892Y-87253296D01*
X181018280Y-87080408D01*
X181018275Y-87080399D01*
X180914313Y-86924810D01*
X180914310Y-86924806D01*
X180781993Y-86792489D01*
X180781989Y-86792486D01*
X180626400Y-86688524D01*
X180626391Y-86688519D01*
X180453505Y-86616908D01*
X180453497Y-86616906D01*
X180269970Y-86580400D01*
X180126400Y-86580400D01*
X180126400Y-87230400D01*
X179626400Y-87230400D01*
X179626400Y-86580400D01*
X179482830Y-86580400D01*
X179299302Y-86616906D01*
X179299294Y-86616908D01*
X179126408Y-86688519D01*
X179126399Y-86688524D01*
X178970810Y-86792486D01*
X178970806Y-86792489D01*
X178838489Y-86924806D01*
X178838486Y-86924810D01*
X178734524Y-87080399D01*
X178734519Y-87080408D01*
X178662907Y-87253296D01*
X178662906Y-87253299D01*
X178657515Y-87280399D01*
X162575500Y-87280399D01*
X162575500Y-81181934D01*
X162583558Y-81137963D01*
X162586307Y-81130716D01*
X162607558Y-81074680D01*
X162610139Y-81067875D01*
X162610140Y-81067870D01*
X162612214Y-81050789D01*
X162630645Y-80899000D01*
X162610140Y-80730128D01*
X162549818Y-80571070D01*
X162542086Y-80559869D01*
X162485527Y-80477929D01*
X162453183Y-80431071D01*
X162325852Y-80318266D01*
X162325849Y-80318263D01*
X162175226Y-80239210D01*
X162096868Y-80219897D01*
X162036488Y-80184741D01*
X162004699Y-80122522D01*
X162011595Y-80052993D01*
X162054986Y-79998230D01*
X162121096Y-79975620D01*
X162126543Y-79975500D01*
X162894903Y-79975500D01*
X162961942Y-79995185D01*
X162982584Y-80011819D01*
X163504119Y-80533354D01*
X163532380Y-80577064D01*
X163586182Y-80718931D01*
X163614265Y-80759615D01*
X163682817Y-80858929D01*
X163780996Y-80945908D01*
X163810150Y-80971736D01*
X163936194Y-81037889D01*
X163960775Y-81050790D01*
X164125944Y-81091500D01*
X164296056Y-81091500D01*
X164461225Y-81050790D01*
X164569838Y-80993785D01*
X164611849Y-80971736D01*
X164611850Y-80971734D01*
X164611852Y-80971734D01*
X164739183Y-80858929D01*
X164835818Y-80718930D01*
X164896140Y-80559872D01*
X164916645Y-80391000D01*
X164896140Y-80222128D01*
X164894755Y-80218477D01*
X164856326Y-80117147D01*
X164835818Y-80063070D01*
X164832546Y-80058330D01*
X164761730Y-79955736D01*
X164739183Y-79923071D01*
X164644316Y-79839026D01*
X164611849Y-79810263D01*
X164461226Y-79731210D01*
X164414126Y-79719601D01*
X164356120Y-79686885D01*
X163713416Y-79044181D01*
X163679931Y-78982858D01*
X163684915Y-78913166D01*
X163726787Y-78857233D01*
X163792251Y-78832816D01*
X163801097Y-78832500D01*
X166196903Y-78832500D01*
X166263942Y-78852185D01*
X166284584Y-78868819D01*
X166749181Y-79333416D01*
X166782666Y-79394739D01*
X166785500Y-79421097D01*
X166785500Y-79862199D01*
X166765815Y-79929238D01*
X166763551Y-79932638D01*
X166761182Y-79936069D01*
X166700860Y-80095125D01*
X166700859Y-80095130D01*
X166680355Y-80264000D01*
X166700859Y-80432869D01*
X166700860Y-80432874D01*
X166761182Y-80591931D01*
X166814925Y-80669790D01*
X166857817Y-80731929D01*
X166950312Y-80813872D01*
X166985150Y-80844736D01*
X167135773Y-80923789D01*
X167135775Y-80923790D01*
X167300944Y-80964500D01*
X167471056Y-80964500D01*
X167636225Y-80923790D01*
X167759810Y-80858927D01*
X167786849Y-80844736D01*
X167786850Y-80844734D01*
X167786852Y-80844734D01*
X167914183Y-80731929D01*
X168010818Y-80591930D01*
X168071140Y-80432872D01*
X168091645Y-80264000D01*
X168071140Y-80095128D01*
X168067459Y-80085423D01*
X168058981Y-80063068D01*
X168010818Y-79936070D01*
X168008448Y-79932637D01*
X168007489Y-79929727D01*
X168007331Y-79929426D01*
X168007381Y-79929399D01*
X167986567Y-79866283D01*
X167986500Y-79862199D01*
X167986500Y-79210059D01*
X167986501Y-79210046D01*
X167986501Y-79041945D01*
X167986501Y-79041943D01*
X167945577Y-78889215D01*
X167902973Y-78815423D01*
X167866520Y-78752284D01*
X167754716Y-78640480D01*
X167754715Y-78640479D01*
X167754635Y-78640399D01*
X178657515Y-78640399D01*
X178657516Y-78640400D01*
X179409412Y-78640400D01*
X179392195Y-78650340D01*
X179336340Y-78706195D01*
X179296844Y-78774604D01*
X179276400Y-78850904D01*
X179276400Y-78929896D01*
X179296844Y-79006196D01*
X179336340Y-79074605D01*
X179392195Y-79130460D01*
X179409412Y-79140400D01*
X178657516Y-79140400D01*
X178662906Y-79167500D01*
X178662907Y-79167503D01*
X178734519Y-79340391D01*
X178734524Y-79340400D01*
X178838486Y-79495989D01*
X178838489Y-79495993D01*
X178970806Y-79628310D01*
X178970810Y-79628313D01*
X179126399Y-79732275D01*
X179126408Y-79732280D01*
X179299294Y-79803891D01*
X179299302Y-79803893D01*
X179482828Y-79840399D01*
X179482831Y-79840400D01*
X179626400Y-79840400D01*
X179626400Y-79190400D01*
X180126400Y-79190400D01*
X180126400Y-79840400D01*
X180269969Y-79840400D01*
X180269971Y-79840399D01*
X180453497Y-79803893D01*
X180453505Y-79803891D01*
X180626391Y-79732280D01*
X180626400Y-79732275D01*
X180781989Y-79628313D01*
X180781993Y-79628310D01*
X180914310Y-79495993D01*
X180914313Y-79495989D01*
X181018275Y-79340400D01*
X181018280Y-79340391D01*
X181089892Y-79167503D01*
X181089893Y-79167500D01*
X181095284Y-79140400D01*
X180343388Y-79140400D01*
X180360605Y-79130460D01*
X180416460Y-79074605D01*
X180455956Y-79006196D01*
X180476400Y-78929896D01*
X180476400Y-78850904D01*
X180455956Y-78774604D01*
X180416460Y-78706195D01*
X180360605Y-78650340D01*
X180343388Y-78640400D01*
X181095284Y-78640400D01*
X181095284Y-78640399D01*
X181089893Y-78613299D01*
X181089892Y-78613296D01*
X181018280Y-78440408D01*
X181018275Y-78440399D01*
X180914313Y-78284810D01*
X180914310Y-78284806D01*
X180781993Y-78152489D01*
X180781989Y-78152486D01*
X180626400Y-78048524D01*
X180626391Y-78048519D01*
X180453505Y-77976908D01*
X180453497Y-77976906D01*
X180269970Y-77940400D01*
X180126400Y-77940400D01*
X180126400Y-78590400D01*
X179626400Y-78590400D01*
X179626400Y-77940400D01*
X179482830Y-77940400D01*
X179299302Y-77976906D01*
X179299294Y-77976908D01*
X179126408Y-78048519D01*
X179126399Y-78048524D01*
X178970810Y-78152486D01*
X178970806Y-78152489D01*
X178838489Y-78284806D01*
X178838486Y-78284810D01*
X178734524Y-78440399D01*
X178734519Y-78440408D01*
X178662907Y-78613296D01*
X178662906Y-78613299D01*
X178657515Y-78640399D01*
X167754635Y-78640399D01*
X167750385Y-78636149D01*
X167750374Y-78636139D01*
X166984590Y-77870355D01*
X166984588Y-77870352D01*
X166865717Y-77751481D01*
X166865716Y-77751480D01*
X166778904Y-77701360D01*
X166778904Y-77701359D01*
X166778900Y-77701358D01*
X166728785Y-77672423D01*
X166576057Y-77631499D01*
X166417943Y-77631499D01*
X166410347Y-77631499D01*
X166410331Y-77631500D01*
X155460754Y-77631500D01*
X155403128Y-77617296D01*
X155349215Y-77589000D01*
X155317224Y-77572209D01*
X155152056Y-77531500D01*
X154981944Y-77531500D01*
X154816773Y-77572210D01*
X154666150Y-77651263D01*
X154538816Y-77764072D01*
X154442182Y-77904068D01*
X154381860Y-78063125D01*
X154381859Y-78063130D01*
X154361355Y-78232000D01*
X130499186Y-78232000D01*
X130535818Y-78178930D01*
X130546589Y-78150526D01*
X130588767Y-78094826D01*
X130654365Y-78070769D01*
X130662531Y-78070500D01*
X141338246Y-78070500D01*
X141395871Y-78084703D01*
X141481775Y-78129790D01*
X141646944Y-78170500D01*
X141817056Y-78170500D01*
X141982225Y-78129790D01*
X142094679Y-78070769D01*
X142132849Y-78050736D01*
X142132850Y-78050734D01*
X142132852Y-78050734D01*
X142260183Y-77937929D01*
X142356818Y-77797930D01*
X142417140Y-77638872D01*
X142437645Y-77470000D01*
X142417140Y-77301128D01*
X142356818Y-77142070D01*
X142355787Y-77140577D01*
X142320184Y-77088997D01*
X142260183Y-77002071D01*
X142156737Y-76910426D01*
X142132849Y-76889263D01*
X141982226Y-76810210D01*
X141817056Y-76769500D01*
X141646944Y-76769500D01*
X141481775Y-76810209D01*
X141426923Y-76838999D01*
X141395871Y-76855296D01*
X141338246Y-76869500D01*
X130995264Y-76869500D01*
X130928225Y-76849815D01*
X130882470Y-76797011D01*
X130872526Y-76727853D01*
X130901551Y-76664297D01*
X130913037Y-76652685D01*
X131000319Y-76575359D01*
X131039183Y-76540929D01*
X131135818Y-76400930D01*
X131189619Y-76259065D01*
X131217880Y-76215355D01*
X131231416Y-76201819D01*
X131292739Y-76168334D01*
X131319097Y-76165500D01*
X143116246Y-76165500D01*
X143173871Y-76179703D01*
X143259775Y-76224790D01*
X143424944Y-76265500D01*
X143595056Y-76265500D01*
X143760225Y-76224790D01*
X143867792Y-76168334D01*
X143910849Y-76145736D01*
X143910850Y-76145734D01*
X143910852Y-76145734D01*
X143992952Y-76073000D01*
X150932355Y-76073000D01*
X150952859Y-76241869D01*
X150952860Y-76241874D01*
X151013182Y-76400931D01*
X151051351Y-76456227D01*
X151109817Y-76540929D01*
X151191366Y-76613175D01*
X151237150Y-76653736D01*
X151355672Y-76715941D01*
X151387775Y-76732790D01*
X151552944Y-76773500D01*
X151723056Y-76773500D01*
X151888225Y-76732790D01*
X151974128Y-76687703D01*
X152031754Y-76673500D01*
X159084903Y-76673500D01*
X159151942Y-76693185D01*
X159172584Y-76709819D01*
X159408139Y-76945374D01*
X159408149Y-76945385D01*
X159412479Y-76949715D01*
X159412480Y-76949716D01*
X159524284Y-77061520D01*
X159524286Y-77061521D01*
X159524290Y-77061524D01*
X159601326Y-77106000D01*
X159661216Y-77140577D01*
X159763773Y-77168057D01*
X159813942Y-77181500D01*
X159813943Y-77181500D01*
X167339903Y-77181500D01*
X167406942Y-77201185D01*
X167427584Y-77217819D01*
X167792617Y-77582852D01*
X167826102Y-77644175D01*
X167828032Y-77685478D01*
X167823355Y-77723999D01*
X167843859Y-77892869D01*
X167843860Y-77892874D01*
X167904182Y-78051931D01*
X167957925Y-78129790D01*
X168000817Y-78191929D01*
X168073703Y-78256500D01*
X168128150Y-78304736D01*
X168261587Y-78374769D01*
X168278775Y-78383790D01*
X168443944Y-78424500D01*
X168614056Y-78424500D01*
X168779225Y-78383790D01*
X168870090Y-78336100D01*
X168929849Y-78304736D01*
X168929850Y-78304734D01*
X168929852Y-78304734D01*
X169057183Y-78191929D01*
X169153818Y-78051930D01*
X169214140Y-77892872D01*
X169234645Y-77724000D01*
X169214140Y-77555128D01*
X169200181Y-77518322D01*
X169153817Y-77396068D01*
X169153816Y-77396066D01*
X169128494Y-77359382D01*
X169110769Y-77321039D01*
X169088577Y-77238215D01*
X169048071Y-77168057D01*
X169012243Y-77106000D01*
X169009521Y-77101285D01*
X168893385Y-76985149D01*
X168893374Y-76985139D01*
X168131416Y-76223181D01*
X168097931Y-76161858D01*
X168102915Y-76092166D01*
X168144787Y-76036233D01*
X168210251Y-76011816D01*
X168219097Y-76011500D01*
X173694058Y-76011500D01*
X173694058Y-76011499D01*
X173758506Y-75995614D01*
X173763975Y-75994396D01*
X173813328Y-75984580D01*
X173819417Y-75982057D01*
X173837204Y-75976216D01*
X173859225Y-75970790D01*
X173901449Y-75948628D01*
X173911606Y-75943871D01*
X173940811Y-75931775D01*
X173961914Y-75917673D01*
X173973171Y-75910985D01*
X174009852Y-75891734D01*
X174031512Y-75872544D01*
X174044835Y-75862267D01*
X174055542Y-75855114D01*
X174086730Y-75823924D01*
X174092133Y-75818838D01*
X174137183Y-75778929D01*
X174142939Y-75770590D01*
X174149643Y-75762581D01*
X174149246Y-75762255D01*
X174153113Y-75757543D01*
X174153114Y-75757542D01*
X174188034Y-75705279D01*
X174188939Y-75703946D01*
X174233818Y-75638930D01*
X174259587Y-75570978D01*
X174260926Y-75567601D01*
X174282580Y-75515328D01*
X174282646Y-75514995D01*
X174288321Y-75495211D01*
X174294140Y-75479872D01*
X174300637Y-75426350D01*
X174302116Y-75417109D01*
X174309500Y-75379996D01*
X174309500Y-75360873D01*
X174310404Y-75345926D01*
X174314645Y-75311000D01*
X174310404Y-75276071D01*
X174309500Y-75261125D01*
X174309500Y-75242006D01*
X174302116Y-75204889D01*
X174300637Y-75195640D01*
X174294140Y-75142129D01*
X174288323Y-75126792D01*
X174282644Y-75106997D01*
X174282580Y-75106672D01*
X174260942Y-75054436D01*
X174259576Y-75050991D01*
X174233818Y-74983070D01*
X174221000Y-74964500D01*
X174189015Y-74918162D01*
X174187963Y-74916612D01*
X174153117Y-74864462D01*
X174149249Y-74859748D01*
X174149628Y-74859436D01*
X174142940Y-74851412D01*
X174137183Y-74843071D01*
X174092145Y-74803171D01*
X174086707Y-74798051D01*
X174055545Y-74766889D01*
X174055542Y-74766886D01*
X174055377Y-74766775D01*
X174044840Y-74759734D01*
X174031513Y-74749454D01*
X174009855Y-74730268D01*
X174009850Y-74730265D01*
X173973162Y-74711009D01*
X173961903Y-74704318D01*
X173940811Y-74690225D01*
X173911599Y-74678124D01*
X173901445Y-74673368D01*
X173859225Y-74651210D01*
X173859226Y-74651210D01*
X173837206Y-74645783D01*
X173819434Y-74639949D01*
X173813328Y-74637420D01*
X173813324Y-74637419D01*
X173813322Y-74637418D01*
X173763993Y-74627606D01*
X173758511Y-74626386D01*
X173694057Y-74610500D01*
X173694056Y-74610500D01*
X173677993Y-74610500D01*
X167090056Y-74610500D01*
X166919944Y-74610500D01*
X166919940Y-74610500D01*
X166855486Y-74626386D01*
X166850006Y-74627606D01*
X166800673Y-74637419D01*
X166794566Y-74639949D01*
X166776797Y-74645781D01*
X166754776Y-74651209D01*
X166712561Y-74673365D01*
X166702393Y-74678127D01*
X166673187Y-74690225D01*
X166652091Y-74704320D01*
X166640837Y-74711008D01*
X166604147Y-74730266D01*
X166604144Y-74730268D01*
X166582486Y-74749454D01*
X166569166Y-74759729D01*
X166558464Y-74766880D01*
X166558458Y-74766886D01*
X166527287Y-74798055D01*
X166521838Y-74803183D01*
X166476820Y-74843067D01*
X166471053Y-74851421D01*
X166464391Y-74859447D01*
X166464753Y-74859744D01*
X166460887Y-74864455D01*
X166426023Y-74916631D01*
X166424973Y-74918177D01*
X166380185Y-74983063D01*
X166380181Y-74983071D01*
X166354436Y-75050953D01*
X166353058Y-75054428D01*
X166331419Y-75106673D01*
X166331418Y-75106678D01*
X166331353Y-75107006D01*
X166325680Y-75126781D01*
X166319859Y-75142129D01*
X166313362Y-75195640D01*
X166311884Y-75204881D01*
X166304500Y-75242006D01*
X166304500Y-75261125D01*
X166303596Y-75276071D01*
X166299355Y-75311000D01*
X166303411Y-75344407D01*
X166303596Y-75345926D01*
X166304500Y-75360873D01*
X166304500Y-75379993D01*
X166307710Y-75396130D01*
X166311882Y-75417105D01*
X166313360Y-75426347D01*
X166319859Y-75479870D01*
X166319860Y-75479872D01*
X166325672Y-75495197D01*
X166325678Y-75495212D01*
X166331353Y-75514992D01*
X166331420Y-75515327D01*
X166331420Y-75515329D01*
X166353046Y-75567538D01*
X166354427Y-75571019D01*
X166380182Y-75638930D01*
X166380183Y-75638931D01*
X166424983Y-75703836D01*
X166426035Y-75705385D01*
X166460885Y-75757541D01*
X166464751Y-75762252D01*
X166464371Y-75762563D01*
X166471061Y-75770590D01*
X166481079Y-75785104D01*
X166478588Y-75786823D01*
X166502411Y-75837493D01*
X166493234Y-75906758D01*
X166448068Y-75960066D01*
X166381251Y-75980492D01*
X166379876Y-75980500D01*
X160193097Y-75980500D01*
X160126058Y-75960815D01*
X160105416Y-75944181D01*
X159872590Y-75711355D01*
X159872588Y-75711352D01*
X159753717Y-75592481D01*
X159753716Y-75592480D01*
X159666904Y-75542360D01*
X159666904Y-75542359D01*
X159666900Y-75542358D01*
X159616785Y-75513423D01*
X159464057Y-75472499D01*
X159305943Y-75472499D01*
X159298347Y-75472499D01*
X159298331Y-75472500D01*
X152031754Y-75472500D01*
X151974128Y-75458296D01*
X151904411Y-75421705D01*
X151888224Y-75413209D01*
X151723056Y-75372500D01*
X151552944Y-75372500D01*
X151387773Y-75413210D01*
X151237150Y-75492263D01*
X151109816Y-75605072D01*
X151013182Y-75745068D01*
X150952860Y-75904125D01*
X150952859Y-75904130D01*
X150932355Y-76073000D01*
X143992952Y-76073000D01*
X144038183Y-76032929D01*
X144134818Y-75892930D01*
X144195140Y-75733872D01*
X144215645Y-75565000D01*
X144195140Y-75396128D01*
X144194078Y-75393329D01*
X144134817Y-75237068D01*
X144093105Y-75176639D01*
X144038183Y-75097071D01*
X143934737Y-75005426D01*
X143910849Y-74984263D01*
X143760226Y-74905210D01*
X143595056Y-74864500D01*
X143424944Y-74864500D01*
X143259775Y-74905209D01*
X143202171Y-74935443D01*
X143173871Y-74950296D01*
X143116246Y-74964500D01*
X130939940Y-74964500D01*
X130899019Y-74975464D01*
X130899019Y-74975465D01*
X130869447Y-74983389D01*
X130787214Y-75005423D01*
X130787209Y-75005426D01*
X130650290Y-75084475D01*
X130650282Y-75084481D01*
X130538478Y-75196286D01*
X130365878Y-75368885D01*
X130307873Y-75401601D01*
X130260772Y-75413210D01*
X130110150Y-75492263D01*
X129982816Y-75605072D01*
X129886182Y-75745068D01*
X129825860Y-75904125D01*
X129825859Y-75904130D01*
X129805355Y-76073000D01*
X129825859Y-76241869D01*
X129825860Y-76241874D01*
X129886182Y-76400931D01*
X129924351Y-76456227D01*
X129982817Y-76540929D01*
X130110148Y-76653734D01*
X130136105Y-76667357D01*
X130186318Y-76715941D01*
X130202293Y-76783960D01*
X130178958Y-76849818D01*
X130123723Y-76892606D01*
X130110576Y-76896928D01*
X130060218Y-76910422D01*
X130060209Y-76910426D01*
X129923290Y-76989475D01*
X129923282Y-76989481D01*
X129811478Y-77101286D01*
X129811477Y-77101287D01*
X129765877Y-77146886D01*
X129707873Y-77179601D01*
X129660772Y-77191210D01*
X129510150Y-77270263D01*
X129382816Y-77383072D01*
X129286182Y-77523068D01*
X129225860Y-77682125D01*
X129225859Y-77682130D01*
X129205355Y-77851000D01*
X129225859Y-78019869D01*
X129225860Y-78019874D01*
X129286182Y-78178931D01*
X129322814Y-78232000D01*
X129382817Y-78318929D01*
X129510148Y-78431734D01*
X129510149Y-78431734D01*
X129513115Y-78434362D01*
X129550242Y-78493552D01*
X129549474Y-78563417D01*
X129511057Y-78621777D01*
X129462982Y-78646953D01*
X129460944Y-78647499D01*
X129460943Y-78647499D01*
X129437809Y-78653698D01*
X129308214Y-78688423D01*
X129308209Y-78688426D01*
X129171290Y-78767475D01*
X129171282Y-78767481D01*
X128632878Y-79305885D01*
X128574873Y-79338601D01*
X128527772Y-79350210D01*
X128377150Y-79429263D01*
X128249816Y-79542072D01*
X128153182Y-79682068D01*
X128092860Y-79841125D01*
X128092859Y-79841130D01*
X128072355Y-80010000D01*
X127590500Y-80010000D01*
X127590500Y-78787945D01*
X127590500Y-78787943D01*
X127549577Y-78635216D01*
X127549573Y-78635209D01*
X127470524Y-78498290D01*
X127470518Y-78498282D01*
X127358718Y-78386482D01*
X127358716Y-78386480D01*
X127354057Y-78383790D01*
X127349186Y-78380977D01*
X127323508Y-78361273D01*
X126979590Y-78017355D01*
X126979588Y-78017352D01*
X126860717Y-77898481D01*
X126860709Y-77898475D01*
X126757202Y-77838716D01*
X126757201Y-77838715D01*
X126757201Y-77838716D01*
X126723785Y-77819423D01*
X126680591Y-77807849D01*
X126620933Y-77771485D01*
X126590404Y-77708638D01*
X126598699Y-77639262D01*
X126600305Y-77635670D01*
X126655102Y-77518159D01*
X126655105Y-77518150D01*
X126703108Y-77339000D01*
X125909012Y-77339000D01*
X125941925Y-77281993D01*
X125976000Y-77154826D01*
X125976000Y-77023174D01*
X125941925Y-76896007D01*
X125909012Y-76839000D01*
X126703108Y-76839000D01*
X126703108Y-76838999D01*
X126655105Y-76659849D01*
X126655101Y-76659840D01*
X126562666Y-76461612D01*
X126562664Y-76461608D01*
X126437216Y-76282450D01*
X126437211Y-76282444D01*
X126282554Y-76127787D01*
X126103387Y-76002333D01*
X125951824Y-75931658D01*
X125899385Y-75885486D01*
X125880233Y-75818292D01*
X125900449Y-75751411D01*
X125951822Y-75706895D01*
X126103639Y-75636102D01*
X126282877Y-75510598D01*
X126437598Y-75355877D01*
X126563102Y-75176639D01*
X126655575Y-74978330D01*
X126712207Y-74766977D01*
X126731277Y-74549000D01*
X126712207Y-74331023D01*
X126655575Y-74119670D01*
X126563102Y-73921362D01*
X126563100Y-73921359D01*
X126563099Y-73921357D01*
X126437599Y-73742124D01*
X126430247Y-73734772D01*
X126282877Y-73587402D01*
X126103639Y-73461898D01*
X126103640Y-73461898D01*
X126103638Y-73461897D01*
X125985571Y-73406842D01*
X130405355Y-73406842D01*
X130425859Y-73575711D01*
X130425860Y-73575716D01*
X130486182Y-73734773D01*
X130494573Y-73746929D01*
X130582817Y-73874771D01*
X130655079Y-73938789D01*
X130710150Y-73987578D01*
X130860773Y-74066631D01*
X130860775Y-74066632D01*
X131025944Y-74107342D01*
X131196056Y-74107342D01*
X131361225Y-74066632D01*
X131511852Y-73987576D01*
X131598644Y-73910684D01*
X131661877Y-73880963D01*
X131680871Y-73879500D01*
X143116246Y-73879500D01*
X143173871Y-73893703D01*
X143259775Y-73938790D01*
X143424944Y-73979500D01*
X143595056Y-73979500D01*
X143760225Y-73938790D01*
X143870404Y-73880963D01*
X143910849Y-73859736D01*
X143910850Y-73859734D01*
X143910852Y-73859734D01*
X144038183Y-73746929D01*
X144134818Y-73606930D01*
X144195140Y-73447872D01*
X144215645Y-73279000D01*
X144195140Y-73110128D01*
X144183301Y-73078912D01*
X144134817Y-72951068D01*
X144048560Y-72826105D01*
X144038183Y-72811071D01*
X143910852Y-72698266D01*
X143910849Y-72698263D01*
X143760226Y-72619210D01*
X143595056Y-72578500D01*
X143424944Y-72578500D01*
X143259775Y-72619209D01*
X143202171Y-72649443D01*
X143173871Y-72664296D01*
X143116246Y-72678500D01*
X131325511Y-72678500D01*
X131325495Y-72678499D01*
X131317899Y-72678499D01*
X131159785Y-72678499D01*
X131071642Y-72702117D01*
X131039549Y-72706342D01*
X131025944Y-72706342D01*
X130860773Y-72747052D01*
X130710150Y-72826105D01*
X130582816Y-72938914D01*
X130486182Y-73078910D01*
X130425860Y-73237967D01*
X130425859Y-73237972D01*
X130405355Y-73406842D01*
X125985571Y-73406842D01*
X125905330Y-73369425D01*
X125905326Y-73369424D01*
X125905322Y-73369422D01*
X125693977Y-73312793D01*
X125476002Y-73293723D01*
X125475998Y-73293723D01*
X125330682Y-73306436D01*
X125258023Y-73312793D01*
X125258020Y-73312793D01*
X125046677Y-73369422D01*
X125046668Y-73369426D01*
X124848361Y-73461898D01*
X124848357Y-73461900D01*
X124669121Y-73587402D01*
X124514402Y-73742121D01*
X124388900Y-73921357D01*
X124388898Y-73921361D01*
X124318382Y-74072583D01*
X124272209Y-74125022D01*
X124205016Y-74144174D01*
X124138135Y-74123958D01*
X124093618Y-74072583D01*
X124053979Y-73987578D01*
X124023102Y-73921362D01*
X124023100Y-73921359D01*
X124023099Y-73921357D01*
X123897599Y-73742124D01*
X123890247Y-73734772D01*
X123742877Y-73587402D01*
X123726181Y-73575711D01*
X123589376Y-73479918D01*
X123545751Y-73425341D01*
X123536500Y-73378344D01*
X123536500Y-73071097D01*
X123556185Y-73004058D01*
X123572819Y-72983416D01*
X123910417Y-72645819D01*
X123971740Y-72612334D01*
X123998098Y-72609500D01*
X127114246Y-72609500D01*
X127171871Y-72623703D01*
X127257775Y-72668790D01*
X127422944Y-72709500D01*
X127593056Y-72709500D01*
X127758225Y-72668790D01*
X127865792Y-72612334D01*
X127908849Y-72589736D01*
X127908850Y-72589734D01*
X127908852Y-72589734D01*
X128036183Y-72476929D01*
X128132818Y-72336930D01*
X128193140Y-72177872D01*
X128213645Y-72009000D01*
X128193140Y-71840128D01*
X128190439Y-71833007D01*
X128132817Y-71681068D01*
X128082935Y-71608803D01*
X128036183Y-71541071D01*
X127932737Y-71449426D01*
X127908849Y-71428263D01*
X127758226Y-71349210D01*
X127593056Y-71308500D01*
X127422944Y-71308500D01*
X127257775Y-71349209D01*
X127200171Y-71379443D01*
X127171871Y-71394296D01*
X127114246Y-71408500D01*
X123784670Y-71408500D01*
X123784654Y-71408499D01*
X123777058Y-71408499D01*
X123618943Y-71408499D01*
X123545184Y-71428263D01*
X123466214Y-71449423D01*
X123466209Y-71449426D01*
X123329290Y-71528475D01*
X123329282Y-71528481D01*
X122455481Y-72402282D01*
X122455479Y-72402285D01*
X122433932Y-72439606D01*
X122412384Y-72476929D01*
X122376423Y-72539215D01*
X122335499Y-72691943D01*
X122335499Y-72691945D01*
X122335499Y-72860046D01*
X122335500Y-72860059D01*
X122335500Y-73378345D01*
X122315815Y-73445384D01*
X122282623Y-73479920D01*
X122129121Y-73587402D01*
X121974402Y-73742121D01*
X121866920Y-73895623D01*
X121812343Y-73939248D01*
X121765345Y-73948500D01*
X114809129Y-73948500D01*
X114742090Y-73928815D01*
X114710175Y-73899227D01*
X114625872Y-73787593D01*
X114575992Y-73742121D01*
X114468302Y-73643948D01*
X114287019Y-73531702D01*
X114287017Y-73531701D01*
X114088201Y-73454680D01*
X114088200Y-73454679D01*
X114088198Y-73454679D01*
X113890026Y-73417634D01*
X113827746Y-73385965D01*
X113792473Y-73325653D01*
X113795407Y-73255845D01*
X113835616Y-73198705D01*
X113890027Y-73173856D01*
X114088058Y-73136837D01*
X114088063Y-73136836D01*
X114286791Y-73059849D01*
X114286798Y-73059846D01*
X114389006Y-72996560D01*
X114389006Y-72996559D01*
X113901410Y-72508962D01*
X113964993Y-72491925D01*
X114079007Y-72426099D01*
X114172099Y-72333007D01*
X114237925Y-72218993D01*
X114254962Y-72155409D01*
X114745163Y-72645610D01*
X114753935Y-72633996D01*
X114753938Y-72633991D01*
X114848935Y-72443211D01*
X114848941Y-72443196D01*
X114907261Y-72238219D01*
X114907262Y-72238216D01*
X114926927Y-72026000D01*
X114926927Y-72025999D01*
X114907262Y-71813783D01*
X114907261Y-71813780D01*
X114848941Y-71608803D01*
X114848933Y-71608783D01*
X114753940Y-71418010D01*
X114745163Y-71406388D01*
X114254962Y-71896589D01*
X114237925Y-71833007D01*
X114172099Y-71718993D01*
X114079007Y-71625901D01*
X113964993Y-71560075D01*
X113901409Y-71543037D01*
X114389007Y-71055439D01*
X114286793Y-70992151D01*
X114286789Y-70992149D01*
X114088063Y-70915163D01*
X114088058Y-70915162D01*
X113912735Y-70882388D01*
X113850454Y-70850720D01*
X113815181Y-70790407D01*
X113818115Y-70720599D01*
X113858324Y-70663459D01*
X113923042Y-70637128D01*
X113935512Y-70636499D01*
X114553518Y-70636499D01*
X114647304Y-70621646D01*
X114666235Y-70612000D01*
X131005355Y-70612000D01*
X131025859Y-70780869D01*
X131025860Y-70780874D01*
X131086182Y-70939931D01*
X131111780Y-70977015D01*
X131182817Y-71079929D01*
X131288505Y-71173560D01*
X131310150Y-71192736D01*
X131460773Y-71271789D01*
X131460775Y-71271790D01*
X131625944Y-71312500D01*
X131796056Y-71312500D01*
X131961225Y-71271790D01*
X132040692Y-71230081D01*
X132111849Y-71192736D01*
X132111850Y-71192734D01*
X132111852Y-71192734D01*
X132239183Y-71079929D01*
X132303819Y-70986286D01*
X132318182Y-70969051D01*
X133308416Y-69978819D01*
X133369739Y-69945334D01*
X133396097Y-69942500D01*
X143209903Y-69942500D01*
X143276942Y-69962185D01*
X143297584Y-69978819D01*
X143692119Y-70373354D01*
X143720380Y-70417064D01*
X143774182Y-70558931D01*
X143836475Y-70649177D01*
X143870817Y-70698929D01*
X143963310Y-70780870D01*
X143998150Y-70811736D01*
X144127218Y-70879476D01*
X144148775Y-70890790D01*
X144313944Y-70931500D01*
X144484056Y-70931500D01*
X144649225Y-70890790D01*
X144728692Y-70849081D01*
X144799849Y-70811736D01*
X144799850Y-70811734D01*
X144799852Y-70811734D01*
X144927183Y-70698929D01*
X145023818Y-70558930D01*
X145084140Y-70399872D01*
X145104645Y-70231000D01*
X145084140Y-70062128D01*
X145059777Y-69997889D01*
X145054411Y-69928228D01*
X145087558Y-69866722D01*
X145148697Y-69832900D01*
X145218415Y-69837502D01*
X145233343Y-69844122D01*
X145291775Y-69874790D01*
X145456944Y-69915500D01*
X145627056Y-69915500D01*
X145792225Y-69874790D01*
X145900360Y-69818036D01*
X145942849Y-69795736D01*
X145942850Y-69795734D01*
X145942852Y-69795734D01*
X146070183Y-69682929D01*
X146166818Y-69542930D01*
X146227140Y-69383872D01*
X146247645Y-69215000D01*
X146247645Y-69214999D01*
X168966355Y-69214999D01*
X168970596Y-69249926D01*
X168971500Y-69264873D01*
X168971500Y-69283991D01*
X168978882Y-69321105D01*
X168980360Y-69330347D01*
X168986859Y-69383870D01*
X168986860Y-69383871D01*
X168992678Y-69399212D01*
X168998354Y-69418995D01*
X168998420Y-69419327D01*
X168998420Y-69419329D01*
X169020046Y-69471538D01*
X169021424Y-69475012D01*
X169047182Y-69542930D01*
X169058689Y-69559601D01*
X169091983Y-69607836D01*
X169093035Y-69609385D01*
X169127885Y-69661541D01*
X169131751Y-69666252D01*
X169131371Y-69666563D01*
X169138061Y-69674590D01*
X169143817Y-69682929D01*
X169143817Y-69682930D01*
X169188845Y-69722821D01*
X169194299Y-69727955D01*
X169225458Y-69759114D01*
X169231380Y-69763071D01*
X169236154Y-69766261D01*
X169249485Y-69776543D01*
X169271148Y-69795734D01*
X169271150Y-69795735D01*
X169271151Y-69795736D01*
X169307836Y-69814990D01*
X169319097Y-69821681D01*
X169340189Y-69835775D01*
X169369398Y-69847874D01*
X169379559Y-69852633D01*
X169394093Y-69860261D01*
X169421772Y-69874789D01*
X169421774Y-69874789D01*
X169421775Y-69874790D01*
X169423362Y-69875181D01*
X169443791Y-69880216D01*
X169461571Y-69886052D01*
X169467672Y-69888580D01*
X169517023Y-69898396D01*
X169522473Y-69899609D01*
X169586944Y-69915500D01*
X169586945Y-69915500D01*
X177233996Y-69915500D01*
X177325040Y-69897389D01*
X177369328Y-69888580D01*
X177462418Y-69850021D01*
X177496807Y-69835777D01*
X177496808Y-69835776D01*
X177496811Y-69835775D01*
X177611543Y-69759114D01*
X178750514Y-68620143D01*
X178827175Y-68505411D01*
X178830387Y-68497658D01*
X178867544Y-68407951D01*
X178879980Y-68377928D01*
X178893256Y-68311185D01*
X178906900Y-68242596D01*
X178906900Y-67191434D01*
X178926585Y-67124395D01*
X178959777Y-67089859D01*
X178979147Y-67076296D01*
X179013277Y-67052398D01*
X179167998Y-66897677D01*
X179270828Y-66750820D01*
X179325402Y-66707198D01*
X179394900Y-66700004D01*
X179457255Y-66731527D01*
X179492669Y-66791756D01*
X179496400Y-66821945D01*
X179496400Y-66972279D01*
X179511235Y-67065949D01*
X179511237Y-67065955D01*
X179568756Y-67178841D01*
X179568763Y-67178850D01*
X179658349Y-67268436D01*
X179658353Y-67268439D01*
X179771255Y-67325966D01*
X179864914Y-67340799D01*
X180496399Y-67340799D01*
X180496400Y-67340798D01*
X180496400Y-66523812D01*
X180553407Y-66556725D01*
X180680574Y-66590800D01*
X180812226Y-66590800D01*
X180939393Y-66556725D01*
X180996400Y-66523812D01*
X180996400Y-67340799D01*
X181627879Y-67340799D01*
X181721549Y-67325964D01*
X181721555Y-67325962D01*
X181834441Y-67268443D01*
X181834450Y-67268436D01*
X181924036Y-67178850D01*
X181924039Y-67178846D01*
X181981566Y-67065944D01*
X181996400Y-66972286D01*
X181996400Y-66340800D01*
X181179412Y-66340800D01*
X181212325Y-66283793D01*
X181246400Y-66156626D01*
X181246400Y-66024974D01*
X181212325Y-65897807D01*
X181179412Y-65840800D01*
X181996399Y-65840800D01*
X181996399Y-65209320D01*
X181981564Y-65115650D01*
X181981562Y-65115644D01*
X181924043Y-65002758D01*
X181924036Y-65002749D01*
X181834450Y-64913163D01*
X181834446Y-64913160D01*
X181721544Y-64855633D01*
X181627886Y-64840800D01*
X180996400Y-64840800D01*
X180996400Y-65657788D01*
X180939393Y-65624875D01*
X180812226Y-65590800D01*
X180680574Y-65590800D01*
X180553407Y-65624875D01*
X180496400Y-65657788D01*
X180496400Y-64840800D01*
X179864920Y-64840800D01*
X179771250Y-64855635D01*
X179771244Y-64855637D01*
X179658358Y-64913156D01*
X179658349Y-64913163D01*
X179568763Y-65002749D01*
X179568760Y-65002753D01*
X179511233Y-65115655D01*
X179496400Y-65209314D01*
X179496400Y-65359652D01*
X179476715Y-65426691D01*
X179423911Y-65472446D01*
X179354753Y-65482390D01*
X179291197Y-65453365D01*
X179270825Y-65430775D01*
X179167999Y-65283924D01*
X179093389Y-65209314D01*
X179013277Y-65129202D01*
X178834039Y-65003698D01*
X178834040Y-65003698D01*
X178834038Y-65003697D01*
X178734884Y-64957461D01*
X178635730Y-64911225D01*
X178635726Y-64911224D01*
X178635722Y-64911222D01*
X178424377Y-64854593D01*
X178206402Y-64835523D01*
X178206398Y-64835523D01*
X178061082Y-64848236D01*
X177988423Y-64854593D01*
X177988420Y-64854593D01*
X177777077Y-64911222D01*
X177777070Y-64911224D01*
X177777070Y-64911225D01*
X177772914Y-64913163D01*
X177578761Y-65003698D01*
X177578757Y-65003700D01*
X177399521Y-65129202D01*
X177244802Y-65283921D01*
X177119300Y-65463157D01*
X177119298Y-65463161D01*
X177026826Y-65661468D01*
X177026822Y-65661477D01*
X176970193Y-65872820D01*
X176970193Y-65872824D01*
X176951123Y-66090797D01*
X176951123Y-66090802D01*
X176970193Y-66308775D01*
X176970193Y-66308779D01*
X177026822Y-66520122D01*
X177026824Y-66520126D01*
X177026825Y-66520130D01*
X177043890Y-66556725D01*
X177119297Y-66718438D01*
X177119298Y-66718439D01*
X177244802Y-66897677D01*
X177244806Y-66897681D01*
X177399521Y-67052396D01*
X177399527Y-67052401D01*
X177453023Y-67089859D01*
X177496648Y-67144435D01*
X177505900Y-67191434D01*
X177505900Y-67832081D01*
X177486215Y-67899120D01*
X177469581Y-67919762D01*
X176911162Y-68478181D01*
X176849839Y-68511666D01*
X176823481Y-68514500D01*
X169586940Y-68514500D01*
X169522486Y-68530386D01*
X169517006Y-68531606D01*
X169467673Y-68541419D01*
X169461566Y-68543949D01*
X169443797Y-68549781D01*
X169421776Y-68555209D01*
X169379561Y-68577365D01*
X169369393Y-68582127D01*
X169340187Y-68594225D01*
X169319091Y-68608320D01*
X169307837Y-68615008D01*
X169271147Y-68634266D01*
X169271144Y-68634268D01*
X169249486Y-68653454D01*
X169236166Y-68663729D01*
X169225464Y-68670880D01*
X169225458Y-68670886D01*
X169194287Y-68702055D01*
X169188838Y-68707183D01*
X169143820Y-68747067D01*
X169143817Y-68747070D01*
X169143817Y-68747071D01*
X169138053Y-68755421D01*
X169131391Y-68763447D01*
X169131753Y-68763744D01*
X169127887Y-68768455D01*
X169093023Y-68820631D01*
X169091973Y-68822177D01*
X169047185Y-68887063D01*
X169047181Y-68887071D01*
X169021436Y-68954953D01*
X169020058Y-68958428D01*
X168998419Y-69010673D01*
X168998418Y-69010678D01*
X168998353Y-69011006D01*
X168992680Y-69030781D01*
X168986859Y-69046129D01*
X168980362Y-69099640D01*
X168978884Y-69108881D01*
X168971500Y-69146006D01*
X168971500Y-69165125D01*
X168970596Y-69180071D01*
X168966355Y-69214999D01*
X146247645Y-69214999D01*
X146227140Y-69046128D01*
X146213693Y-69010672D01*
X146166817Y-68887068D01*
X146120958Y-68820631D01*
X146070183Y-68747071D01*
X145964511Y-68653454D01*
X145942849Y-68634263D01*
X145792226Y-68555210D01*
X145745126Y-68543601D01*
X145687120Y-68510885D01*
X144505590Y-67329355D01*
X144505588Y-67329352D01*
X144386717Y-67210481D01*
X144386716Y-67210480D01*
X144299904Y-67160360D01*
X144299904Y-67160359D01*
X144299900Y-67160358D01*
X144249785Y-67131423D01*
X144097057Y-67090499D01*
X143938943Y-67090499D01*
X143931347Y-67090499D01*
X143931331Y-67090500D01*
X132854754Y-67090500D01*
X132797128Y-67076296D01*
X132753459Y-67053376D01*
X132711224Y-67031209D01*
X132546056Y-66990500D01*
X132375944Y-66990500D01*
X132210773Y-67031210D01*
X132060150Y-67110263D01*
X131932816Y-67223072D01*
X131836182Y-67363068D01*
X131775860Y-67522125D01*
X131775859Y-67522130D01*
X131755355Y-67691000D01*
X131775859Y-67859869D01*
X131775860Y-67859874D01*
X131836182Y-68018931D01*
X131895320Y-68104606D01*
X131932817Y-68158929D01*
X132027256Y-68242594D01*
X132060150Y-68271736D01*
X132209940Y-68350352D01*
X132210775Y-68350790D01*
X132375944Y-68391500D01*
X132546056Y-68391500D01*
X132711225Y-68350790D01*
X132797128Y-68305703D01*
X132854754Y-68291500D01*
X143717903Y-68291500D01*
X143784942Y-68311185D01*
X143805584Y-68327819D01*
X144835119Y-69357354D01*
X144863380Y-69401065D01*
X144881221Y-69448109D01*
X144886588Y-69517772D01*
X144853440Y-69579278D01*
X144792301Y-69613099D01*
X144722583Y-69608497D01*
X144707653Y-69601875D01*
X144649226Y-69571210D01*
X144602126Y-69559601D01*
X144544120Y-69526885D01*
X143997590Y-68980355D01*
X143997588Y-68980352D01*
X143878717Y-68861481D01*
X143878709Y-68861475D01*
X143762487Y-68794375D01*
X143762486Y-68794374D01*
X143747935Y-68785974D01*
X143741785Y-68782423D01*
X143589057Y-68741499D01*
X143430943Y-68741499D01*
X143423347Y-68741499D01*
X143423331Y-68741500D01*
X133016942Y-68741500D01*
X132864214Y-68782423D01*
X132864213Y-68782424D01*
X132843512Y-68794374D01*
X132843513Y-68794375D01*
X132727287Y-68861477D01*
X132727282Y-68861481D01*
X132615478Y-68973286D01*
X131713584Y-69875181D01*
X131652261Y-69908666D01*
X131626256Y-69911461D01*
X131625945Y-69911499D01*
X131460773Y-69952210D01*
X131310150Y-70031263D01*
X131182816Y-70144072D01*
X131086182Y-70284068D01*
X131025860Y-70443125D01*
X131025859Y-70443130D01*
X131005355Y-70612000D01*
X114666235Y-70612000D01*
X114760342Y-70564050D01*
X114850050Y-70474342D01*
X114907646Y-70361304D01*
X114907646Y-70361302D01*
X114907647Y-70361301D01*
X114922499Y-70267524D01*
X114922500Y-70267519D01*
X114922499Y-68704482D01*
X114907646Y-68610696D01*
X114850050Y-68497658D01*
X114850046Y-68497654D01*
X114850045Y-68497652D01*
X114760347Y-68407954D01*
X114760344Y-68407952D01*
X114760342Y-68407950D01*
X114683517Y-68368805D01*
X114647301Y-68350352D01*
X114553524Y-68335500D01*
X112990482Y-68335500D01*
X112909519Y-68348323D01*
X112896696Y-68350354D01*
X112783658Y-68407950D01*
X112783657Y-68407951D01*
X112783652Y-68407954D01*
X112693954Y-68497652D01*
X112693951Y-68497657D01*
X112693950Y-68497658D01*
X112686813Y-68511666D01*
X112636352Y-68610698D01*
X112621500Y-68704475D01*
X112621500Y-70267517D01*
X112624122Y-70284070D01*
X112636354Y-70361304D01*
X112693950Y-70474342D01*
X112693952Y-70474344D01*
X112693954Y-70474347D01*
X112783652Y-70564045D01*
X112783654Y-70564046D01*
X112783658Y-70564050D01*
X112877759Y-70611997D01*
X112896698Y-70621647D01*
X112990475Y-70636499D01*
X112990481Y-70636500D01*
X113608480Y-70636499D01*
X113675517Y-70656183D01*
X113721272Y-70708987D01*
X113731216Y-70778146D01*
X113702191Y-70841702D01*
X113643413Y-70879476D01*
X113631264Y-70882388D01*
X113455939Y-70915162D01*
X113455936Y-70915163D01*
X113257210Y-70992149D01*
X113257201Y-70992154D01*
X113154992Y-71055438D01*
X113154991Y-71055439D01*
X113642590Y-71543037D01*
X113579007Y-71560075D01*
X113464993Y-71625901D01*
X113371901Y-71718993D01*
X113306075Y-71833007D01*
X113289037Y-71896591D01*
X112798835Y-71406389D01*
X112790056Y-71418015D01*
X112695066Y-71608783D01*
X112695058Y-71608803D01*
X112636738Y-71813780D01*
X112636737Y-71813783D01*
X112617073Y-72025999D01*
X112617073Y-72026000D01*
X112636737Y-72238216D01*
X112636738Y-72238219D01*
X112695058Y-72443196D01*
X112695066Y-72443216D01*
X112790060Y-72633990D01*
X112798834Y-72645609D01*
X112798835Y-72645609D01*
X113289037Y-72155408D01*
X113306075Y-72218993D01*
X113371901Y-72333007D01*
X113464993Y-72426099D01*
X113579007Y-72491925D01*
X113642590Y-72508962D01*
X113154991Y-72996559D01*
X113257204Y-73059847D01*
X113257208Y-73059849D01*
X113455936Y-73136836D01*
X113455941Y-73136837D01*
X113653972Y-73173856D01*
X113716253Y-73205524D01*
X113751526Y-73265836D01*
X113748592Y-73335645D01*
X113708383Y-73392785D01*
X113653973Y-73417634D01*
X113561932Y-73434839D01*
X113455802Y-73454679D01*
X113455800Y-73454679D01*
X113455798Y-73454680D01*
X113256982Y-73531701D01*
X113256980Y-73531702D01*
X113075699Y-73643947D01*
X112918127Y-73787593D01*
X112789632Y-73957746D01*
X112694596Y-74148605D01*
X112694596Y-74148607D01*
X112636244Y-74353689D01*
X112618147Y-74548997D01*
X112616571Y-74566000D01*
X109466500Y-74566000D01*
X109466500Y-59235994D01*
X111386754Y-59235994D01*
X111386754Y-59236005D01*
X111405718Y-59537446D01*
X111405719Y-59537453D01*
X111462320Y-59834164D01*
X111555659Y-60121431D01*
X111555661Y-60121436D01*
X111684265Y-60394732D01*
X111684268Y-60394738D01*
X111846111Y-60649763D01*
X112038652Y-60882505D01*
X112258836Y-61089272D01*
X112258846Y-61089280D01*
X112503193Y-61266808D01*
X112503198Y-61266810D01*
X112503205Y-61266816D01*
X112767896Y-61412332D01*
X112767901Y-61412334D01*
X112767903Y-61412335D01*
X112767904Y-61412336D01*
X113048734Y-61523524D01*
X113048737Y-61523525D01*
X113146259Y-61548564D01*
X113341302Y-61598642D01*
X113488039Y-61617179D01*
X113640963Y-61636499D01*
X113640969Y-61636499D01*
X113640973Y-61636500D01*
X113640975Y-61636500D01*
X113943025Y-61636500D01*
X113943027Y-61636500D01*
X113943032Y-61636499D01*
X113943036Y-61636499D01*
X114022591Y-61626448D01*
X114242698Y-61598642D01*
X114535262Y-61523525D01*
X114535265Y-61523524D01*
X114816095Y-61412336D01*
X114816096Y-61412335D01*
X114816094Y-61412335D01*
X114816104Y-61412332D01*
X115080795Y-61266816D01*
X115325162Y-61089274D01*
X115545349Y-60882504D01*
X115737885Y-60649768D01*
X115899733Y-60394736D01*
X116028341Y-60121430D01*
X116121681Y-59834160D01*
X116178280Y-59537457D01*
X116197246Y-59236000D01*
X116178280Y-58934543D01*
X116121681Y-58637840D01*
X116028341Y-58350570D01*
X115899733Y-58077264D01*
X115828837Y-57965549D01*
X115737888Y-57822236D01*
X115737885Y-57822232D01*
X115545349Y-57589496D01*
X115325162Y-57382726D01*
X115325159Y-57382724D01*
X115325153Y-57382719D01*
X115080806Y-57205191D01*
X115080799Y-57205186D01*
X115080795Y-57205184D01*
X114816104Y-57059668D01*
X114816101Y-57059666D01*
X114816096Y-57059664D01*
X114816095Y-57059663D01*
X114535265Y-56948475D01*
X114535262Y-56948474D01*
X114242695Y-56873357D01*
X113943036Y-56835500D01*
X113943027Y-56835500D01*
X113640973Y-56835500D01*
X113640963Y-56835500D01*
X113341304Y-56873357D01*
X113048737Y-56948474D01*
X113048734Y-56948475D01*
X112767904Y-57059663D01*
X112767903Y-57059664D01*
X112503205Y-57205184D01*
X112503193Y-57205191D01*
X112258846Y-57382719D01*
X112258836Y-57382727D01*
X112038652Y-57589494D01*
X111846111Y-57822236D01*
X111684268Y-58077261D01*
X111684265Y-58077267D01*
X111555661Y-58350563D01*
X111555659Y-58350568D01*
X111462320Y-58637835D01*
X111405719Y-58934546D01*
X111405718Y-58934553D01*
X111386754Y-59235994D01*
X109466500Y-59235994D01*
X109466500Y-56773051D01*
X109466763Y-56764972D01*
X109482331Y-56527457D01*
X109484445Y-56511405D01*
X109530083Y-56281969D01*
X109534276Y-56266322D01*
X109609471Y-56044803D01*
X109615667Y-56029843D01*
X109719134Y-55820033D01*
X109727237Y-55805998D01*
X109857204Y-55611490D01*
X109867061Y-55598643D01*
X110021304Y-55422762D01*
X110032762Y-55411304D01*
X110208643Y-55257061D01*
X110221490Y-55247204D01*
X110415998Y-55117237D01*
X110430033Y-55109134D01*
X110639843Y-55005667D01*
X110654803Y-54999471D01*
X110876322Y-54924276D01*
X110891969Y-54920083D01*
X111121405Y-54874445D01*
X111137457Y-54872331D01*
X111374971Y-54856764D01*
X111383052Y-54856500D01*
X111444892Y-54856500D01*
X183703108Y-54856500D01*
X183764948Y-54856500D01*
X183773028Y-54856764D01*
G37*
%TD.AperFunction*%
%TD*%
M02*
