%TF.GenerationSoftware,KiCad,Pcbnew,8.0.7*%
%TF.CreationDate,2024-12-15T20:11:50+01:00*%
%TF.ProjectId,transistor-tester,7472616e-7369-4737-946f-722d74657374,rev?*%
%TF.SameCoordinates,Original*%
%TF.FileFunction,Paste,Bot*%
%TF.FilePolarity,Positive*%
%FSLAX46Y46*%
G04 Gerber Fmt 4.6, Leading zero omitted, Abs format (unit mm)*
G04 Created by KiCad (PCBNEW 8.0.7) date 2024-12-15 20:11:50*
%MOMM*%
%LPD*%
G01*
G04 APERTURE LIST*
G04 Aperture macros list*
%AMRoundRect*
0 Rectangle with rounded corners*
0 $1 Rounding radius*
0 $2 $3 $4 $5 $6 $7 $8 $9 X,Y pos of 4 corners*
0 Add a 4 corners polygon primitive as box body*
4,1,4,$2,$3,$4,$5,$6,$7,$8,$9,$2,$3,0*
0 Add four circle primitives for the rounded corners*
1,1,$1+$1,$2,$3*
1,1,$1+$1,$4,$5*
1,1,$1+$1,$6,$7*
1,1,$1+$1,$8,$9*
0 Add four rect primitives between the rounded corners*
20,1,$1+$1,$2,$3,$4,$5,0*
20,1,$1+$1,$4,$5,$6,$7,0*
20,1,$1+$1,$6,$7,$8,$9,0*
20,1,$1+$1,$8,$9,$2,$3,0*%
G04 Aperture macros list end*
%ADD10RoundRect,0.250000X-0.250000X-0.475000X0.250000X-0.475000X0.250000X0.475000X-0.250000X0.475000X0*%
%ADD11RoundRect,0.250000X0.450000X-0.262500X0.450000X0.262500X-0.450000X0.262500X-0.450000X-0.262500X0*%
%ADD12RoundRect,0.250000X-0.700000X0.275000X-0.700000X-0.275000X0.700000X-0.275000X0.700000X0.275000X0*%
%ADD13RoundRect,0.250000X0.325000X0.650000X-0.325000X0.650000X-0.325000X-0.650000X0.325000X-0.650000X0*%
%ADD14RoundRect,0.250000X0.475000X-0.250000X0.475000X0.250000X-0.475000X0.250000X-0.475000X-0.250000X0*%
%ADD15RoundRect,0.250000X0.250000X0.475000X-0.250000X0.475000X-0.250000X-0.475000X0.250000X-0.475000X0*%
%ADD16RoundRect,0.250000X-0.450000X-0.425000X0.450000X-0.425000X0.450000X0.425000X-0.450000X0.425000X0*%
%ADD17RoundRect,0.250000X-0.262500X-0.450000X0.262500X-0.450000X0.262500X0.450000X-0.262500X0.450000X0*%
%ADD18RoundRect,0.250000X0.450000X0.425000X-0.450000X0.425000X-0.450000X-0.425000X0.450000X-0.425000X0*%
%ADD19RoundRect,0.150000X-0.150000X0.587500X-0.150000X-0.587500X0.150000X-0.587500X0.150000X0.587500X0*%
%ADD20RoundRect,0.250000X-0.650000X0.325000X-0.650000X-0.325000X0.650000X-0.325000X0.650000X0.325000X0*%
%ADD21RoundRect,0.175000X-0.425000X0.175000X-0.425000X-0.175000X0.425000X-0.175000X0.425000X0.175000X0*%
%ADD22RoundRect,0.190000X0.410000X-0.190000X0.410000X0.190000X-0.410000X0.190000X-0.410000X-0.190000X0*%
%ADD23RoundRect,0.200000X0.400000X-0.200000X0.400000X0.200000X-0.400000X0.200000X-0.400000X-0.200000X0*%
%ADD24RoundRect,0.175000X0.425000X-0.175000X0.425000X0.175000X-0.425000X0.175000X-0.425000X-0.175000X0*%
%ADD25RoundRect,0.190000X-0.410000X0.190000X-0.410000X-0.190000X0.410000X-0.190000X0.410000X0.190000X0*%
%ADD26RoundRect,0.200000X-0.400000X0.200000X-0.400000X-0.200000X0.400000X-0.200000X0.400000X0.200000X0*%
%ADD27O,1.700000X1.100000*%
%ADD28RoundRect,0.250000X-0.325000X-0.650000X0.325000X-0.650000X0.325000X0.650000X-0.325000X0.650000X0*%
%ADD29RoundRect,0.250000X-0.450000X0.262500X-0.450000X-0.262500X0.450000X-0.262500X0.450000X0.262500X0*%
%ADD30RoundRect,0.150000X-0.587500X-0.150000X0.587500X-0.150000X0.587500X0.150000X-0.587500X0.150000X0*%
%ADD31RoundRect,0.150000X-0.512500X-0.150000X0.512500X-0.150000X0.512500X0.150000X-0.512500X0.150000X0*%
%ADD32RoundRect,0.250000X-0.475000X0.250000X-0.475000X-0.250000X0.475000X-0.250000X0.475000X0.250000X0*%
%ADD33RoundRect,0.243750X0.456250X-0.243750X0.456250X0.243750X-0.456250X0.243750X-0.456250X-0.243750X0*%
%ADD34RoundRect,0.250000X-1.000000X-0.650000X1.000000X-0.650000X1.000000X0.650000X-1.000000X0.650000X0*%
%ADD35RoundRect,0.250000X0.262500X0.450000X-0.262500X0.450000X-0.262500X-0.450000X0.262500X-0.450000X0*%
%ADD36RoundRect,0.243750X-0.243750X-0.456250X0.243750X-0.456250X0.243750X0.456250X-0.243750X0.456250X0*%
%ADD37R,1.500000X0.550000*%
%ADD38R,0.550000X1.500000*%
%ADD39RoundRect,0.150000X0.150000X-0.587500X0.150000X0.587500X-0.150000X0.587500X-0.150000X-0.587500X0*%
%ADD40RoundRect,0.250000X0.650000X-0.325000X0.650000X0.325000X-0.650000X0.325000X-0.650000X-0.325000X0*%
%ADD41R,2.000000X4.500000*%
G04 APERTURE END LIST*
D10*
%TO.C,C11*%
X160924200Y-84886800D03*
X162824200Y-84886800D03*
%TD*%
D11*
%TO.C,R4*%
X165049200Y-60985400D03*
X165049200Y-59160400D03*
%TD*%
D12*
%TO.C,L1*%
X172212000Y-62204600D03*
X172212000Y-65354600D03*
%TD*%
D13*
%TO.C,C3*%
X174904400Y-71729600D03*
X171954400Y-71729600D03*
%TD*%
D10*
%TO.C,C6*%
X148717000Y-74422000D03*
X150617000Y-74422000D03*
%TD*%
D14*
%TO.C,C5*%
X162204400Y-61010800D03*
X162204400Y-59110800D03*
%TD*%
D15*
%TO.C,C7*%
X148463000Y-91694000D03*
X146563000Y-91694000D03*
%TD*%
D16*
%TO.C,C17*%
X148717000Y-71628000D03*
X151417000Y-71628000D03*
%TD*%
D17*
%TO.C,R6*%
X118190000Y-77089000D03*
X120015000Y-77089000D03*
%TD*%
D18*
%TO.C,C15*%
X147861000Y-94996000D03*
X145161000Y-94996000D03*
%TD*%
D19*
%TO.C,Q2*%
X156277900Y-63527700D03*
X158177900Y-63527700D03*
X157227900Y-65402700D03*
%TD*%
D20*
%TO.C,C12*%
X153875100Y-65426800D03*
X153875100Y-68376800D03*
%TD*%
D21*
%TO.C,J1*%
X179796400Y-82710400D03*
D22*
X179796400Y-84730400D03*
D23*
X179796400Y-85960400D03*
D24*
X179796400Y-83710400D03*
D25*
X179796400Y-81690400D03*
D26*
X179796400Y-80460400D03*
D27*
X183676400Y-78890400D03*
X179876400Y-78890400D03*
X183676400Y-87530400D03*
X179876400Y-87530400D03*
%TD*%
D28*
%TO.C,C1*%
X170481200Y-78740000D03*
X173431200Y-78740000D03*
%TD*%
D29*
%TO.C,R9*%
X120142000Y-102696000D03*
X120142000Y-104521000D03*
%TD*%
D30*
%TO.C,U5*%
X149561700Y-66378600D03*
X149561700Y-64478600D03*
X151436700Y-65428600D03*
%TD*%
D31*
%TO.C,U2*%
X170484800Y-83281600D03*
X170484800Y-82331600D03*
X170484800Y-81381600D03*
X172759800Y-81381600D03*
X172759800Y-83281600D03*
%TD*%
D29*
%TO.C,R10*%
X122682000Y-102719500D03*
X122682000Y-104544500D03*
%TD*%
D32*
%TO.C,C10*%
X134823200Y-91404400D03*
X134823200Y-93304400D03*
%TD*%
D33*
%TO.C,D4*%
X182191900Y-91894900D03*
X182191900Y-90019900D03*
%TD*%
D34*
%TO.C,D1*%
X176174400Y-75209400D03*
X180174400Y-75209400D03*
%TD*%
D17*
%TO.C,R22*%
X159524100Y-105691700D03*
X161349100Y-105691700D03*
%TD*%
%TO.C,R24*%
X163783000Y-115316000D03*
X165608000Y-115316000D03*
%TD*%
D29*
%TO.C,R2*%
X183667400Y-74804900D03*
X183667400Y-76629900D03*
%TD*%
D35*
%TO.C,R5*%
X155749000Y-91440000D03*
X153924000Y-91440000D03*
%TD*%
D19*
%TO.C,U4*%
X153924000Y-94234000D03*
X155824000Y-94234000D03*
X154874000Y-96109000D03*
%TD*%
D10*
%TO.C,C14*%
X159486600Y-103456500D03*
X161386600Y-103456500D03*
%TD*%
D15*
%TO.C,C4*%
X170637200Y-59055000D03*
X168737200Y-59055000D03*
%TD*%
D29*
%TO.C,R11*%
X125222000Y-102696000D03*
X125222000Y-104521000D03*
%TD*%
%TO.C,R8*%
X117602000Y-102719500D03*
X117602000Y-104544500D03*
%TD*%
D36*
%TO.C,D3*%
X160375600Y-112623600D03*
X162250600Y-112623600D03*
%TD*%
D29*
%TO.C,R12*%
X127762000Y-102719500D03*
X127762000Y-104544500D03*
%TD*%
%TO.C,R21*%
X174625000Y-114634000D03*
X174625000Y-116459000D03*
%TD*%
D37*
%TO.C,U1*%
X141975600Y-87210400D03*
X141975600Y-86410400D03*
X141975600Y-85610400D03*
X141975600Y-84810400D03*
X141975600Y-84010400D03*
X141975600Y-83210400D03*
X141975600Y-82410400D03*
X141975600Y-81610400D03*
X141975600Y-80810400D03*
X141975600Y-80010400D03*
X141975600Y-79210400D03*
D38*
X143675600Y-77510400D03*
X144475600Y-77510400D03*
X145275600Y-77510400D03*
X146075600Y-77510400D03*
X146875600Y-77510400D03*
X147675600Y-77510400D03*
X148475600Y-77510400D03*
X149275600Y-77510400D03*
X150075600Y-77510400D03*
X150875600Y-77510400D03*
X151675600Y-77510400D03*
D37*
X153375600Y-79210400D03*
X153375600Y-80010400D03*
X153375600Y-80810400D03*
X153375600Y-81610400D03*
X153375600Y-82410400D03*
X153375600Y-83210400D03*
X153375600Y-84010400D03*
X153375600Y-84810400D03*
X153375600Y-85610400D03*
X153375600Y-86410400D03*
X153375600Y-87210400D03*
D38*
X151675600Y-88910400D03*
X150875600Y-88910400D03*
X150075600Y-88910400D03*
X149275600Y-88910400D03*
X148475600Y-88910400D03*
X147675600Y-88910400D03*
X146875600Y-88910400D03*
X146075600Y-88910400D03*
X145275600Y-88910400D03*
X144475600Y-88910400D03*
X143675600Y-88910400D03*
%TD*%
D19*
%TO.C,Q3*%
X159451000Y-108130100D03*
X161351000Y-108130100D03*
X160401000Y-110005100D03*
%TD*%
D20*
%TO.C,C13*%
X146915500Y-64514200D03*
X146915500Y-67464200D03*
%TD*%
D17*
%TO.C,R3*%
X163224200Y-63144400D03*
X165049200Y-63144400D03*
%TD*%
D11*
%TO.C,R15*%
X175158400Y-101955600D03*
X175158400Y-100130600D03*
%TD*%
D34*
%TO.C,D2*%
X163271200Y-66446400D03*
X167271200Y-66446400D03*
%TD*%
D39*
%TO.C,Q4*%
X166497000Y-119634000D03*
X164597000Y-119634000D03*
X165547000Y-117759000D03*
%TD*%
D31*
%TO.C,U3*%
X167340700Y-63158400D03*
X167340700Y-62208400D03*
X167340700Y-61258400D03*
X169615700Y-61258400D03*
X169615700Y-62208400D03*
X169615700Y-63158400D03*
%TD*%
D39*
%TO.C,Q1*%
X179156400Y-71701900D03*
X177256400Y-71701900D03*
X178206400Y-69826900D03*
%TD*%
D35*
%TO.C,R18*%
X158138500Y-88646000D03*
X156313500Y-88646000D03*
%TD*%
D17*
%TO.C,R19*%
X156298600Y-86395800D03*
X158123600Y-86395800D03*
%TD*%
%TO.C,R1*%
X172720000Y-85242400D03*
X174545000Y-85242400D03*
%TD*%
D35*
%TO.C,R20*%
X158140400Y-61010800D03*
X156315400Y-61010800D03*
%TD*%
D11*
%TO.C,R14*%
X172110400Y-99974400D03*
X172110400Y-98149400D03*
%TD*%
D17*
%TO.C,R7*%
X160961700Y-87223600D03*
X162786700Y-87223600D03*
%TD*%
D40*
%TO.C,C2*%
X175793400Y-81686400D03*
X175793400Y-78736400D03*
%TD*%
D35*
%TO.C,R17*%
X178964600Y-101955600D03*
X177139600Y-101955600D03*
%TD*%
D17*
%TO.C,R23*%
X155956000Y-80807800D03*
X157781000Y-80807800D03*
%TD*%
D14*
%TO.C,C9*%
X134823200Y-74356000D03*
X134823200Y-72456000D03*
%TD*%
D10*
%TO.C,C8*%
X160909000Y-82804000D03*
X162809000Y-82804000D03*
%TD*%
D35*
%TO.C,R16*%
X172110400Y-101955600D03*
X170285400Y-101955600D03*
%TD*%
D29*
%TO.C,R13*%
X130302000Y-102719500D03*
X130302000Y-104544500D03*
%TD*%
%TO.C,R25*%
X175920400Y-88139900D03*
X175920400Y-89964900D03*
%TD*%
D41*
%TO.C,Y1*%
X134823200Y-78706400D03*
X134823200Y-87206400D03*
%TD*%
M02*
