M48
METRIC
T1C0.300
T2C0.600
T3C0.800
T4C1.000
T5C2.000
T6C3.000
%
G90
G05
T1
X122.936Y-83.439
X127.191Y-88.075
X127.508Y-72.009
X128.778Y-80.01
X129.911Y-77.851
X130.511Y-76.073
X131.111Y-73.407
X131.711Y-70.612
X132.461Y-67.691
X134.823Y-70.79
X134.823Y-94.742
X138.938Y-88.011
X139.966Y-85.61
X140.081Y-79.248
X140.539Y-86.41
X140.615Y-84.81
X141.732Y-77.47
X142.885Y-88.91
X143.51Y-73.279
X143.51Y-75.565
X144.145Y-90.424
X144.145Y-92.964
X144.272Y-82.423
X144.399Y-70.231
X145.542Y-69.215
X146.563Y-93.218
X146.812Y-87.022
X148.082Y-66.379
X148.59Y-119.253
X150.617Y-73.025
X151.003Y-84.074
X151.385Y-80.645
X151.638Y-76.073
X154.813Y-100.457
X155.067Y-78.232
X155.321Y-79.375
X156.591Y-119.253
X156.845Y-57.404
X157.099Y-94.234
X158.138Y-90.146
X158.686Y-115.887
X159.258Y-86.396
X161.349Y-106.807
X161.925Y-80.899
X161.925Y-89.154
X162.809Y-83.82
X163.449Y-119.634
X163.576Y-59.16
X163.932Y-112.624
X164.211Y-80.391
X165.608Y-116.459
X165.862Y-89.408
X167.005Y-75.311
X167.386Y-80.264
X168.503Y-60.325
X168.529Y-77.724
X169.672Y-69.215
X169.989Y-93.916
X171.323Y-91.821
X171.954Y-73.275
X173.609Y-75.311
X174.371Y-78.736
X174.545Y-83.439
X174.625Y-117.348
X177.038Y-108.331
X180.594Y-91.821
X182.626Y-95.504
T3
X150.368Y-108.585
X152.908Y-108.585
X155.448Y-108.585
T4
X113.772Y-69.486
X113.772Y-72.026
X113.772Y-74.566
X113.772Y-77.106
X113.772Y-79.646
X113.772Y-82.186
X113.772Y-84.726
X113.772Y-87.266
X120.142Y-108.585
X120.142Y-116.205
X122.682Y-108.585
X122.682Y-116.205
X122.936Y-74.549
X122.936Y-77.089
X122.936Y-79.629
X125.222Y-108.585
X125.222Y-116.205
X125.476Y-74.549
X125.476Y-77.089
X125.476Y-79.629
X127.762Y-108.585
X127.762Y-116.205
X130.302Y-108.585
X130.302Y-116.205
X132.842Y-108.585
X132.842Y-116.205
X135.382Y-108.585
X135.382Y-116.205
X172.125Y-105.145
X172.125Y-119.645
X174.625Y-105.145
X177.125Y-105.145
X177.125Y-119.645
X178.206Y-66.091
X180.746Y-66.091
T6
X113.792Y-59.236
X113.792Y-97.536
X179.292Y-59.236
X179.292Y-97.536
T2
X180.176Y-78.89G85X179.576Y-78.89
G05
X180.176Y-87.53G85X179.576Y-87.53
G05
X183.976Y-78.89G85X183.376Y-78.89
G05
X183.976Y-87.53G85X183.376Y-87.53
G05
T5
X169.025Y-112.395G85X169.025Y-112.895
G05
X180.225Y-112.395G85X180.225Y-112.895
G05
M30
