%TF.GenerationSoftware,KiCad,Pcbnew,8.0.7*%
%TF.CreationDate,2024-12-15T20:11:50+01:00*%
%TF.ProjectId,transistor-tester,7472616e-7369-4737-946f-722d74657374,rev?*%
%TF.SameCoordinates,Original*%
%TF.FileFunction,Soldermask,Top*%
%TF.FilePolarity,Negative*%
%FSLAX46Y46*%
G04 Gerber Fmt 4.6, Leading zero omitted, Abs format (unit mm)*
G04 Created by KiCad (PCBNEW 8.0.7) date 2024-12-15 20:11:50*
%MOMM*%
%LPD*%
G01*
G04 APERTURE LIST*
%ADD10R,1.500000X1.500000*%
%ADD11R,2.000000X2.000000*%
%ADD12C,2.000000*%
%ADD13R,2.500000X3.000000*%
%ADD14R,3.000000X3.000000*%
%ADD15C,4.000000*%
%ADD16C,1.500000*%
%ADD17R,1.440000X2.000000*%
%ADD18O,1.440000X2.000000*%
%ADD19R,1.700000X1.700000*%
%ADD20O,1.700000X1.700000*%
%ADD21O,1.700000X1.100000*%
G04 APERTURE END LIST*
D10*
%TO.C,TP2*%
X154432000Y-119253000D03*
%TD*%
D11*
%TO.C,SW1*%
X177125000Y-105145000D03*
D12*
X172125000Y-105145000D03*
X174625000Y-105145000D03*
D13*
X180225000Y-112645000D03*
X169025000Y-112645000D03*
D12*
X177125000Y-119645000D03*
X172125000Y-119645000D03*
%TD*%
D10*
%TO.C,TP1*%
X151384000Y-119253000D03*
%TD*%
D14*
%TO.C,TP3*%
X152908000Y-115570000D03*
%TD*%
D15*
%TO.C,J7*%
X113792000Y-59236000D03*
X113792000Y-97536000D03*
X179292000Y-59236000D03*
X179292000Y-97536000D03*
D10*
X113772000Y-69486000D03*
D16*
X113772000Y-72026000D03*
X113772000Y-74566000D03*
X113772000Y-77106000D03*
X113772000Y-79646000D03*
X113772000Y-82186000D03*
X113772000Y-84726000D03*
X113772000Y-87266000D03*
%TD*%
D10*
%TO.C,J5*%
X150368000Y-108585000D03*
D16*
X152908000Y-108585000D03*
X155448000Y-108585000D03*
%TD*%
D17*
%TO.C,J4*%
X120142000Y-116205000D03*
D18*
X122682000Y-116205000D03*
X125222000Y-116205000D03*
X127762000Y-116205000D03*
X130302000Y-116205000D03*
X132842000Y-116205000D03*
X135382000Y-116205000D03*
X135382000Y-108585000D03*
X132842000Y-108585000D03*
X130302000Y-108585000D03*
X127762000Y-108585000D03*
X125222000Y-108585000D03*
X122682000Y-108585000D03*
X120142000Y-108585000D03*
%TD*%
D19*
%TO.C,J2*%
X180746400Y-66090800D03*
D20*
X178206400Y-66090800D03*
%TD*%
D21*
%TO.C,J1*%
X183676400Y-78890400D03*
X179876400Y-78890400D03*
X183676400Y-87530400D03*
X179876400Y-87530400D03*
%TD*%
D19*
%TO.C,J3*%
X122936000Y-79629000D03*
D20*
X125476000Y-79629000D03*
X122936000Y-77089000D03*
X125476000Y-77089000D03*
X122936000Y-74549000D03*
X125476000Y-74549000D03*
%TD*%
M02*
