%TF.GenerationSoftware,KiCad,Pcbnew,8.0.7*%
%TF.CreationDate,2024-12-15T20:11:51+01:00*%
%TF.ProjectId,transistor-tester,7472616e-7369-4737-946f-722d74657374,rev?*%
%TF.SameCoordinates,Original*%
%TF.FileFunction,Soldermask,Bot*%
%TF.FilePolarity,Negative*%
%FSLAX46Y46*%
G04 Gerber Fmt 4.6, Leading zero omitted, Abs format (unit mm)*
G04 Created by KiCad (PCBNEW 8.0.7) date 2024-12-15 20:11:51*
%MOMM*%
%LPD*%
G01*
G04 APERTURE LIST*
G04 Aperture macros list*
%AMRoundRect*
0 Rectangle with rounded corners*
0 $1 Rounding radius*
0 $2 $3 $4 $5 $6 $7 $8 $9 X,Y pos of 4 corners*
0 Add a 4 corners polygon primitive as box body*
4,1,4,$2,$3,$4,$5,$6,$7,$8,$9,$2,$3,0*
0 Add four circle primitives for the rounded corners*
1,1,$1+$1,$2,$3*
1,1,$1+$1,$4,$5*
1,1,$1+$1,$6,$7*
1,1,$1+$1,$8,$9*
0 Add four rect primitives between the rounded corners*
20,1,$1+$1,$2,$3,$4,$5,0*
20,1,$1+$1,$4,$5,$6,$7,0*
20,1,$1+$1,$6,$7,$8,$9,0*
20,1,$1+$1,$8,$9,$2,$3,0*%
G04 Aperture macros list end*
%ADD10C,0.150000*%
%ADD11R,2.000000X2.000000*%
%ADD12C,2.000000*%
%ADD13R,2.500000X3.000000*%
%ADD14C,4.000000*%
%ADD15R,1.500000X1.500000*%
%ADD16C,1.500000*%
%ADD17R,1.440000X2.000000*%
%ADD18O,1.440000X2.000000*%
%ADD19RoundRect,0.250000X-0.250000X-0.475000X0.250000X-0.475000X0.250000X0.475000X-0.250000X0.475000X0*%
%ADD20RoundRect,0.250000X0.450000X-0.262500X0.450000X0.262500X-0.450000X0.262500X-0.450000X-0.262500X0*%
%ADD21RoundRect,0.250000X-0.700000X0.275000X-0.700000X-0.275000X0.700000X-0.275000X0.700000X0.275000X0*%
%ADD22RoundRect,0.250000X0.325000X0.650000X-0.325000X0.650000X-0.325000X-0.650000X0.325000X-0.650000X0*%
%ADD23RoundRect,0.250000X0.475000X-0.250000X0.475000X0.250000X-0.475000X0.250000X-0.475000X-0.250000X0*%
%ADD24RoundRect,0.250000X0.250000X0.475000X-0.250000X0.475000X-0.250000X-0.475000X0.250000X-0.475000X0*%
%ADD25RoundRect,0.250000X-0.450000X-0.425000X0.450000X-0.425000X0.450000X0.425000X-0.450000X0.425000X0*%
%ADD26RoundRect,0.250000X-0.262500X-0.450000X0.262500X-0.450000X0.262500X0.450000X-0.262500X0.450000X0*%
%ADD27RoundRect,0.250000X0.450000X0.425000X-0.450000X0.425000X-0.450000X-0.425000X0.450000X-0.425000X0*%
%ADD28RoundRect,0.150000X-0.150000X0.587500X-0.150000X-0.587500X0.150000X-0.587500X0.150000X0.587500X0*%
%ADD29RoundRect,0.250000X-0.650000X0.325000X-0.650000X-0.325000X0.650000X-0.325000X0.650000X0.325000X0*%
%ADD30R,1.700000X1.700000*%
%ADD31O,1.700000X1.700000*%
%ADD32RoundRect,0.175000X-0.425000X0.175000X-0.425000X-0.175000X0.425000X-0.175000X0.425000X0.175000X0*%
%ADD33RoundRect,0.190000X0.410000X-0.190000X0.410000X0.190000X-0.410000X0.190000X-0.410000X-0.190000X0*%
%ADD34RoundRect,0.200000X0.400000X-0.200000X0.400000X0.200000X-0.400000X0.200000X-0.400000X-0.200000X0*%
%ADD35RoundRect,0.175000X0.425000X-0.175000X0.425000X0.175000X-0.425000X0.175000X-0.425000X-0.175000X0*%
%ADD36RoundRect,0.190000X-0.410000X0.190000X-0.410000X-0.190000X0.410000X-0.190000X0.410000X0.190000X0*%
%ADD37RoundRect,0.200000X-0.400000X0.200000X-0.400000X-0.200000X0.400000X-0.200000X0.400000X0.200000X0*%
%ADD38O,1.700000X1.100000*%
%ADD39RoundRect,0.250000X-0.325000X-0.650000X0.325000X-0.650000X0.325000X0.650000X-0.325000X0.650000X0*%
%ADD40RoundRect,0.250000X-0.450000X0.262500X-0.450000X-0.262500X0.450000X-0.262500X0.450000X0.262500X0*%
%ADD41RoundRect,0.150000X-0.587500X-0.150000X0.587500X-0.150000X0.587500X0.150000X-0.587500X0.150000X0*%
%ADD42RoundRect,0.150000X-0.512500X-0.150000X0.512500X-0.150000X0.512500X0.150000X-0.512500X0.150000X0*%
%ADD43RoundRect,0.250000X-0.475000X0.250000X-0.475000X-0.250000X0.475000X-0.250000X0.475000X0.250000X0*%
%ADD44RoundRect,0.243750X0.456250X-0.243750X0.456250X0.243750X-0.456250X0.243750X-0.456250X-0.243750X0*%
%ADD45RoundRect,0.250000X-1.000000X-0.650000X1.000000X-0.650000X1.000000X0.650000X-1.000000X0.650000X0*%
%ADD46RoundRect,0.250000X0.262500X0.450000X-0.262500X0.450000X-0.262500X-0.450000X0.262500X-0.450000X0*%
%ADD47RoundRect,0.243750X-0.243750X-0.456250X0.243750X-0.456250X0.243750X0.456250X-0.243750X0.456250X0*%
%ADD48R,1.500000X0.550000*%
%ADD49R,0.550000X1.500000*%
%ADD50RoundRect,0.150000X0.150000X-0.587500X0.150000X0.587500X-0.150000X0.587500X-0.150000X-0.587500X0*%
%ADD51RoundRect,0.250000X0.650000X-0.325000X0.650000X0.325000X-0.650000X0.325000X-0.650000X-0.325000X0*%
%ADD52R,2.000000X4.500000*%
G04 APERTURE END LIST*
D10*
G36*
X152222441Y-60831000D02*
G01*
X151791597Y-60831000D01*
X151707333Y-60268264D01*
X151179769Y-60268264D01*
X151095505Y-60831000D01*
X150630955Y-60831000D01*
X150791422Y-59846212D01*
X151234723Y-59846212D01*
X151652378Y-59846212D01*
X151450145Y-58406401D01*
X151441353Y-58406401D01*
X151234723Y-59846212D01*
X150791422Y-59846212D01*
X151112357Y-57876638D01*
X151741039Y-57876638D01*
X152222441Y-60831000D01*
G37*
G36*
X150657333Y-57876638D02*
G01*
X150189120Y-57876638D01*
X149885037Y-60178138D01*
X149876244Y-60178138D01*
X149572895Y-57876638D01*
X149146447Y-57876638D01*
X149593411Y-60831000D01*
X150209636Y-60831000D01*
X150657333Y-57876638D01*
G37*
G36*
X148931757Y-60831000D02*
G01*
X148467207Y-60831000D01*
X148467207Y-59564845D01*
X148306740Y-59564845D01*
X148215750Y-59572716D01*
X148081060Y-59645445D01*
X148028329Y-59774013D01*
X148015847Y-59927545D01*
X148015847Y-60468299D01*
X148015343Y-60544090D01*
X148007787Y-60696177D01*
X147973348Y-60831000D01*
X147500739Y-60831000D01*
X147504854Y-60821557D01*
X147543237Y-60677859D01*
X147547487Y-60624135D01*
X147551297Y-60472695D01*
X147551297Y-59954656D01*
X147555647Y-59830779D01*
X147575837Y-59681834D01*
X147620906Y-59537734D01*
X147629996Y-59518637D01*
X147722990Y-59401687D01*
X147859775Y-59331104D01*
X147859775Y-59323044D01*
X147805433Y-59297119D01*
X147686650Y-59198830D01*
X147605879Y-59058135D01*
X147566384Y-58900240D01*
X147555693Y-58739060D01*
X147555693Y-58602772D01*
X148020243Y-58602772D01*
X148020243Y-58830651D01*
X148028468Y-58935084D01*
X148089852Y-59070986D01*
X148151848Y-59114743D01*
X148298680Y-59142793D01*
X148467207Y-59142793D01*
X148467207Y-58298690D01*
X148256182Y-58298690D01*
X148212613Y-58301214D01*
X148077396Y-58370497D01*
X148038327Y-58450299D01*
X148020243Y-58602772D01*
X147555693Y-58602772D01*
X147555693Y-58557343D01*
X147559718Y-58453419D01*
X147582902Y-58305374D01*
X147633617Y-58165645D01*
X147720557Y-58043700D01*
X147814804Y-57970610D01*
X147949954Y-57913346D01*
X148095973Y-57884632D01*
X148243725Y-57876638D01*
X148931757Y-57876638D01*
X148931757Y-60831000D01*
G37*
G36*
X146206007Y-58298690D02*
G01*
X146691806Y-58298690D01*
X146691806Y-57876638D01*
X145256391Y-57876638D01*
X145256391Y-58298690D01*
X145742190Y-58298690D01*
X145742190Y-60831000D01*
X146206007Y-60831000D01*
X146206007Y-58298690D01*
G37*
G36*
X145042434Y-60831000D02*
G01*
X144577884Y-60831000D01*
X144577884Y-59564845D01*
X144417417Y-59564845D01*
X144326427Y-59572716D01*
X144191736Y-59645445D01*
X144139006Y-59774013D01*
X144126524Y-59927545D01*
X144126524Y-60468299D01*
X144126020Y-60544090D01*
X144118464Y-60696177D01*
X144084025Y-60831000D01*
X143611415Y-60831000D01*
X143615531Y-60821557D01*
X143653914Y-60677859D01*
X143658164Y-60624135D01*
X143661974Y-60472695D01*
X143661974Y-59954656D01*
X143666324Y-59830779D01*
X143686514Y-59681834D01*
X143731583Y-59537734D01*
X143740673Y-59518637D01*
X143833667Y-59401687D01*
X143970452Y-59331104D01*
X143970452Y-59323044D01*
X143916110Y-59297119D01*
X143797327Y-59198830D01*
X143716556Y-59058135D01*
X143677060Y-58900240D01*
X143666370Y-58739060D01*
X143666370Y-58602772D01*
X144130920Y-58602772D01*
X144130920Y-58830651D01*
X144139145Y-58935084D01*
X144200529Y-59070986D01*
X144262525Y-59114743D01*
X144409357Y-59142793D01*
X144577884Y-59142793D01*
X144577884Y-58298690D01*
X144366859Y-58298690D01*
X144323290Y-58301214D01*
X144188073Y-58370497D01*
X144149003Y-58450299D01*
X144130920Y-58602772D01*
X143666370Y-58602772D01*
X143666370Y-58557343D01*
X143670395Y-58453419D01*
X143693579Y-58305374D01*
X143744294Y-58165645D01*
X143831234Y-58043700D01*
X143925481Y-57970610D01*
X144060631Y-57913346D01*
X144206650Y-57884632D01*
X144354402Y-57876638D01*
X145042434Y-57876638D01*
X145042434Y-60831000D01*
G37*
G36*
X143473662Y-60831000D02*
G01*
X143042818Y-60831000D01*
X142958554Y-60268264D01*
X142430990Y-60268264D01*
X142346726Y-60831000D01*
X141882176Y-60831000D01*
X142042644Y-59846212D01*
X142485944Y-59846212D01*
X142903600Y-59846212D01*
X142701367Y-58406401D01*
X142692574Y-58406401D01*
X142485944Y-59846212D01*
X142042644Y-59846212D01*
X142363579Y-57876638D01*
X142992260Y-57876638D01*
X143473662Y-60831000D01*
G37*
G36*
X141668952Y-57876638D02*
G01*
X141086433Y-57876638D01*
X140635072Y-59661565D01*
X140626279Y-59661565D01*
X140626279Y-57876638D01*
X140213020Y-57876638D01*
X140213020Y-60831000D01*
X140690027Y-60831000D01*
X141246900Y-58704621D01*
X141254960Y-58704621D01*
X141254960Y-60831000D01*
X141668952Y-60831000D01*
X141668952Y-57876638D01*
G37*
G36*
X139271464Y-60877894D02*
G01*
X139430054Y-60865850D01*
X139583835Y-60823507D01*
X139711534Y-60750677D01*
X139782176Y-60685187D01*
X139865767Y-60563574D01*
X139922001Y-60415531D01*
X139949021Y-60261750D01*
X139955100Y-60132709D01*
X139955100Y-59963449D01*
X139516196Y-59963449D01*
X139516196Y-60167147D01*
X139492725Y-60319389D01*
X139392038Y-60433006D01*
X139275861Y-60455842D01*
X139131055Y-60416687D01*
X139097075Y-60386233D01*
X139041536Y-60248646D01*
X139035526Y-60159087D01*
X139051654Y-60004794D01*
X139104731Y-59858466D01*
X139119789Y-59831558D01*
X139211956Y-59706629D01*
X139315110Y-59597693D01*
X139431932Y-59490106D01*
X139549320Y-59381218D01*
X139663214Y-59262528D01*
X139765506Y-59136336D01*
X139833467Y-59030685D01*
X139893359Y-58896920D01*
X139931069Y-58752993D01*
X139946596Y-58598905D01*
X139947040Y-58566868D01*
X139935957Y-58400951D01*
X139902710Y-58254909D01*
X139838812Y-58114369D01*
X139769720Y-58022451D01*
X139643224Y-57920828D01*
X139502581Y-57861548D01*
X139356253Y-57834448D01*
X139254612Y-57829743D01*
X139098082Y-57841788D01*
X138946292Y-57884131D01*
X138807817Y-57966935D01*
X138750494Y-58022451D01*
X138667966Y-58144064D01*
X138612446Y-58292107D01*
X138585771Y-58445888D01*
X138579769Y-58574928D01*
X138579769Y-58698027D01*
X139018673Y-58698027D01*
X139018673Y-58544886D01*
X139037452Y-58399033D01*
X139078024Y-58322137D01*
X139209557Y-58254268D01*
X139250215Y-58251795D01*
X139391758Y-58291671D01*
X139471375Y-58424870D01*
X139482490Y-58535361D01*
X139463492Y-58681817D01*
X139406498Y-58818936D01*
X139396028Y-58836512D01*
X139302438Y-58959544D01*
X139198683Y-59067678D01*
X139081688Y-59175033D01*
X138963082Y-59284061D01*
X138848742Y-59403256D01*
X138747151Y-59530452D01*
X138680885Y-59637385D01*
X138622925Y-59773999D01*
X138586432Y-59924637D01*
X138571942Y-60072203D01*
X138570976Y-60123916D01*
X138579566Y-60275140D01*
X138610421Y-60428131D01*
X138671955Y-60574957D01*
X138750494Y-60682988D01*
X138864283Y-60777205D01*
X139003689Y-60840588D01*
X139149113Y-60871042D01*
X139271464Y-60877894D01*
G37*
G36*
X138313055Y-57876638D02*
G01*
X137848505Y-57876638D01*
X137848505Y-60831000D01*
X138313055Y-60831000D01*
X138313055Y-57876638D01*
G37*
G36*
X136903286Y-60877894D02*
G01*
X137061876Y-60865850D01*
X137215656Y-60823507D01*
X137343355Y-60750677D01*
X137413997Y-60685187D01*
X137497589Y-60563574D01*
X137553823Y-60415531D01*
X137580842Y-60261750D01*
X137586921Y-60132709D01*
X137586921Y-59963449D01*
X137148017Y-59963449D01*
X137148017Y-60167147D01*
X137124547Y-60319389D01*
X137023860Y-60433006D01*
X136907682Y-60455842D01*
X136762877Y-60416687D01*
X136728896Y-60386233D01*
X136673358Y-60248646D01*
X136667347Y-60159087D01*
X136683476Y-60004794D01*
X136736552Y-59858466D01*
X136751611Y-59831558D01*
X136843777Y-59706629D01*
X136946932Y-59597693D01*
X137063753Y-59490106D01*
X137181141Y-59381218D01*
X137295035Y-59262528D01*
X137397328Y-59136336D01*
X137465288Y-59030685D01*
X137525180Y-58896920D01*
X137562890Y-58752993D01*
X137578418Y-58598905D01*
X137578861Y-58566868D01*
X137567779Y-58400951D01*
X137534531Y-58254909D01*
X137470634Y-58114369D01*
X137401541Y-58022451D01*
X137275045Y-57920828D01*
X137134402Y-57861548D01*
X136988074Y-57834448D01*
X136886433Y-57829743D01*
X136729904Y-57841788D01*
X136578113Y-57884131D01*
X136439639Y-57966935D01*
X136382316Y-58022451D01*
X136299787Y-58144064D01*
X136244268Y-58292107D01*
X136217592Y-58445888D01*
X136211590Y-58574928D01*
X136211590Y-58698027D01*
X136650494Y-58698027D01*
X136650494Y-58544886D01*
X136669273Y-58399033D01*
X136709845Y-58322137D01*
X136841379Y-58254268D01*
X136882036Y-58251795D01*
X137023579Y-58291671D01*
X137103197Y-58424870D01*
X137114311Y-58535361D01*
X137095313Y-58681817D01*
X137038319Y-58818936D01*
X137027849Y-58836512D01*
X136934260Y-58959544D01*
X136830504Y-59067678D01*
X136713509Y-59175033D01*
X136594903Y-59284061D01*
X136480563Y-59403256D01*
X136378973Y-59530452D01*
X136312706Y-59637385D01*
X136254746Y-59773999D01*
X136218253Y-59924637D01*
X136203763Y-60072203D01*
X136202797Y-60123916D01*
X136211387Y-60275140D01*
X136242242Y-60428131D01*
X136303776Y-60574957D01*
X136382316Y-60682988D01*
X136496104Y-60777205D01*
X136635511Y-60840588D01*
X136780934Y-60871042D01*
X136903286Y-60877894D01*
G37*
G36*
X135581443Y-58298690D02*
G01*
X136067242Y-58298690D01*
X136067242Y-57876638D01*
X134631827Y-57876638D01*
X134631827Y-58298690D01*
X135117626Y-58298690D01*
X135117626Y-60831000D01*
X135581443Y-60831000D01*
X135581443Y-58298690D01*
G37*
G36*
X133886954Y-57836596D02*
G01*
X134032973Y-57867050D01*
X134173269Y-57930432D01*
X134288177Y-58024649D01*
X134367358Y-58132131D01*
X134429394Y-58277025D01*
X134460501Y-58427131D01*
X134469161Y-58574928D01*
X134469161Y-60132709D01*
X134462799Y-60260333D01*
X134434520Y-60412946D01*
X134375665Y-60560661D01*
X134288177Y-60682988D01*
X134214392Y-60749226D01*
X134082559Y-60822887D01*
X133925339Y-60865713D01*
X133764277Y-60877894D01*
X133641625Y-60871042D01*
X133495720Y-60840588D01*
X133355663Y-60777205D01*
X133241108Y-60682988D01*
X133161607Y-60575506D01*
X133099320Y-60430613D01*
X133068087Y-60280506D01*
X133059392Y-60132709D01*
X133059392Y-58574928D01*
X133060932Y-58544154D01*
X133523942Y-58544154D01*
X133523942Y-60163484D01*
X133535442Y-60277401D01*
X133617822Y-60414730D01*
X133764277Y-60455842D01*
X133880454Y-60432716D01*
X133981141Y-60317657D01*
X134004612Y-60163484D01*
X134004612Y-58544154D01*
X133993111Y-58430237D01*
X133910731Y-58292908D01*
X133764277Y-58251795D01*
X133648099Y-58274921D01*
X133547412Y-58389980D01*
X133523942Y-58544154D01*
X133060932Y-58544154D01*
X133065780Y-58447305D01*
X133094173Y-58294691D01*
X133153267Y-58146977D01*
X133241108Y-58024649D01*
X133314645Y-57958412D01*
X133446201Y-57884751D01*
X133603259Y-57841925D01*
X133764277Y-57829743D01*
X133886954Y-57836596D01*
G37*
G36*
X132756042Y-60831000D02*
G01*
X132291492Y-60831000D01*
X132291492Y-59564845D01*
X132131025Y-59564845D01*
X132040035Y-59572716D01*
X131905344Y-59645445D01*
X131852614Y-59774013D01*
X131840131Y-59927545D01*
X131840131Y-60468299D01*
X131839628Y-60544090D01*
X131832071Y-60696177D01*
X131797633Y-60831000D01*
X131325023Y-60831000D01*
X131329139Y-60821557D01*
X131367521Y-60677859D01*
X131371772Y-60624135D01*
X131375581Y-60472695D01*
X131375581Y-59954656D01*
X131379932Y-59830779D01*
X131400121Y-59681834D01*
X131445191Y-59537734D01*
X131454281Y-59518637D01*
X131547275Y-59401687D01*
X131684060Y-59331104D01*
X131684060Y-59323044D01*
X131629717Y-59297119D01*
X131510935Y-59198830D01*
X131430163Y-59058135D01*
X131390668Y-58900240D01*
X131379978Y-58739060D01*
X131379978Y-58602772D01*
X131844528Y-58602772D01*
X131844528Y-58830651D01*
X131852753Y-58935084D01*
X131914137Y-59070986D01*
X131976133Y-59114743D01*
X132122965Y-59142793D01*
X132291492Y-59142793D01*
X132291492Y-58298690D01*
X132080466Y-58298690D01*
X132036898Y-58301214D01*
X131901681Y-58370497D01*
X131862611Y-58450299D01*
X131844528Y-58602772D01*
X131379978Y-58602772D01*
X131379978Y-58557343D01*
X131384003Y-58453419D01*
X131407187Y-58305374D01*
X131457902Y-58165645D01*
X131544842Y-58043700D01*
X131639089Y-57970610D01*
X131774239Y-57913346D01*
X131920258Y-57884632D01*
X132068010Y-57876638D01*
X132756042Y-57876638D01*
X132756042Y-60831000D01*
G37*
G36*
X130030292Y-58298690D02*
G01*
X130516091Y-58298690D01*
X130516091Y-57876638D01*
X129080676Y-57876638D01*
X129080676Y-58298690D01*
X129566475Y-58298690D01*
X129566475Y-60831000D01*
X130030292Y-60831000D01*
X130030292Y-58298690D01*
G37*
G36*
X128866719Y-57876638D02*
G01*
X127600564Y-57876638D01*
X127600564Y-58298690D01*
X128402169Y-58298690D01*
X128402169Y-59095898D01*
X127764695Y-59095898D01*
X127764695Y-59517950D01*
X128402169Y-59517950D01*
X128402169Y-60408948D01*
X127600564Y-60408948D01*
X127600564Y-60831000D01*
X128866719Y-60831000D01*
X128866719Y-57876638D01*
G37*
G36*
X126730083Y-60877894D02*
G01*
X126888672Y-60865850D01*
X127042453Y-60823507D01*
X127170152Y-60750677D01*
X127240794Y-60685187D01*
X127324385Y-60563574D01*
X127380620Y-60415531D01*
X127407639Y-60261750D01*
X127413718Y-60132709D01*
X127413718Y-59963449D01*
X126974814Y-59963449D01*
X126974814Y-60167147D01*
X126951344Y-60319389D01*
X126850656Y-60433006D01*
X126734479Y-60455842D01*
X126589673Y-60416687D01*
X126555693Y-60386233D01*
X126500155Y-60248646D01*
X126494144Y-60159087D01*
X126510273Y-60004794D01*
X126563349Y-59858466D01*
X126578408Y-59831558D01*
X126670574Y-59706629D01*
X126773729Y-59597693D01*
X126890550Y-59490106D01*
X127007938Y-59381218D01*
X127121832Y-59262528D01*
X127224125Y-59136336D01*
X127292085Y-59030685D01*
X127351977Y-58896920D01*
X127389687Y-58752993D01*
X127405215Y-58598905D01*
X127405658Y-58566868D01*
X127394576Y-58400951D01*
X127361328Y-58254909D01*
X127297431Y-58114369D01*
X127228338Y-58022451D01*
X127101842Y-57920828D01*
X126961199Y-57861548D01*
X126814871Y-57834448D01*
X126713230Y-57829743D01*
X126556701Y-57841788D01*
X126404910Y-57884131D01*
X126266436Y-57966935D01*
X126209113Y-58022451D01*
X126126584Y-58144064D01*
X126071065Y-58292107D01*
X126044389Y-58445888D01*
X126038387Y-58574928D01*
X126038387Y-58698027D01*
X126477291Y-58698027D01*
X126477291Y-58544886D01*
X126496070Y-58399033D01*
X126536642Y-58322137D01*
X126668176Y-58254268D01*
X126708833Y-58251795D01*
X126850376Y-58291671D01*
X126929994Y-58424870D01*
X126941108Y-58535361D01*
X126922110Y-58681817D01*
X126865116Y-58818936D01*
X126854646Y-58836512D01*
X126761057Y-58959544D01*
X126657301Y-59067678D01*
X126540306Y-59175033D01*
X126421700Y-59284061D01*
X126307360Y-59403256D01*
X126205769Y-59530452D01*
X126139503Y-59637385D01*
X126081543Y-59773999D01*
X126045050Y-59924637D01*
X126030560Y-60072203D01*
X126029594Y-60123916D01*
X126038184Y-60275140D01*
X126069039Y-60428131D01*
X126130573Y-60574957D01*
X126209113Y-60682988D01*
X126322901Y-60777205D01*
X126462307Y-60840588D01*
X126607731Y-60871042D01*
X126730083Y-60877894D01*
G37*
G36*
X125408240Y-58298690D02*
G01*
X125894039Y-58298690D01*
X125894039Y-57876638D01*
X124458624Y-57876638D01*
X124458624Y-58298690D01*
X124944423Y-58298690D01*
X124944423Y-60831000D01*
X125408240Y-60831000D01*
X125408240Y-58298690D01*
G37*
G36*
X124244667Y-57876638D02*
G01*
X122978512Y-57876638D01*
X122978512Y-58298690D01*
X123780117Y-58298690D01*
X123780117Y-59095898D01*
X123142644Y-59095898D01*
X123142644Y-59517950D01*
X123780117Y-59517950D01*
X123780117Y-60408948D01*
X122978512Y-60408948D01*
X122978512Y-60831000D01*
X124244667Y-60831000D01*
X124244667Y-57876638D01*
G37*
G36*
X122720592Y-60831000D02*
G01*
X122256042Y-60831000D01*
X122256042Y-59564845D01*
X122095575Y-59564845D01*
X122004585Y-59572716D01*
X121869894Y-59645445D01*
X121817163Y-59774013D01*
X121804681Y-59927545D01*
X121804681Y-60468299D01*
X121804178Y-60544090D01*
X121796621Y-60696177D01*
X121762183Y-60831000D01*
X121289573Y-60831000D01*
X121293689Y-60821557D01*
X121332071Y-60677859D01*
X121336322Y-60624135D01*
X121340131Y-60472695D01*
X121340131Y-59954656D01*
X121344482Y-59830779D01*
X121364671Y-59681834D01*
X121409741Y-59537734D01*
X121418831Y-59518637D01*
X121511825Y-59401687D01*
X121648610Y-59331104D01*
X121648610Y-59323044D01*
X121594267Y-59297119D01*
X121475485Y-59198830D01*
X121394713Y-59058135D01*
X121355218Y-58900240D01*
X121344528Y-58739060D01*
X121344528Y-58602772D01*
X121809078Y-58602772D01*
X121809078Y-58830651D01*
X121817303Y-58935084D01*
X121878687Y-59070986D01*
X121940683Y-59114743D01*
X122087515Y-59142793D01*
X122256042Y-59142793D01*
X122256042Y-58298690D01*
X122045016Y-58298690D01*
X122001448Y-58301214D01*
X121866230Y-58370497D01*
X121827161Y-58450299D01*
X121809078Y-58602772D01*
X121344528Y-58602772D01*
X121344528Y-58557343D01*
X121348553Y-58453419D01*
X121371737Y-58305374D01*
X121422452Y-58165645D01*
X121509392Y-58043700D01*
X121603639Y-57970610D01*
X121738789Y-57913346D01*
X121884808Y-57884632D01*
X122032560Y-57876638D01*
X122720592Y-57876638D01*
X122720592Y-60831000D01*
G37*
D11*
%TO.C,SW1*%
X177125000Y-105145000D03*
D12*
X172125000Y-105145000D03*
X174625000Y-105145000D03*
D13*
X180225000Y-112645000D03*
X169025000Y-112645000D03*
D12*
X177125000Y-119645000D03*
X172125000Y-119645000D03*
%TD*%
D14*
%TO.C,J7*%
X113792000Y-59236000D03*
X113792000Y-97536000D03*
X179292000Y-59236000D03*
X179292000Y-97536000D03*
D15*
X113772000Y-69486000D03*
D16*
X113772000Y-72026000D03*
X113772000Y-74566000D03*
X113772000Y-77106000D03*
X113772000Y-79646000D03*
X113772000Y-82186000D03*
X113772000Y-84726000D03*
X113772000Y-87266000D03*
%TD*%
D15*
%TO.C,J5*%
X150368000Y-108585000D03*
D16*
X152908000Y-108585000D03*
X155448000Y-108585000D03*
%TD*%
D17*
%TO.C,J4*%
X120142000Y-116205000D03*
D18*
X122682000Y-116205000D03*
X125222000Y-116205000D03*
X127762000Y-116205000D03*
X130302000Y-116205000D03*
X132842000Y-116205000D03*
X135382000Y-116205000D03*
X135382000Y-108585000D03*
X132842000Y-108585000D03*
X130302000Y-108585000D03*
X127762000Y-108585000D03*
X125222000Y-108585000D03*
X122682000Y-108585000D03*
X120142000Y-108585000D03*
%TD*%
D19*
%TO.C,C11*%
X160924200Y-84886800D03*
X162824200Y-84886800D03*
%TD*%
D20*
%TO.C,R4*%
X165049200Y-60985400D03*
X165049200Y-59160400D03*
%TD*%
D21*
%TO.C,L1*%
X172212000Y-62204600D03*
X172212000Y-65354600D03*
%TD*%
D22*
%TO.C,C3*%
X174904400Y-71729600D03*
X171954400Y-71729600D03*
%TD*%
D19*
%TO.C,C6*%
X148717000Y-74422000D03*
X150617000Y-74422000D03*
%TD*%
D23*
%TO.C,C5*%
X162204400Y-61010800D03*
X162204400Y-59110800D03*
%TD*%
D24*
%TO.C,C7*%
X148463000Y-91694000D03*
X146563000Y-91694000D03*
%TD*%
D25*
%TO.C,C17*%
X148717000Y-71628000D03*
X151417000Y-71628000D03*
%TD*%
D26*
%TO.C,R6*%
X118190000Y-77089000D03*
X120015000Y-77089000D03*
%TD*%
D27*
%TO.C,C15*%
X147861000Y-94996000D03*
X145161000Y-94996000D03*
%TD*%
D28*
%TO.C,Q2*%
X156277900Y-63527700D03*
X158177900Y-63527700D03*
X157227900Y-65402700D03*
%TD*%
D29*
%TO.C,C12*%
X153875100Y-65426800D03*
X153875100Y-68376800D03*
%TD*%
D30*
%TO.C,J2*%
X180746400Y-66090800D03*
D31*
X178206400Y-66090800D03*
%TD*%
D32*
%TO.C,J1*%
X179796400Y-82710400D03*
D33*
X179796400Y-84730400D03*
D34*
X179796400Y-85960400D03*
D35*
X179796400Y-83710400D03*
D36*
X179796400Y-81690400D03*
D37*
X179796400Y-80460400D03*
D38*
X183676400Y-78890400D03*
X179876400Y-78890400D03*
X183676400Y-87530400D03*
X179876400Y-87530400D03*
%TD*%
D39*
%TO.C,C1*%
X170481200Y-78740000D03*
X173431200Y-78740000D03*
%TD*%
D30*
%TO.C,J3*%
X122936000Y-79629000D03*
D31*
X125476000Y-79629000D03*
X122936000Y-77089000D03*
X125476000Y-77089000D03*
X122936000Y-74549000D03*
X125476000Y-74549000D03*
%TD*%
D40*
%TO.C,R9*%
X120142000Y-102696000D03*
X120142000Y-104521000D03*
%TD*%
D41*
%TO.C,U5*%
X149561700Y-66378600D03*
X149561700Y-64478600D03*
X151436700Y-65428600D03*
%TD*%
D42*
%TO.C,U2*%
X170484800Y-83281600D03*
X170484800Y-82331600D03*
X170484800Y-81381600D03*
X172759800Y-81381600D03*
X172759800Y-83281600D03*
%TD*%
D40*
%TO.C,R10*%
X122682000Y-102719500D03*
X122682000Y-104544500D03*
%TD*%
D43*
%TO.C,C10*%
X134823200Y-91404400D03*
X134823200Y-93304400D03*
%TD*%
D44*
%TO.C,D4*%
X182191900Y-91894900D03*
X182191900Y-90019900D03*
%TD*%
D45*
%TO.C,D1*%
X176174400Y-75209400D03*
X180174400Y-75209400D03*
%TD*%
D26*
%TO.C,R22*%
X159524100Y-105691700D03*
X161349100Y-105691700D03*
%TD*%
%TO.C,R24*%
X163783000Y-115316000D03*
X165608000Y-115316000D03*
%TD*%
D40*
%TO.C,R2*%
X183667400Y-74804900D03*
X183667400Y-76629900D03*
%TD*%
D46*
%TO.C,R5*%
X155749000Y-91440000D03*
X153924000Y-91440000D03*
%TD*%
D28*
%TO.C,U4*%
X153924000Y-94234000D03*
X155824000Y-94234000D03*
X154874000Y-96109000D03*
%TD*%
D19*
%TO.C,C14*%
X159486600Y-103456500D03*
X161386600Y-103456500D03*
%TD*%
D24*
%TO.C,C4*%
X170637200Y-59055000D03*
X168737200Y-59055000D03*
%TD*%
D40*
%TO.C,R11*%
X125222000Y-102696000D03*
X125222000Y-104521000D03*
%TD*%
%TO.C,R8*%
X117602000Y-102719500D03*
X117602000Y-104544500D03*
%TD*%
D47*
%TO.C,D3*%
X160375600Y-112623600D03*
X162250600Y-112623600D03*
%TD*%
D40*
%TO.C,R12*%
X127762000Y-102719500D03*
X127762000Y-104544500D03*
%TD*%
%TO.C,R21*%
X174625000Y-114634000D03*
X174625000Y-116459000D03*
%TD*%
D48*
%TO.C,U1*%
X141975600Y-87210400D03*
X141975600Y-86410400D03*
X141975600Y-85610400D03*
X141975600Y-84810400D03*
X141975600Y-84010400D03*
X141975600Y-83210400D03*
X141975600Y-82410400D03*
X141975600Y-81610400D03*
X141975600Y-80810400D03*
X141975600Y-80010400D03*
X141975600Y-79210400D03*
D49*
X143675600Y-77510400D03*
X144475600Y-77510400D03*
X145275600Y-77510400D03*
X146075600Y-77510400D03*
X146875600Y-77510400D03*
X147675600Y-77510400D03*
X148475600Y-77510400D03*
X149275600Y-77510400D03*
X150075600Y-77510400D03*
X150875600Y-77510400D03*
X151675600Y-77510400D03*
D48*
X153375600Y-79210400D03*
X153375600Y-80010400D03*
X153375600Y-80810400D03*
X153375600Y-81610400D03*
X153375600Y-82410400D03*
X153375600Y-83210400D03*
X153375600Y-84010400D03*
X153375600Y-84810400D03*
X153375600Y-85610400D03*
X153375600Y-86410400D03*
X153375600Y-87210400D03*
D49*
X151675600Y-88910400D03*
X150875600Y-88910400D03*
X150075600Y-88910400D03*
X149275600Y-88910400D03*
X148475600Y-88910400D03*
X147675600Y-88910400D03*
X146875600Y-88910400D03*
X146075600Y-88910400D03*
X145275600Y-88910400D03*
X144475600Y-88910400D03*
X143675600Y-88910400D03*
%TD*%
D28*
%TO.C,Q3*%
X159451000Y-108130100D03*
X161351000Y-108130100D03*
X160401000Y-110005100D03*
%TD*%
D29*
%TO.C,C13*%
X146915500Y-64514200D03*
X146915500Y-67464200D03*
%TD*%
D26*
%TO.C,R3*%
X163224200Y-63144400D03*
X165049200Y-63144400D03*
%TD*%
D20*
%TO.C,R15*%
X175158400Y-101955600D03*
X175158400Y-100130600D03*
%TD*%
D45*
%TO.C,D2*%
X163271200Y-66446400D03*
X167271200Y-66446400D03*
%TD*%
D50*
%TO.C,Q4*%
X166497000Y-119634000D03*
X164597000Y-119634000D03*
X165547000Y-117759000D03*
%TD*%
D42*
%TO.C,U3*%
X167340700Y-63158400D03*
X167340700Y-62208400D03*
X167340700Y-61258400D03*
X169615700Y-61258400D03*
X169615700Y-62208400D03*
X169615700Y-63158400D03*
%TD*%
D50*
%TO.C,Q1*%
X179156400Y-71701900D03*
X177256400Y-71701900D03*
X178206400Y-69826900D03*
%TD*%
D46*
%TO.C,R18*%
X158138500Y-88646000D03*
X156313500Y-88646000D03*
%TD*%
D26*
%TO.C,R19*%
X156298600Y-86395800D03*
X158123600Y-86395800D03*
%TD*%
%TO.C,R1*%
X172720000Y-85242400D03*
X174545000Y-85242400D03*
%TD*%
D46*
%TO.C,R20*%
X158140400Y-61010800D03*
X156315400Y-61010800D03*
%TD*%
D20*
%TO.C,R14*%
X172110400Y-99974400D03*
X172110400Y-98149400D03*
%TD*%
D26*
%TO.C,R7*%
X160961700Y-87223600D03*
X162786700Y-87223600D03*
%TD*%
D51*
%TO.C,C2*%
X175793400Y-81686400D03*
X175793400Y-78736400D03*
%TD*%
D46*
%TO.C,R17*%
X178964600Y-101955600D03*
X177139600Y-101955600D03*
%TD*%
D26*
%TO.C,R23*%
X155956000Y-80807800D03*
X157781000Y-80807800D03*
%TD*%
D23*
%TO.C,C9*%
X134823200Y-74356000D03*
X134823200Y-72456000D03*
%TD*%
D19*
%TO.C,C8*%
X160909000Y-82804000D03*
X162809000Y-82804000D03*
%TD*%
D46*
%TO.C,R16*%
X172110400Y-101955600D03*
X170285400Y-101955600D03*
%TD*%
D40*
%TO.C,R13*%
X130302000Y-102719500D03*
X130302000Y-104544500D03*
%TD*%
%TO.C,R25*%
X175920400Y-88139900D03*
X175920400Y-89964900D03*
%TD*%
D52*
%TO.C,Y1*%
X134823200Y-78706400D03*
X134823200Y-87206400D03*
%TD*%
M02*
